<svg width="500" height="500" viewBox="0 0 500 500" fill="none" xmlns="http://www.w3.org/2000/svg">
<g clip-path="url(#clip0_224_3)">
<rect width="500" height="500" rx="250" fill="white"/>
<path d="M450.631 554.994C451.272 564.641 445.058 568.891 445.058 568.891C445.1 569.449 445.131 569.976 445.151 570.462C445.151 570.535 445.162 570.617 445.162 570.69C445.162 572.902 443.58 574.815 441.377 575.239C439.392 575.611 437.386 574.66 436.425 572.871C431.679 564.072 426.251 555.956 422.487 550.652C423.035 555.149 421.991 559.264 421.308 562.035C420.771 564.238 418.816 565.716 416.645 565.716C416.283 565.716 415.911 565.675 415.549 565.592C413.761 565.168 412.385 563.772 411.982 561.973C411.434 559.564 410.193 555.594 407.412 550.031C402.418 540.033 404.052 524.524 404.052 524.524C388.356 516.883 376.332 507.298 367.522 498.675C395.853 477.696 402.501 451.29 402.501 451.29L433.871 506.089L449.504 520.409C453.03 523.645 455.315 528.029 455.883 532.785C456.721 539.775 456.597 549.659 450.631 554.994Z" fill="#FDC7A3"/>
<path d="M444.829 528.344C448.355 531.58 450.64 535.964 451.209 540.72C451.7 544.818 451.85 549.906 450.696 554.494C450.802 554.531 450.902 554.579 451.006 554.619C456.587 549.208 456.703 539.619 455.884 532.785C455.315 528.029 453.03 523.645 449.504 520.409L433.871 506.089L402.501 451.29C402.501 451.29 401.542 455.09 398.811 460.946L429.196 514.024L444.829 528.344Z" fill="white"/>
<g opacity="0.3">
<path d="M422.597 554.989C422.049 552.58 418.724 550.909 415.942 545.346C410.948 535.348 412.582 519.839 412.582 519.839C412.425 519.762 412.268 519.686 412.112 519.609C393.633 510.525 387.622 486.98 399.367 470.068C402.392 465.712 404.698 461.64 406.429 458.151L402.501 451.29C402.501 451.29 395.853 477.696 367.523 498.675C376.332 507.298 388.357 516.883 404.052 524.524C404.052 524.524 402.418 540.033 407.412 550.031C410.194 555.594 411.434 559.564 411.982 561.973C412.386 563.772 413.761 565.168 415.55 565.592C415.911 565.675 416.284 565.716 416.645 565.716C418.817 565.716 420.771 564.238 421.309 562.035C421.481 561.335 421.676 560.547 421.864 559.69C421.203 559.052 422.807 555.928 422.597 554.989Z" fill="#000072"/>
</g>
<path d="M342.553 521.277L319.572 393.864L199.637 383.4C199.637 383.4 164.574 467.026 172.8 523.521C176.781 525.392 181.392 527.026 186.479 528.432C203.436 533.126 225.697 535.359 247.875 536.259C253.272 536.476 258.649 536.611 263.953 536.683C284.662 536.973 304.121 536.3 317.728 535.618C326.444 535.173 332.772 534.729 335.471 534.522C337.259 534.388 338.707 534.067 339.855 533.601C347.32 530.634 342.915 521.949 342.553 521.277Z" fill="#22B5FF"/>
<g opacity="0.3">
<path d="M342.553 521.277L319.572 393.864L301.874 392.32C302.808 396.354 304.701 404.53 308.547 421.133C316.129 453.874 278.562 488.751 278.562 488.751C308.202 492.265 319.641 478.092 319.641 478.092C319.641 478.092 319.231 519.702 251.442 518.204C183.654 516.706 170.687 469.039 187.92 478.092C205.152 487.145 222.04 483.169 222.04 483.169C175.168 447.671 213.617 388.211 213.617 388.211C213.617 388.211 220.316 412.344 258.887 413.033C278.194 413.378 292.482 398.924 298.207 392L199.637 383.4C199.637 383.4 164.574 467.026 172.8 523.521C176.781 525.392 181.392 527.026 186.479 528.432C203.436 533.126 225.697 535.359 247.875 536.259C253.272 536.476 258.649 536.611 263.953 536.683C284.662 536.973 304.121 536.3 317.728 535.618C326.444 535.173 332.772 534.729 335.471 534.522C337.259 534.388 338.707 534.067 339.855 533.601C347.32 530.634 342.915 521.949 342.553 521.277Z" fill="#000072"/>
</g>
<path d="M283.674 391.263C284.586 383.174 269.532 374.837 250.05 372.641C230.568 370.445 214.036 375.223 213.124 383.312C212.212 391.401 227.266 399.738 246.748 401.934C266.23 404.13 282.762 399.352 283.674 391.263Z" fill="#FDC7A3"/>
<path d="M350.835 488.75C348.271 485.234 345.913 481.677 343.763 478.089C322.195 442.305 319.879 404.411 319.641 395.715C321.967 395.395 324.356 395.281 326.63 395.291C334.24 395.333 341.685 397.576 348.095 401.671C364.38 412.062 381.698 426.733 381.698 426.733C381.698 426.733 385.958 424.407 391.262 426.733C396.556 429.06 395.139 434.87 395.139 434.87C395.139 434.87 399.141 432.037 402.501 436.039C405.861 440.04 402.501 451.29 402.501 451.29C402.501 451.29 395.853 477.696 367.523 498.675C367.523 498.675 362.601 501.911 358.259 498.055C355.601 495.015 353.13 491.903 350.835 488.75Z" fill="#22B5FF"/>
<g opacity="0.6">
<path d="M402.501 436.038C399.141 432.037 395.139 434.87 395.139 434.87C395.139 434.87 396.556 429.059 391.262 426.733C385.958 424.406 381.698 426.733 381.698 426.733C381.698 426.733 364.38 412.061 348.095 401.67C341.685 397.575 334.24 395.332 326.63 395.29C324.356 395.28 321.967 395.394 319.641 395.714C319.675 396.961 319.755 398.825 319.925 401.179C320.614 401.158 321.299 401.146 321.973 401.149C329.583 401.191 337.027 403.434 343.438 407.529C359.722 417.92 384.456 436.807 384.456 436.807L386.605 432.591C391.899 434.918 390.482 440.729 390.482 440.729C390.482 440.729 394.484 437.896 397.844 441.897C401.204 445.898 397.844 457.148 397.844 457.148C397.844 457.148 394.898 468.813 384.614 482.794C398.697 466.371 402.501 451.289 402.501 451.289C402.501 451.289 405.861 440.04 402.501 436.038Z" fill="white"/>
</g>
<g opacity="0.3">
<path d="M371.423 488.484C368.766 485.445 366.294 482.333 363.999 479.179C361.435 475.663 359.077 472.107 356.927 468.519C340.158 440.696 335.028 411.605 333.463 395.947C331.215 395.541 328.933 395.303 326.63 395.29C324.356 395.28 321.967 395.394 319.641 395.714C319.879 404.41 322.195 442.304 343.763 478.089C345.913 481.677 348.271 485.233 350.835 488.749C353.13 491.902 355.601 495.014 358.258 498.054C362.601 501.911 367.523 498.675 367.523 498.675C371.216 495.94 374.532 493.112 377.522 490.264C375.77 490.553 373.53 490.356 371.423 488.484Z" fill="#000072"/>
</g>
<path d="M358.258 498.054C362.239 502.635 366.633 507.06 371.483 511.258C372 529.352 358.558 536.248 358.558 536.248C352.716 531.823 347.402 526.777 342.553 521.277C342.543 521.246 342.532 521.235 342.532 521.235C312.6 487.281 300.719 436.349 296.387 410.004C294.64 399.457 294.113 392.851 294.113 392.851L319.61 393.864C319.61 393.864 319.599 394.505 319.64 395.715C319.878 404.41 322.194 442.304 343.762 478.089C345.913 481.677 348.27 485.234 350.834 488.749C353.13 491.902 355.601 495.014 358.258 498.054Z" fill="#F92828"/>
<path d="M365.788 507.22C367.593 509.297 369.495 511.336 371.473 513.342C371.495 512.663 371.503 511.973 371.483 511.259C367.117 507.479 363.138 503.508 359.479 499.412C361.457 502.053 363.553 504.663 365.788 507.22Z" fill="#000072"/>
<g opacity="0.3">
<path d="M303.917 419.169C303.899 419.063 303.882 418.958 303.865 418.853C302.431 410.144 309.371 402.322 318.19 402.673L320.047 402.747C319.79 399.636 319.682 397.226 319.641 395.715C319.599 394.505 319.61 393.864 319.61 393.864L294.113 392.851C294.113 392.851 294.64 399.458 296.387 410.004C300.719 436.349 312.6 487.281 342.532 521.235C342.532 521.235 342.543 521.246 342.553 521.277C342.871 521.638 343.209 521.98 343.531 522.338C318.372 488.804 307.918 443.503 303.917 419.169Z" fill="#000072"/>
</g>
<g opacity="0.6">
<path d="M358.258 498.055C355.601 495.015 353.13 491.903 350.835 488.749C348.271 485.234 345.913 481.677 343.763 478.089C322.195 442.305 319.879 404.411 319.641 395.715C319.599 394.506 319.61 393.864 319.61 393.864L315.818 400.462C315.239 401.469 314.948 402.615 314.987 403.775C314.987 403.787 314.988 403.799 314.988 403.811C315.226 412.506 317.542 450.4 339.11 486.185C341.261 489.773 343.618 493.33 346.182 496.845C347.398 498.516 348.668 500.175 349.984 501.818C355.062 503.953 360.826 504.73 365.686 505.902C363.07 503.346 360.584 500.731 358.258 498.055Z" fill="white"/>
</g>
<path d="M159.845 474.409H159.855C172.707 455.612 179.252 403.377 180.958 387.826C181.268 385.014 181.413 383.401 181.413 383.401C191.752 375.657 206.496 383.401 206.496 383.401C206.496 383.401 207.892 390.566 207.944 403.077C208.068 427.426 203.105 472.051 172.8 523.521C170.329 527.719 167.692 531.968 164.87 536.249C164.87 536.249 162.915 535.835 159.834 534.843C159.834 534.832 159.834 534.832 159.834 534.832C151.707 532.227 135.702 525.609 126.955 512.116C126.955 512.116 142.805 485.223 147.458 473.85L159.845 474.409Z" fill="#F92828"/>
<g opacity="0.3">
<path d="M206.496 383.401C206.496 383.401 193.61 376.635 183.483 382.082C192.058 382.323 199.718 389.47 199.926 398.897C200.338 417.564 197.411 453.806 175.392 499.541C166.885 517.21 143.703 523.147 127.619 513.062C136.488 525.908 151.903 532.29 159.834 534.833C159.834 534.833 159.834 534.833 159.834 534.843C162.916 535.836 164.87 536.249 164.87 536.249C167.692 531.969 170.329 527.719 172.8 523.521C203.105 472.051 208.068 427.426 207.944 403.077C207.892 390.566 206.496 383.401 206.496 383.401Z" fill="#000072"/>
</g>
<path d="M147.468 389.77L147.344 389.832C147.21 389.522 147.075 389.212 146.931 388.912C145.907 386.761 143.333 385.779 141.203 386.854C139.786 387.578 138.339 388.747 137.501 390.638L137.45 390.659C136.054 388.415 133.428 387.144 130.791 387.692C128.227 388.219 125.497 390.101 124.318 395.353C125.735 395.767 127.213 396.139 128.764 396.47C128.764 396.47 141.43 427.767 121.527 462.663C121.527 462.663 119.087 462.611 115.22 461.825V461.836C114.01 468.928 116.378 472.496 118.952 474.274C121.413 475.99 124.722 475.649 126.893 473.56C127.038 473.426 127.183 473.281 127.317 473.147C127.348 473.209 127.369 473.281 127.4 473.343C129.478 478.203 136.095 478.854 139.269 474.615C139.538 474.253 139.796 473.891 140.055 473.519H140.065L147.458 473.85L159.845 474.408H159.855C172.707 455.611 179.252 403.376 180.958 387.826C173.255 384.332 147.468 389.77 147.468 389.77Z" fill="#22B5FF"/>
<path d="M128.764 396.47C127.213 396.139 125.735 395.767 124.318 395.353C105.242 389.832 98.0042 377.621 98.0042 377.621C98.0042 377.621 99.6173 367.137 99.2966 360.323C99.1519 357.263 96.5773 354.874 93.5168 354.874H91.2835L86.1138 318.893C85.7519 316.349 82.8982 315.005 80.7063 316.349C78.9691 317.414 77.5425 318.862 76.5084 320.547C75.4848 322.233 74.8644 324.177 74.73 326.203C74.4611 330.318 74.3681 335.819 75.0815 341.061C75.2366 342.167 74.5232 343.212 73.4479 343.491C73.2619 343.542 73.0757 343.563 72.8998 343.563C72.1554 343.563 71.442 343.191 71.0284 342.55L57.98 322.409C56.5945 320.268 53.7511 319.617 51.5593 320.94C50.1324 321.809 49.2845 323.349 49.2845 324.983C49.2845 325.252 49.3051 325.531 49.3569 325.8C50.0497 329.667 51.6626 336.543 55.2297 343.76C48.6332 347.503 48.6331 351.773 48.6331 351.773C48.6331 351.773 48.7055 351.918 48.8503 352.186C45.8932 353.747 44.2596 356.425 43.4737 358.111C43.0395 359.041 43.0292 360.117 43.4428 361.058C45.8002 366.444 50.3598 368.802 52.6863 367.851C52.6863 367.851 51.3939 374.954 54.8369 380.723C58.2903 386.493 63.8839 385.624 63.8839 385.624C65.9207 445.614 100.682 458.9 115.219 461.826C119.086 462.612 121.526 462.663 121.526 462.663C141.43 427.767 128.764 396.47 128.764 396.47Z" fill="#FDC7A3"/>
<g opacity="0.3">
<path d="M128.764 396.47C127.213 396.139 125.735 395.767 124.319 395.353C105.242 389.832 98.0045 377.621 98.0045 377.621C98.0045 377.621 99.6174 367.137 99.297 360.324C99.1531 357.261 96.5839 354.874 93.5171 354.874H91.2838L86.1141 318.893C85.7523 316.349 82.8985 315.005 80.7067 316.349C79.3357 317.19 78.1674 318.275 77.2236 319.521C77.4354 319.896 77.5855 320.317 77.6515 320.78L82.8212 356.761H85.0545C88.121 356.761 90.6902 359.148 90.8343 362.211C91.1548 369.024 89.5419 379.508 89.5419 379.508C89.5419 379.508 92.9122 384.413 98.9984 389.241C120.208 406.066 127.595 435.287 115.679 459.597C115.337 460.296 114.981 460.996 114.614 461.699C114.819 461.743 115.022 461.785 115.22 461.825C119.087 462.611 121.527 462.663 121.527 462.663C141.43 427.767 128.764 396.47 128.764 396.47Z" fill="#000072"/>
</g>
<path d="M49.5174 324.295L62.5659 344.436C62.9795 345.077 63.6929 345.45 64.4373 345.45C64.6131 345.45 64.7992 345.429 64.9853 345.377C66.0606 345.098 66.7741 344.054 66.619 342.948C66.253 340.259 66.1015 337.505 66.0747 334.903L57.9803 322.408C56.5949 320.268 53.7514 319.617 51.5596 320.94C50.3892 321.653 49.6177 322.819 49.3748 324.116C49.4197 324.179 49.4752 324.23 49.5174 324.295Z" fill="#FDC7A3"/>
<path d="M358.52 539.351C357.856 539.351 357.196 539.137 356.646 538.72C326.868 516.133 310.598 477.683 302.192 449.405C293.137 418.94 291.003 393.355 290.983 393.1C290.911 392.215 291.222 391.343 291.837 390.702C292.452 390.063 293.311 389.716 294.197 389.751L319.694 390.765C321.368 390.831 322.687 392.217 322.673 393.892C322.667 394.597 322.671 464.878 373.475 508.914C374.132 509.483 374.519 510.301 374.545 511.17C375.112 530.992 360.556 538.69 359.936 539.009C359.49 539.238 359.004 539.351 358.52 539.351ZM297.53 396.092C299.585 413.878 311.379 494.886 358.699 532.461C361.786 530.216 368.207 524.172 368.354 512.675C341.349 488.763 328.684 458.01 322.809 436.292C317.827 417.879 316.755 402.989 316.528 396.848L297.53 396.092Z" fill="#000072"/>
<path d="M387.915 322.408C387.285 322.047 386.644 321.726 385.992 321.436L375.753 337.94C376.703 335.848 377.131 334.63 377.131 334.63L412.394 216.147C273.61 125.93 155.989 163.15 155.989 163.15L131.23 283.012C129.914 282.759 128.563 282.622 127.175 282.622C115.14 282.622 105.38 292.373 105.38 304.418C105.38 316.453 115.14 326.213 127.175 326.213C130.586 326.213 133.821 325.428 136.694 324.023C145.855 350.601 170.776 379.206 244.445 393.213C311.146 405.902 346.616 378.899 363.638 357.467L363.618 357.501C364.59 358.297 365.644 359.02 366.771 359.661C377.235 365.606 390.459 362.081 396.29 351.793C402.142 341.495 398.379 328.354 387.915 322.408Z" fill="#FDC7A3"/>
<g opacity="0.3">
<path d="M394.228 338.177C388.397 348.464 375.645 352.25 365.181 346.305C364.054 345.664 322.079 394.667 242.383 379.596C168.7 365.664 143.793 336.984 134.632 310.406C131.759 311.811 128.524 312.597 125.113 312.597C115.127 312.597 106.727 305.869 104.149 296.705C103.621 298.586 103.318 300.562 103.318 302.613C103.318 314.648 113.078 324.408 125.113 324.408C128.524 324.408 131.759 323.623 134.632 322.218C143.793 348.796 168.714 377.401 242.383 391.408C309.084 404.097 344.554 377.094 361.576 355.662L361.556 355.695C362.528 356.491 363.582 357.215 364.709 357.856C375.173 363.801 388.397 360.276 394.228 349.988C397.166 344.818 397.678 338.933 396.138 333.601C395.686 335.164 395.067 336.701 394.228 338.177Z" fill="#000072"/>
</g>
<path d="M447.098 182.463C447.098 182.463 436.242 184.531 429.345 167.812C422.449 151.104 410.393 147.309 410.393 147.309H427.278C410.993 139.638 411.076 120.944 380.75 122.495C380.75 122.495 390.697 114.864 401.429 116.549C401.429 116.549 377.472 98.0211 340.768 107.844C340.768 107.844 353.351 99.2309 352.834 81.6538C352.834 81.6538 329.57 89.9253 318.021 84.9313C318.021 84.9313 321.123 75.967 312.685 68.2124C312.685 68.2124 314.319 83.7215 264.173 81.3953C214.026 79.069 186.627 89.9253 174.478 114.998C174.478 114.998 134.154 104.659 112.958 159.2L130.019 151.704C130.019 151.704 129.243 159.717 132.345 163.977C105.545 252.947 130.536 286.375 130.536 286.375C148.113 246.568 195.157 204.693 195.157 204.693L202.912 168.764C202.912 168.764 273.416 168.629 345.637 189.474C345.637 189.474 345.42 210.556 341.285 223.304C341.285 223.304 381.267 275.001 377.131 334.629C377.131 334.629 423.008 272.551 421.26 221.216C424.414 223.108 427.516 225.062 430.555 227.099C430.555 227.099 432.447 209.604 423.4 196.939C423.4 196.939 442.787 191.593 447.098 182.463Z" fill="#716C82"/>
<path d="M447.098 182.463C447.098 182.463 436.242 184.531 429.345 167.812C422.449 151.104 410.393 147.309 410.393 147.309H427.278C410.993 139.638 411.076 120.944 380.75 122.495C380.75 122.495 390.697 114.864 401.429 116.549C401.429 116.549 377.472 98.0211 340.768 107.844C340.768 107.844 353.351 99.2309 352.834 81.6538C352.834 81.6538 329.57 89.9253 318.021 84.9313C318.021 84.9313 321.123 75.967 312.685 68.2124C312.685 68.2124 314.319 83.7215 264.173 81.3953C214.026 79.069 186.627 89.9253 174.478 114.998C174.478 114.998 134.154 104.659 112.958 159.2L130.019 151.704C130.019 151.704 129.243 159.717 132.345 163.977C105.545 252.947 130.536 286.375 130.536 286.375C148.113 246.568 195.157 204.693 195.157 204.693L202.912 168.764C202.912 168.764 273.416 168.629 345.637 189.474C345.637 189.474 345.42 210.556 341.285 223.304C341.285 223.304 381.267 275.001 377.131 334.629C377.131 334.629 423.008 272.551 421.26 221.216C424.414 223.108 427.516 225.062 430.555 227.099C430.555 227.099 432.447 209.604 423.4 196.939C423.4 196.939 442.787 191.593 447.098 182.463Z" fill="#635D7C"/>
<g opacity="0.6">
<path d="M306.413 76.1509C311.643 83.1207 309.232 90.101 309.232 90.101C320.781 95.095 344.045 86.8235 344.045 86.8235C344.257 94.0294 342.267 99.7288 339.845 103.946C337.996 107.165 340.55 111.089 344.239 110.664C364.931 108.281 380.282 114.588 387.689 118.631C391.448 117.048 396.343 115.751 401.429 116.549C401.429 116.549 377.473 98.0211 340.768 107.844C340.768 107.844 353.351 99.2309 352.834 81.6538C352.834 81.6538 329.57 89.9253 318.021 84.9313C318.021 84.9313 321.123 75.967 312.686 68.2124C312.686 68.2124 313.126 72.4406 306.413 76.1509Z" fill="white"/>
</g>
<g opacity="0.6">
<path d="M255.384 86.5655C286.704 88.0186 297.825 82.514 301.761 78.1763C294.721 80.5997 283.161 82.2767 264.173 81.3958C229.931 79.8073 206.302 84.3708 190.885 95.4051C206.042 88.139 227.091 85.2529 255.384 86.5655Z" fill="white"/>
</g>
<g opacity="0.6">
<path d="M382.828 122.429C376.539 124.163 371.961 127.664 371.961 127.664C396.699 126.399 401.205 138.604 410.863 147.309H427.278C411.377 139.819 411.065 121.83 382.828 122.429Z" fill="white"/>
</g>
<path d="M430.555 230.201C429.95 230.201 429.348 230.024 428.828 229.676C425.97 227.762 422.887 225.811 419.664 223.877C398.774 211.335 373.579 200.763 344.778 192.455C274.113 172.06 204.158 171.866 202.928 171.866C202.918 171.866 202.915 171.866 202.911 171.866C202.796 171.866 202.681 171.86 202.566 171.847L172.582 168.486C171.269 168.339 170.194 167.378 169.902 166.089L168.839 161.394L167.088 165.258C166.538 166.47 165.29 167.197 163.954 167.064L143.275 164.996C142.404 164.909 141.61 164.457 141.089 163.753C140.577 163.059 140.376 162.184 140.535 161.337L134.297 166.388C133.636 166.923 132.788 167.161 131.941 167.053C131.098 166.942 130.338 166.491 129.838 165.803C127.861 163.09 127.143 159.422 126.914 156.456L114.206 162.04C113.057 162.545 111.717 162.307 110.81 161.438C109.905 160.569 109.613 159.239 110.07 158.07C121.592 128.641 138.573 117.646 150.789 113.605C160.534 110.382 168.8 110.932 172.768 111.519C186.231 86.2531 214.611 75.9861 264.316 78.2977C294.302 79.6902 304.41 74.5852 307.765 71.4187C309.327 69.9438 309.552 68.7687 309.584 68.4571C309.34 67.1684 309.966 66.0145 311.116 65.3555C312.285 64.6839 313.786 65.0132 314.785 65.9289C321.486 72.089 321.985 78.9565 321.576 82.8384C330.695 84.9809 346.153 80.7341 351.795 78.7316C352.729 78.4004 353.766 78.5342 354.585 79.0951C355.402 79.6549 355.904 80.5721 355.934 81.5632C356.21 90.9622 353.087 98.012 349.784 102.79C381.936 97.9258 402.39 113.372 403.326 114.096C404.446 114.963 404.838 116.477 404.277 117.778C403.717 119.079 402.35 119.836 400.947 119.614C398.257 119.192 395.596 119.455 393.174 120.043C405.272 122.182 411.132 128.601 416.449 134.421C420.045 138.356 423.439 142.073 428.599 144.504C429.913 145.122 430.621 146.57 430.304 147.987C429.988 149.404 428.729 150.412 427.278 150.412H421.059C424.859 153.817 429.053 158.973 432.213 166.629C437.961 180.567 446.218 179.463 446.567 179.407C447.711 179.188 448.861 179.637 449.575 180.559C450.289 181.482 450.401 182.732 449.903 183.788C446.259 191.504 434.49 196.493 428.157 198.69C435.248 211.58 433.714 226.735 433.639 227.433C433.522 228.511 432.849 229.451 431.866 229.91C431.449 230.105 431.001 230.201 430.555 230.201ZM203.088 165.663C207.155 165.679 276.471 166.283 346.497 186.494C375.816 194.952 401.506 205.739 422.857 218.557C424.469 219.524 426.047 220.496 427.584 221.467C427.401 215.664 426.199 206.193 420.876 198.742C420.288 197.918 420.14 196.858 420.478 195.904C420.815 194.949 421.598 194.219 422.575 193.949C426.559 192.847 436.014 189.459 441.248 184.893C436.758 183.474 430.82 179.523 426.478 168.996C420.28 153.977 409.883 150.407 409.443 150.263C407.996 149.786 407.099 148.327 407.341 146.822C407.582 145.318 408.87 144.208 410.394 144.208H417.31C415.34 142.404 413.591 140.49 411.87 138.605C405.318 131.434 399.13 124.663 380.908 125.593C379.535 125.657 378.309 124.84 377.839 123.567C377.37 122.292 377.785 120.86 378.862 120.034C379.165 119.802 384.116 116.062 390.954 114.217C381.221 109.846 363.776 104.898 341.569 110.84C340.111 111.231 338.581 110.512 337.95 109.139C337.318 107.766 337.768 106.138 339.016 105.284C339.42 105.002 348.258 98.6929 349.582 85.9406C342.01 88.1561 326.254 91.8693 316.79 87.779C315.3 87.1346 314.559 85.4513 315.09 83.9174C315.16 83.7029 316.57 79.1683 313.611 74.1741C313.33 74.5436 313.013 74.9186 312.656 75.2972C305.789 82.579 289.431 85.6723 264.029 84.4943C215.795 82.2581 189.029 92.081 177.27 116.351C176.621 117.687 175.12 118.376 173.684 117.997C172.238 117.624 139.438 109.765 118.918 153.193L128.771 148.864C129.778 148.422 130.944 148.546 131.837 149.191C132.728 149.837 133.212 150.907 133.106 152.002C132.99 153.23 132.938 156.325 133.558 159.004L143.317 151.102C144.334 150.279 145.755 150.183 146.875 150.859C147.994 151.536 148.568 152.842 148.311 154.124L147.299 159.164L162.357 160.669L167 150.423C167.551 149.21 168.815 148.484 170.14 148.618C171.466 148.753 172.557 149.72 172.851 151.019L175.466 162.567L203.088 165.663Z" fill="#000072"/>
<path d="M377.131 337.732C376.772 337.732 376.411 337.67 376.059 337.54C374.766 337.064 373.942 335.79 374.038 334.415C378.04 276.704 339.222 225.71 338.83 225.202C338.203 224.391 338.017 223.322 338.334 222.348C342.273 210.205 342.534 189.648 342.536 189.442C342.546 188.473 343.009 187.564 343.786 186.986C344.564 186.407 345.566 186.225 346.497 186.494C375.816 194.952 401.506 205.739 422.857 218.557C423.758 219.099 424.325 220.06 424.36 221.111C426.124 272.93 381.525 333.903 379.626 336.473C379.028 337.281 378.094 337.732 377.131 337.732ZM344.711 222.705C350.608 230.741 379.916 273.207 380.528 324.16C392.543 305.761 418.7 261.229 418.199 223.005C398.544 211.402 375.163 201.515 348.623 193.584C348.356 200.106 347.49 213.08 344.711 222.705Z" fill="#000072"/>
<path d="M130.536 289.478C129.564 289.478 128.641 289.022 128.051 288.233C126.992 286.817 102.433 252.524 129.375 163.083C129.554 162.487 129.909 161.958 130.393 161.567L143.317 151.103C144.334 150.28 145.756 150.184 146.875 150.86C147.994 151.537 148.568 152.842 148.311 154.125L147.299 159.164L162.357 160.67L167 150.424C167.551 149.211 168.815 148.485 170.14 148.619C171.466 148.754 172.557 149.72 172.851 151.02L175.466 162.568L203.257 165.682C204.129 165.78 204.918 166.242 205.429 166.954C205.942 167.666 206.128 168.562 205.944 169.419L198.189 205.349C198.05 205.991 197.71 206.573 197.22 207.011C196.754 207.426 150.47 248.909 133.373 287.629C132.928 288.637 131.981 289.334 130.886 289.458C130.768 289.471 130.651 289.478 130.536 289.478ZM135.041 165.786C115.102 232.592 125.01 267.383 130.362 279.492C148.388 243.695 186.286 208.545 192.337 203.059L199.155 171.465L172.582 168.487C171.269 168.34 170.194 167.378 169.902 166.089L168.839 161.395L167.088 165.258C166.538 166.47 165.29 167.197 163.954 167.064L143.275 164.996C142.404 164.909 141.61 164.457 141.089 163.753C140.577 163.059 140.376 162.185 140.535 161.338L135.041 165.786Z" fill="#000072"/>
<path d="M276.883 399.537C266.835 399.537 255.852 398.54 243.865 396.26C134.326 375.433 130.226 322.448 127.776 290.79C127.666 289.361 127.558 287.976 127.444 286.639C127.4 286.12 127.488 285.599 127.698 285.123C144.327 247.461 185.968 208.832 192.336 203.059L199.878 168.11C200.186 166.684 201.446 165.665 202.905 165.662C202.908 165.662 202.913 165.662 202.919 165.662C204.239 165.662 274.997 165.858 346.497 186.494C347.836 186.881 348.753 188.112 348.739 189.506C348.73 190.352 348.488 209.622 344.711 222.705C351.015 231.297 384.081 279.246 380.225 334.844C380.206 335.121 380.15 335.395 380.058 335.656C379.765 336.491 372.653 356.29 352.221 373.776C337.486 386.389 313.366 399.537 276.883 399.537ZM133.693 286.911C133.783 288.014 133.872 289.148 133.962 290.311C135.173 305.969 136.681 325.455 150.818 343.972C167.815 366.234 198.63 381.344 245.024 390.166C287.509 398.248 322.14 391.216 347.955 369.262C365.755 354.125 373.006 336.699 374.068 333.966C377.835 276.442 339.221 225.709 338.829 225.202C338.203 224.391 338.018 223.322 338.333 222.348C341.481 212.645 342.281 197.569 342.475 191.797C279.858 174.105 218.382 172.116 205.409 171.894L198.189 205.348C198.05 205.991 197.71 206.573 197.22 207.01C196.756 207.423 151.039 248.398 133.693 286.911Z" fill="#000072"/>
<path d="M192.011 249.723C192.462 247.435 193.388 245.267 194.568 243.214C195.788 241.187 197.295 239.262 199.221 237.66C201.136 236.06 203.485 234.816 206.065 234.192C208.638 233.557 211.403 233.559 213.946 234.155C216.486 234.753 218.872 235.752 221.003 237.027C223.116 238.325 225.087 239.778 226.852 241.397C230.407 244.615 233.401 248.246 236.018 252.065C236.995 253.49 236.631 255.438 235.206 256.415C233.849 257.345 232.02 257.06 231.004 255.802L230.966 255.755C228.248 252.369 225.49 249.064 222.454 246.189C219.443 243.312 216.09 240.878 212.509 239.747C210.723 239.196 208.893 238.964 207.068 239.227C205.243 239.478 203.447 240.181 201.702 241.162C198.209 243.171 195.055 246.275 192.085 249.756C192.071 249.774 192.045 249.778 192.027 249.764C192.014 249.755 192.009 249.737 192.011 249.723Z" fill="#000072"/>
<path d="M323.705 264.748C322.941 262.777 322.138 260.912 321.158 259.22C320.219 257.519 319.098 256.003 317.834 254.86C316.571 253.711 315.173 252.989 313.66 252.674C312.142 252.354 310.481 252.525 308.798 252.934C307.112 253.34 305.411 254.013 303.745 254.871C303.327 255.082 302.905 255.274 302.49 255.498L301.253 256.212C300.421 256.66 299.625 257.222 298.806 257.729C295.561 259.841 292.439 262.268 289.283 264.703L289.24 264.737C287.871 265.792 285.906 265.539 284.85 264.171C283.85 262.875 284.034 261.036 285.217 259.949C288.322 257.113 291.665 254.489 295.343 252.223C299.039 250.01 303.038 247.994 307.728 247.26C310.045 246.886 312.591 246.934 315.026 247.725C317.456 248.501 319.653 250.073 321.059 252.029C321.763 253.008 322.327 254.041 322.772 255.091C323.196 256.151 323.512 257.228 323.722 258.305C324.124 260.465 324.182 262.639 323.786 264.743C323.781 264.765 323.76 264.78 323.737 264.776C323.722 264.773 323.71 264.761 323.705 264.748Z" fill="#000072"/>
<path d="M127.175 329.315C113.446 329.315 102.277 318.146 102.277 304.417C102.277 290.689 113.446 279.52 127.175 279.52C129.052 279.52 130.915 279.731 132.713 280.148C134.382 280.534 135.422 282.201 135.035 283.869C134.649 285.54 132.98 286.576 131.314 286.191C129.974 285.881 128.581 285.724 127.175 285.724C116.867 285.724 108.481 294.11 108.481 304.417C108.481 314.725 116.867 323.111 127.175 323.111C130.044 323.111 132.79 322.479 135.335 321.234C136.871 320.481 138.731 321.118 139.485 322.658C140.237 324.196 139.6 326.054 138.061 326.807C134.659 328.471 130.997 329.315 127.175 329.315Z" fill="#000072"/>
<path d="M377.622 365.661C373.334 365.661 369.087 364.545 365.239 362.358C363.97 361.637 362.764 360.81 361.652 359.9C360.327 358.814 360.132 356.86 361.217 355.535C362.302 354.21 364.255 354.013 365.583 355.1C366.423 355.788 367.34 356.416 368.304 356.965C372.706 359.464 377.788 360.108 382.625 358.775C387.32 357.479 391.215 354.457 393.592 350.263C396.008 346.012 396.592 341.061 395.239 336.32C393.881 331.561 390.736 327.578 386.383 325.105C385.853 324.801 385.316 324.53 384.733 324.271C383.168 323.575 382.463 321.742 383.158 320.177C383.854 318.611 385.684 317.907 387.252 318.602C388.03 318.947 388.752 319.312 389.458 319.718C395.222 322.992 399.397 328.286 401.205 334.617C403.019 340.974 402.231 347.617 398.988 353.325C395.794 358.958 390.569 363.019 384.275 364.755C382.079 365.361 379.845 365.661 377.622 365.661Z" fill="#000072"/>
<path d="M250.29 405.076C224.852 405.076 211.324 387.83 211.15 387.602C210.111 386.239 210.374 384.293 211.736 383.254C213.096 382.217 215.039 382.476 216.079 383.835C216.915 384.915 236.479 409.497 274.346 393.611C275.923 392.948 277.743 393.692 278.407 395.271C279.069 396.851 278.326 398.669 276.746 399.332C266.855 403.481 258.021 405.076 250.29 405.076Z" fill="#000072"/>
<path d="M164.828 539.348C164.613 539.348 164.397 539.326 164.18 539.279C163.074 539.043 136.931 533.273 124.314 513.807C123.675 512.821 123.648 511.559 124.244 510.546C124.402 510.279 140.027 483.715 144.54 472.679C145.19 471.093 147.006 470.335 148.586 470.982C150.171 471.631 150.931 473.442 150.282 475.028C146.229 484.938 134.176 505.835 130.587 511.991C140.172 525.236 157.534 531.038 163.445 532.69C190.593 490.783 200.057 452.887 203.203 428.33C206.073 405.927 204.347 390.305 203.655 385.528C200.263 384.099 191.193 380.99 184.315 385.152C183.748 390.696 181.514 411.104 177.367 431.595C170.544 465.319 162.164 482.528 151.752 484.207C150.05 484.483 148.468 483.331 148.195 481.639C147.923 479.948 149.073 478.356 150.763 478.083C154.141 477.538 162.903 471.798 171.287 430.365C176.056 406.796 178.261 383.348 178.282 383.114C178.364 382.242 178.81 381.444 179.51 380.918C191.284 372.095 207.223 380.301 207.895 380.655C208.728 381.092 209.316 381.883 209.497 382.805C209.638 383.53 212.932 400.89 209.397 428.806C206.15 454.445 196.231 494.191 167.418 537.952C166.837 538.834 165.856 539.348 164.828 539.348Z" fill="#000072"/>
<path d="M159.817 477.513C159.769 477.513 159.723 477.512 159.675 477.509L139.874 476.617C138.163 476.54 136.838 475.091 136.915 473.38C136.99 471.716 138.363 470.417 140.012 470.417C140.058 470.417 140.105 470.418 140.154 470.421L159.955 471.312C161.665 471.39 162.99 472.839 162.913 474.55C162.838 476.214 161.466 477.513 159.817 477.513Z" fill="#000072"/>
<path d="M147.42 392.873C145.984 392.873 144.696 391.871 144.388 390.411C144.034 388.734 145.106 387.089 146.782 386.735C149.524 386.156 173.818 381.194 182.197 385C183.756 385.709 184.446 387.548 183.737 389.107C183.029 390.666 181.193 391.355 179.63 390.648C174.706 388.409 157.652 390.784 148.063 392.805C147.848 392.851 147.632 392.873 147.42 392.873Z" fill="#000072"/>
<path d="M133.647 480.535C133.239 480.535 132.827 480.511 132.413 480.462C128.863 480.039 125.907 477.834 124.505 474.565L124.4 474.312L130.149 471.978L130.205 472.116C130.954 473.862 132.512 474.226 133.146 474.302C134.546 474.469 135.893 473.892 136.739 472.761C144.151 462.847 149.089 447.647 150.286 431.058C151.385 415.829 149.123 400.949 144.078 390.235C143.933 389.927 143.669 389.688 143.353 389.58C143.164 389.514 142.87 389.469 142.564 389.625C141.465 390.18 140.721 390.924 140.288 391.898L134.62 389.376C135.629 387.109 137.407 385.28 139.763 384.089C141.51 383.205 143.501 383.071 145.369 383.713C147.261 384.363 148.835 385.776 149.69 387.591C155.256 399.411 157.665 415.006 156.474 431.504C155.193 449.245 149.812 465.637 141.708 476.475C139.769 479.069 136.82 480.535 133.647 480.535Z" fill="#000072"/>
<path d="M138.972 398.519C137.386 396.746 136.284 394.922 135.245 393.105L135.055 392.763L134.92 392.566C134.836 392.442 134.744 392.325 134.654 392.209C134.47 391.979 134.247 391.789 134.023 391.617C133.561 391.285 133.043 391.094 132.556 391.012C131.658 390.865 130.421 391.259 129.593 392.032C128.702 392.806 127.923 394.287 127.3 396.035L127.257 396.155C126.68 397.773 124.9 398.617 123.282 398.04C121.867 397.535 121.044 396.109 121.247 394.677C121.425 393.406 121.739 392.098 122.302 390.795C122.853 389.494 123.664 388.179 124.823 387.053C125.948 385.906 127.461 385.047 128.999 384.578C129.39 384.453 129.762 384.366 130.172 384.286C130.598 384.219 131.024 384.164 131.457 384.155C132.317 384.126 133.185 384.202 134.012 384.41C135.679 384.794 137.169 385.671 138.345 386.807C138.929 387.381 139.452 388.011 139.874 388.702C140.08 389.05 140.288 389.398 140.439 389.771L140.664 390.317L140.801 390.734C141.49 392.968 141.863 395.302 141.548 397.745C141.444 398.552 140.705 399.121 139.898 399.017C139.534 398.97 139.218 398.794 138.99 398.54L138.972 398.519Z" fill="#000072"/>
<path d="M134 466.288C133.316 469.109 131.994 471.71 130.25 474.08C129.801 474.683 129.365 475.218 128.811 475.816C128.132 476.526 127.323 477.131 126.426 477.581C124.643 478.494 122.526 478.848 120.471 478.475C119.448 478.28 118.451 477.91 117.546 477.391C117.073 477.12 116.697 476.851 116.331 476.581C115.967 476.291 115.605 475.997 115.271 475.666C113.936 474.35 112.908 472.695 112.325 471C111.159 467.563 111.417 464.237 112.116 461.313C112.515 459.644 114.192 458.614 115.861 459.013C117.357 459.371 118.34 460.755 118.24 462.241L118.232 462.352C118.074 464.731 118.143 466.989 118.79 468.684C119.094 469.539 119.525 470.243 120.102 470.834C120.236 470.992 120.394 471.129 120.547 471.275C120.718 471.414 120.884 471.548 120.994 471.621C121.249 471.793 121.527 471.922 121.826 472.004C122.416 472.191 123.116 472.191 123.777 471.953C124.105 471.832 124.427 471.666 124.731 471.449C125.16 471.121 125.662 470.682 126.13 470.293C128.041 468.68 129.899 466.879 132.025 465.086L132.038 465.074C132.55 464.642 133.317 464.707 133.748 465.22C134.006 465.525 134.085 465.927 134 466.288Z" fill="#000072"/>
<path d="M121.488 465.765C121.468 465.765 121.449 465.765 121.429 465.765C120.828 465.753 106.558 465.364 91.87 455.185C78.7503 446.092 62.8941 427.186 60.8693 388.567C58.2618 388.101 54.7107 386.626 52.1361 382.313C48.138 375.617 49.5356 367.631 49.597 367.294C49.9051 365.608 51.527 364.494 53.2055 364.799C54.8909 365.107 56.0074 366.722 55.7004 368.407C55.6913 368.457 54.6795 374.472 57.4623 379.133C59.7045 382.888 63.0432 382.596 63.4156 382.55C64.2915 382.414 65.1635 382.662 65.847 383.228C66.5316 383.793 66.9164 384.629 66.9465 385.516C67.9775 415.835 77.4636 437.498 95.1393 449.902C105.432 457.125 115.692 458.957 119.746 459.414C135.013 431.175 128.396 405.46 126.365 399.118C104.169 393.804 95.6578 379.81 95.2974 379.202C94.932 378.585 94.792 377.861 94.9007 377.152C94.9157 377.05 96.4562 366.885 96.1552 360.468C96.0888 359.071 94.9118 357.977 93.4751 357.977H76.5384C76.5405 358.747 76.6855 359.62 77.1688 360.376C78.2985 362.145 81.029 362.774 83.121 362.991C84.3161 363.114 85.3331 363.917 85.7296 365.051C86.1261 366.186 85.8323 367.447 84.9745 368.289C84.8547 368.413 81.5624 371.843 82.8723 376.834C83.3072 378.491 82.3166 380.187 80.6595 380.622C79.0062 381.053 77.3067 380.066 76.8719 378.409C75.7683 374.205 76.604 370.671 77.7659 368.139C75.1421 367.196 73.1748 365.69 71.8912 363.636C69.1507 359.254 70.8149 354.355 71.0132 353.811C71.4603 352.587 72.6243 351.773 73.927 351.773H93.4753C98.2316 351.773 102.13 355.464 102.351 360.176C102.62 365.891 101.627 373.845 101.209 376.871C103.365 379.805 111.775 389.703 129.371 393.438C130.379 393.652 131.215 394.352 131.602 395.308C132.142 396.643 144.597 428.41 124.183 464.2C123.63 465.169 122.601 465.765 121.488 465.765Z" fill="#000072"/>
<path d="M59.1276 364.666C57.8812 364.667 56.6236 364.341 55.3963 363.68C49.5579 360.536 45.9705 353.459 45.8206 353.159C45.6052 352.729 45.4934 352.254 45.4934 351.773C45.4934 351.222 45.6736 346.778 51.2353 342.634C48.4102 336.261 46.9805 330.356 46.2666 326.337C45.6988 323.139 47.1296 319.981 49.9113 318.291C53.5529 316.076 58.2265 317.144 60.5452 320.724L71.5838 337.76C71.2605 333.344 71.3894 329.079 71.5898 326.001C71.916 320.949 74.7058 316.35 79.0512 313.697C80.9741 312.524 83.3382 312.396 85.377 313.355C87.4148 314.315 88.8223 316.219 89.1436 318.449L94.3166 354.433C94.5603 356.129 93.3834 357.701 91.6868 357.945C90.0014 358.19 88.4196 357.012 88.1751 355.316L83.0021 319.331C82.978 319.162 82.8883 319.041 82.7342 318.968C82.5782 318.895 82.4293 318.904 82.2831 318.992C79.6603 320.594 77.9769 323.363 77.7796 326.402C77.5431 330.058 77.409 335.497 78.1169 340.641C78.4823 343.299 76.7919 345.814 74.1844 346.49C71.9684 347.067 69.6355 346.161 68.3872 344.236L55.338 324.097C54.8577 323.355 53.8892 323.133 53.1331 323.592C52.5552 323.944 52.2582 324.595 52.3739 325.253C52.969 328.596 54.462 335.19 57.8238 342.091L65.8258 352.145C68.0439 354.931 67.8808 358.992 65.4463 361.592C63.5445 363.624 61.3558 364.666 59.1276 364.666ZM51.8615 351.265C52.8461 352.936 55.2353 356.547 58.3373 358.218C58.8064 358.47 59.5163 358.849 60.9178 357.353C61.2642 356.982 61.2873 356.405 60.9722 356.009L54.5346 347.921C52.8069 349.305 52.1273 350.548 51.8615 351.265Z" fill="#000072"/>
<path d="M51.5613 371.146C47.7968 371.146 43.0959 368.09 40.5634 362.301C39.7912 360.545 39.8133 358.537 40.6263 356.797C41.6957 354.502 43.7343 351.359 47.364 349.442C48.8803 348.643 50.7558 349.222 51.5553 350.737C52.3557 352.252 51.7757 354.129 50.2616 354.928C48.0456 356.098 46.7951 358.245 46.2484 359.42C46.1901 359.543 46.1901 359.684 46.2443 359.808C47.8834 363.553 50.5796 364.989 51.4837 364.958C51.6992 364.788 52.4421 364.106 53.6434 361.994C53.6434 362.005 53.6455 361.812 53.5659 361.439C53.2065 359.764 54.2727 358.114 55.9481 357.755C57.6254 357.399 59.2715 358.463 59.6309 360.137C60.0276 361.984 59.8202 363.688 59.0329 365.066C57.2448 368.208 55.5855 370.008 53.8117 370.725C53.1238 371.006 52.3636 371.146 51.5613 371.146Z" fill="#000072"/>
<path d="M168.404 500.918C167.333 500.918 166.4 495.18 165.916 486.701L170.332 488.274C167.646 491.833 163.681 494.875 159.224 497.265C155.887 499.061 152.567 500.398 149.476 501.422C146.369 502.441 143.548 503.151 140.982 503.587L142.454 500.919C143.64 506.247 143.985 509.71 143.202 509.965C142.418 510.22 140.66 507.216 138.487 502.209C138.073 501.256 138.51 500.148 139.463 499.734L139.531 499.706L139.959 499.542C144.368 497.847 150.456 495.5 156.524 492.26C160.588 490.088 164.07 487.639 166.476 485.128L166.712 484.881C167.641 483.913 169.179 483.88 170.148 484.808C170.679 485.317 170.928 486.02 170.893 486.701C170.407 495.18 169.475 500.918 168.404 500.918Z" fill="#000072"/>
<path d="M348.361 511.948C347.305 512.122 345.709 508.174 344.232 502.197C343.914 500.908 344.701 499.606 345.99 499.287C346.689 499.115 347.392 499.268 347.941 499.65L348.335 499.927C350.287 501.301 352.984 502.571 356.084 503.623C360.704 505.193 365.287 506.229 368.567 507.043L369.161 507.191C370.124 507.43 370.711 508.405 370.471 509.369C370.466 509.389 370.459 509.416 370.453 509.436C369.348 513.247 368.243 515.568 367.429 515.445C366.614 515.321 366.251 512.776 366.328 508.808L368.215 511.201C364.43 511.274 359.54 510.788 354.232 509.001C350.709 507.798 347.44 506.021 345.041 503.658L349.143 501.388C349.663 507.523 349.418 511.774 348.361 511.948Z" fill="#000072"/>
<path d="M262.881 465.239H239.617C238.168 465.239 236.913 464.234 236.598 462.82C233.478 448.843 232.659 434.567 234.16 420.344C223.645 417.334 213.926 412.213 205.909 405.439C204.605 404.336 204.441 402.385 205.544 401.08C206.645 399.776 208.596 399.611 209.903 400.714C217.863 407.442 227.679 412.398 238.288 415.047C239.807 415.427 240.803 416.881 240.607 418.435C238.896 432.015 239.405 445.667 242.12 459.053H259.078C256.592 446.188 256.044 433.08 257.448 420.033C257.611 418.513 258.862 417.34 260.39 417.275C272.71 416.745 284.603 413.308 294.785 407.336C296.256 406.473 298.153 406.965 299.017 408.439C299.881 409.913 299.388 411.808 297.914 412.673C287.61 418.717 275.711 422.367 263.345 423.296C262.237 436.086 263.093 448.915 265.9 461.472C266.104 462.388 265.881 463.347 265.294 464.08C264.707 464.813 263.819 465.239 262.881 465.239Z" fill="#000072"/>
<path d="M249.696 453.358C248.749 453.358 247.894 452.704 247.68 451.741C241.781 425.37 247.449 402.469 247.693 401.507C247.974 400.401 249.103 399.733 250.205 400.012C251.312 400.293 251.982 401.417 251.702 402.524C251.645 402.751 246.041 425.468 251.715 450.838C251.965 451.953 251.263 453.059 250.149 453.308C249.997 453.342 249.845 453.358 249.696 453.358Z" fill="#000072"/>
<path d="M416.584 568.817C415.994 568.817 415.396 568.75 414.8 568.609C411.837 567.913 409.581 565.633 408.911 562.661C408.418 560.48 407.27 556.759 404.599 551.419C400.359 542.94 400.493 531.197 400.764 526.377C387.856 519.849 375.939 511.284 365.312 500.897C364.088 499.7 364.065 497.736 365.263 496.511C366.46 495.286 368.423 495.263 369.65 496.461C380.316 506.887 392.334 515.392 405.371 521.738C406.543 522.309 407.233 523.554 407.098 524.851C407.083 524.997 405.624 539.596 410.148 548.644C413.096 554.541 414.393 558.778 414.962 561.295C415.106 561.934 415.588 562.422 416.22 562.571C417.136 562.787 418.025 562.223 418.254 561.29L418.282 561.181C418.938 558.53 419.837 554.898 419.362 551.025C419.153 549.325 420.363 547.777 422.063 547.569C423.759 547.359 425.31 548.57 425.52 550.27C426.134 555.279 425.032 559.728 424.303 562.672L424.277 562.78C423.386 566.38 420.133 568.817 416.584 568.817Z" fill="#000072"/>
<path d="M450.592 558.091C449.741 558.091 448.892 557.742 448.279 557.056C447.137 555.779 447.247 553.819 448.523 552.677C453.691 548.056 453.397 538.464 452.762 533.157C452.284 529.161 450.366 525.446 447.364 522.696L431.731 508.376C431.494 508.16 431.293 507.907 431.134 507.63L403.152 458.738C399.278 468.205 389.812 485.999 369.328 501.171C369.281 501.206 369.232 501.239 369.183 501.271C366.795 502.84 360.997 504.668 356.157 500.373C354.875 499.237 354.757 497.276 355.894 495.994C357.033 494.713 358.994 494.597 360.272 495.732C362.652 497.842 365.295 496.381 365.723 496.12C392.666 476.121 399.391 450.78 399.457 450.527C399.769 449.302 400.794 448.388 402.045 448.218C403.302 448.049 404.528 448.653 405.155 449.749L436.278 504.128L451.554 518.12C455.651 521.873 458.268 526.951 458.922 532.419C459.873 540.365 459.559 551.131 452.66 557.301C452.068 557.83 451.328 558.091 450.592 558.091Z" fill="#000072"/>
<path d="M402.464 454.392C402.17 454.392 401.871 454.351 401.575 454.262C399.934 453.772 399.001 452.045 399.49 450.404C400.876 445.739 401.447 439.655 400.087 438.033C399.11 436.87 398.022 436.671 396.847 437.436C395.79 438.186 394.4 438.184 393.331 437.458C392.26 436.73 391.776 435.398 392.083 434.14C392.198 433.613 392.675 430.761 389.972 429.574C386.221 427.928 383.232 429.412 383.105 429.476C381.991 430.045 380.605 429.91 379.649 429.101C379.478 428.955 362.295 414.436 346.383 404.281C340.399 400.462 333.55 398.427 326.576 398.396C324.19 398.376 321.997 398.519 320.025 398.792C318.337 399.028 316.762 397.844 316.526 396.147C316.292 394.45 317.476 392.884 319.173 392.648C321.435 392.334 323.929 392.201 326.604 392.192C334.752 392.229 342.746 394.6 349.72 399.051C363.323 407.733 377.781 419.489 382.259 423.197C384.474 422.552 388.23 422.035 392.466 423.894C396.02 425.454 397.589 428.21 398.138 430.807C400.351 430.788 402.792 431.605 404.839 434.046C409.06 439.078 406.076 450.034 405.435 452.179C405.033 453.523 403.8 454.392 402.464 454.392Z" fill="#000072"/>
<path d="M386.449 432.734C384.907 438.135 382.854 443.355 380.531 448.458C378.232 453.574 375.625 458.556 372.799 463.418C372.116 464.648 371.383 465.848 370.643 467.045C369.897 468.238 369.197 469.464 368.411 470.632C366.848 472.975 365.314 475.344 363.634 477.613C360.4 482.247 356.756 486.582 353.054 490.875C351.934 492.173 349.975 492.318 348.677 491.198C347.378 490.078 347.233 488.118 348.353 486.82C348.389 486.779 348.426 486.738 348.463 486.699L348.533 486.627C352.319 482.704 356.028 478.682 359.477 474.423C362.98 470.209 366.236 465.781 369.364 461.255C372.507 456.735 375.358 452.013 378.116 447.229C380.83 442.423 383.442 437.527 385.735 432.488L385.741 432.474C385.828 432.284 386.052 432.2 386.242 432.286C386.415 432.365 386.499 432.557 386.449 432.734Z" fill="#000072"/>
<path d="M342.934 455.772C342.557 459.558 342.903 463.293 343.686 466.878C344.472 470.468 345.687 473.924 347.14 477.264C347.83 478.85 347.103 480.695 345.516 481.385C343.93 482.075 342.084 481.348 341.394 479.762C341.28 479.499 341.205 479.229 341.166 478.959L341.161 478.919C340.617 475.001 340.359 471.033 340.584 467.109C340.806 463.191 341.532 459.312 342.916 455.767C342.917 455.762 342.923 455.76 342.928 455.762C342.932 455.763 342.935 455.768 342.934 455.772Z" fill="#000072"/>
<g opacity="0.3">
<path d="M167.416 471.71C173.842 458.748 177.777 421.223 179.646 398.375C176.167 425.121 167.247 478.566 151.257 481.145L147.411 473.852C144.729 480.41 138.329 492.121 133.388 500.868C135.103 501.193 137.72 501.438 141.599 501.256C150.258 500.851 164.168 490.741 164.168 490.741L151.989 492.647C151.989 492.647 157.935 490.838 167.416 471.71Z" fill="#000072"/>
</g>
<g opacity="0.3">
<path d="M172.34 386.658L165.953 427.068C164.958 433.366 159.146 437.739 152.818 436.951L153.665 414.585C153.665 414.585 144.709 454.339 141.262 452.324C137.816 450.308 140.013 439.011 140.013 439.011C140.013 439.011 133.896 453.228 128.792 446.191C127.086 451.512 124.734 457.039 121.527 462.663C121.527 462.663 119.086 462.611 115.219 461.826V461.836C114.01 468.929 116.377 472.496 118.952 474.274C121.413 475.991 124.721 475.649 126.893 473.561C127.038 473.426 127.182 473.281 127.317 473.147C127.348 473.209 127.368 473.281 127.399 473.344C129.478 478.203 136.095 478.854 139.269 474.615C139.538 474.253 139.796 473.891 140.055 473.519H140.065L147.458 473.85L159.845 474.408H159.855C172.707 455.611 179.252 403.376 180.958 387.826C179.007 386.942 175.896 386.631 172.34 386.658Z" fill="#000072"/>
</g>
<g opacity="0.3">
<path d="M91.9812 355.581L96.8078 355.912C95.8664 355.264 94.7348 354.874 93.517 354.874H91.9482L91.9812 355.581Z" fill="#000072"/>
</g>
<g opacity="0.3">
<path d="M447.098 182.464C447.098 182.464 436.242 184.532 429.345 167.813C427.887 164.28 426.198 161.331 424.442 158.867C411.926 166.498 376.233 183.183 326.468 163.853C326.468 163.853 351.283 164.628 370.411 153.772C370.411 153.772 333.706 159.459 286.403 131.542C239.1 103.626 212.734 113.965 212.734 113.965C212.734 113.965 237.983 89.9259 280.028 92.2522C280.028 92.2522 232.515 78.8427 190.072 96.0029C183.317 101.034 178.183 107.352 174.478 114.999C174.478 114.999 144.825 119.371 129.94 153.303C129.887 155.857 130.1 160.894 132.345 163.977C105.545 252.948 130.535 286.375 130.535 286.375C148.112 246.568 195.157 204.694 195.157 204.694L202.912 168.764C202.912 168.764 273.416 168.63 345.637 189.474C345.637 189.474 345.42 210.556 341.284 223.305C341.284 223.305 381.267 275.002 377.131 334.629C377.131 334.629 423.007 272.551 421.26 221.216C424.413 223.109 427.515 225.062 430.555 227.099C430.555 227.099 432.447 209.605 423.4 196.939C423.4 196.939 442.787 191.594 447.098 182.464Z" fill="#000072"/>
</g>
<path d="M316.292 286.816C313.311 287.852 310.317 289.079 307.511 290.434C304.704 291.834 302.033 293.385 299.552 295.134C298.949 295.595 298.296 295.987 297.722 296.475L295.976 297.9C295.4 298.379 294.884 298.92 294.333 299.423L293.514 300.182L292.768 301.009C290.665 303.121 289.066 305.624 287.505 308.147L282.796 303.471C283.616 303.064 284.215 302.818 284.913 302.559C285.587 302.299 286.263 302.084 286.938 301.866C288.291 301.443 289.665 301.131 291.044 300.868C293.804 300.352 296.623 300.183 299.413 300.35C302.197 300.551 304.969 300.98 307.581 301.903C310.224 302.694 312.663 304.02 314.923 305.464C315.476 305.817 315.638 306.552 315.285 307.105C315.008 307.538 314.499 307.731 314.025 307.626L313.89 307.595C312.645 307.316 311.473 306.91 310.255 306.681C309.036 306.457 307.849 306.192 306.632 306.087C305.434 305.9 304.217 305.909 303.026 305.821C302.427 305.801 301.825 305.841 301.229 305.846C300.633 305.842 300.037 305.889 299.443 305.958C297.072 306.124 294.726 306.54 292.45 307.165C291.312 307.475 290.194 307.846 289.099 308.246C288.557 308.458 288.013 308.665 287.495 308.902C286.994 309.12 286.415 309.405 286.082 309.58L285.943 309.653C284.266 310.534 282.191 309.889 281.31 308.211C280.747 307.139 280.819 305.885 281.374 304.904L282.721 302.564L283.404 301.397C283.643 301.015 283.932 300.667 284.193 300.3L285.811 298.131C286.389 297.442 287.026 296.803 287.634 296.139L288.558 295.155L289.567 294.266C290.251 293.687 290.908 293.072 291.616 292.53C293.066 291.487 294.503 290.432 296.067 289.599C299.143 287.857 302.405 286.511 305.768 285.658C309.135 284.788 312.522 284.298 316.05 284.461C316.709 284.491 317.219 285.05 317.189 285.709C317.166 286.211 316.837 286.626 316.391 286.782L316.292 286.816Z" fill="#000072"/>
<path d="M211.774 263.701C202.686 262.837 195.439 274.46 195.588 289.661C195.738 304.863 203.226 317.887 212.315 318.751C221.403 319.616 228.65 307.993 228.501 292.791C228.352 277.589 220.863 264.565 211.774 263.701Z" fill="#000072"/>
<path d="M211.729 270.071C208.992 271.525 208.234 276.717 210.037 281.668C211.84 286.619 215.519 289.454 218.256 288C220.993 286.546 221.75 281.354 219.947 276.403C218.145 271.452 214.465 268.617 211.729 270.071Z" fill="white"/>
<path d="M211.808 270.22C210.97 270.696 210.366 271.511 209.981 272.404C209.594 273.304 209.398 274.285 209.332 275.27C209.232 277.244 209.56 279.235 210.232 281.086C210.887 282.94 211.891 284.678 213.214 286.064C214.508 287.418 216.445 288.392 218.027 287.568C218.788 287.154 219.374 286.41 219.757 285.557C220.142 284.701 220.351 283.748 220.453 282.784C220.636 280.85 220.398 278.851 219.804 276.968C219.224 275.086 218.309 273.267 216.96 271.825C216.283 271.114 215.489 270.5 214.587 270.146C213.693 269.767 212.665 269.793 211.808 270.22ZM211.649 269.921C212.589 269.428 213.752 269.391 214.721 269.787C215.704 270.157 216.548 270.796 217.267 271.528C218.691 273.014 219.733 274.833 220.4 276.77C221.089 278.703 221.423 280.774 221.306 282.856C221.242 283.896 221.042 284.945 220.611 285.934C220.186 286.913 219.499 287.862 218.485 288.431C217.461 288.971 216.175 289.012 215.154 288.575C214.116 288.167 213.255 287.488 212.529 286.725C211.079 285.183 210.126 283.282 209.533 281.317C208.922 279.353 208.679 277.274 208.878 275.231C208.979 274.212 209.191 273.191 209.621 272.246C210.045 271.308 210.712 270.43 211.649 269.921Z" fill="#000072"/>
<path d="M205.095 302.907C203.846 304.104 203.943 306.955 205.312 309.275C206.681 311.596 208.803 312.506 210.052 311.309C211.3 310.113 211.203 307.261 209.834 304.941C208.466 302.621 206.343 301.711 205.095 302.907Z" fill="#B199C5"/>
<path d="M205.212 303.029C204.514 303.739 204.36 304.849 204.462 305.848C204.572 306.864 204.927 307.845 205.428 308.721C205.938 309.589 206.607 310.37 207.402 310.878C208.194 311.397 209.126 311.516 209.707 310.95C210.301 310.376 210.512 309.356 210.485 308.382C210.462 307.392 210.195 306.391 209.767 305.471C209.326 304.562 208.727 303.69 207.899 303.107C207.487 302.823 207.019 302.606 206.533 302.569C206.046 302.522 205.569 302.702 205.212 303.029ZM204.978 302.785C205.388 302.39 205.983 302.158 206.555 302.208C207.126 302.25 207.663 302.461 208.129 302.759C209.062 303.362 209.782 304.23 210.324 305.182C210.857 306.142 211.229 307.204 211.338 308.327C211.437 309.424 211.321 310.704 210.395 311.669C209.927 312.123 209.22 312.399 208.57 312.332C207.921 312.277 207.345 312.023 206.863 311.689C205.895 311.01 205.247 310.053 204.774 309.059C204.313 308.055 204.03 306.974 204.008 305.876C203.984 304.805 204.157 303.614 204.978 302.785Z" fill="#000072"/>
<path d="M233.064 320.6C234.828 327.545 235.989 333.69 236.756 339.32C237.512 344.973 240.404 350.219 245.026 353.549C248.126 355.784 251.664 357.044 255.432 357.044C267.482 357.044 277.242 344.096 277.242 328.114C277.242 326.745 277.165 325.398 277.022 324.072C252.322 329.637 238.191 323.525 233.087 320.479C233.075 320.523 233.075 320.556 233.064 320.6Z" fill="#000072"/>
<path d="M255.976 336.6C262.881 336.6 269.153 339.295 273.811 343.685C269.936 351.717 263.157 357.044 255.432 357.044C251.664 357.044 248.126 355.784 245.026 353.55C241.694 351.149 239.278 347.746 237.896 343.919C242.577 339.391 248.949 336.6 255.976 336.6Z" fill="#F4457F"/>
<path d="M255.432 360.331C251.102 360.331 246.839 358.908 243.105 356.216C237.898 352.465 234.396 346.465 233.499 339.756C232.69 333.814 231.505 327.81 229.88 321.41C229.759 320.938 229.746 320.446 229.839 319.969C229.857 319.869 229.881 319.755 229.901 319.675C230.155 318.668 230.87 317.841 231.829 317.444C232.787 317.047 233.879 317.126 234.77 317.658C239.368 320.401 252.619 326.204 276.301 320.867C277.214 320.66 278.173 320.855 278.936 321.401C279.698 321.946 280.19 322.791 280.29 323.723C280.448 325.199 280.528 326.676 280.528 328.115C280.528 345.878 269.27 360.331 255.432 360.331ZM237.781 326.287C238.712 330.574 239.447 334.735 240.012 338.877C240.673 343.81 243.2 348.184 246.947 350.884C249.594 352.791 252.448 353.758 255.432 353.758C265.647 353.758 273.956 342.254 273.956 328.115C273.956 328.097 273.956 328.078 273.956 328.06C256.959 331.234 245.019 328.94 237.781 326.287Z" fill="#000072"/>
</g>
<defs>
<clipPath id="clip0_224_3">
<rect width="500" height="500" rx="250" fill="white"/>
</clipPath>
</defs>
</svg>
