<svg width="1080" height="1080" viewBox="0 0 1080 1080" fill="none" xmlns="http://www.w3.org/2000/svg">
<g clip-path="url(#clip0_2_2)">
<rect width="1080" height="1080" rx="540" fill="#D3C6FF"/>
<path d="M901.381 1149.51C902.547 1167.05 891.246 1174.78 891.246 1174.78C891.321 1175.79 891.377 1176.75 891.415 1177.64C891.415 1177.77 891.434 1177.92 891.434 1178.05C891.434 1182.07 888.556 1185.55 884.551 1186.32C880.941 1187 877.293 1185.27 875.544 1182.02C866.913 1166.02 857.041 1151.25 850.196 1141.61C851.193 1149.79 849.294 1157.27 848.052 1162.31C847.075 1166.32 843.52 1169.01 839.572 1169.01C838.914 1169.01 838.237 1168.93 837.579 1168.78C834.325 1168.01 831.825 1165.47 831.091 1162.2C830.094 1157.82 827.838 1150.6 822.78 1140.48C813.697 1122.3 816.668 1094.09 816.668 1094.09C788.124 1080.19 766.255 1062.76 750.234 1047.08C801.757 1008.93 813.848 960.901 813.848 960.901L870.899 1060.56L899.331 1086.61C905.743 1092.49 909.899 1100.46 910.933 1109.11C912.457 1121.83 912.231 1139.8 901.381 1149.51Z" fill="#FDC7A3"/>
<path d="M890.829 1101.04C897.241 1106.92 901.397 1114.9 902.431 1123.55C903.324 1131 903.596 1140.25 901.499 1148.6C901.691 1148.66 901.873 1148.75 902.063 1148.82C912.212 1138.98 912.423 1121.54 910.934 1109.11C909.899 1100.46 905.744 1092.49 899.332 1086.61L870.9 1060.56L813.848 960.901C813.848 960.901 812.103 967.812 807.137 978.463L862.397 1074.99L890.829 1101.04Z" fill="white"/>
<g opacity="0.3">
<path d="M850.396 1149.5C849.399 1145.11 843.352 1142.08 838.294 1131.96C829.211 1113.78 832.182 1085.57 832.182 1085.57C831.897 1085.43 831.612 1085.29 831.328 1085.15C797.721 1068.63 786.788 1025.81 808.149 995.053C813.65 987.132 817.844 979.726 820.992 973.38L813.849 960.901C813.849 960.901 801.758 1008.93 750.234 1047.08C766.255 1062.76 788.125 1080.19 816.669 1094.09C816.669 1094.09 813.698 1122.3 822.78 1140.48C827.839 1150.6 830.095 1157.82 831.092 1162.2C831.825 1165.47 834.326 1168.01 837.579 1168.78C838.237 1168.93 838.914 1169.01 839.572 1169.01C843.521 1169.01 847.076 1166.32 848.053 1162.31C848.367 1161.04 848.722 1159.6 849.063 1158.05C847.861 1156.88 850.779 1151.2 850.396 1149.5Z" fill="#000072"/>
</g>
<path d="M738.896 1340.24C736.714 1311.56 729.23 1224.35 714.187 1158.57C710.013 1140.39 705.274 1123.82 699.915 1110.6C697.828 1111.45 695.195 1112.03 691.942 1112.27C690.917 1112.35 689.588 1112.45 688.009 1112.56C695.609 1111.35 699.915 1110.6 699.915 1110.6L691.239 1082.6L372.444 1077.58L372.518 1112.86C372.518 1113.59 372.668 1131.53 373.552 1158.57C375.075 1204.85 378.742 1277.84 387.599 1337.13C388.106 1340.57 388.652 1343.98 389.197 1347.32C389.197 1347.32 435.586 1371.77 517.064 1354.23L519.133 1343.62L542.77 1222.45V1222.43C546.925 1224.31 551.927 1226.13 557.813 1227.6L601.984 1364.32L604.184 1371.15C604.184 1371.15 699.464 1377.41 739.573 1349.83C739.573 1349.83 739.347 1346.37 738.896 1340.24Z" fill="#79698C"/>
<g opacity="0.3">
<path d="M397.439 1077.98L413.873 1355.56C397.721 1351.82 389.203 1347.32 389.203 1347.32C388.657 1343.98 388.112 1340.57 387.604 1337.13C378.747 1277.84 375.081 1204.85 373.557 1158.57C372.674 1131.53 372.523 1113.59 372.523 1112.86L372.448 1077.58L397.439 1077.98Z" fill="#000072"/>
</g>
<path d="M704.823 1088.19L663.027 856.464L444.906 837.434C444.906 837.434 381.137 989.521 396.098 1092.27C403.337 1095.67 411.724 1098.64 420.975 1101.2C451.814 1109.74 492.299 1113.8 532.634 1115.43C542.45 1115.83 552.228 1116.07 561.874 1116.2C599.539 1116.73 634.928 1115.51 659.674 1114.27C675.526 1113.46 687.034 1112.65 691.942 1112.27C695.195 1112.03 697.827 1111.45 699.915 1110.6C713.491 1105.2 705.481 1089.41 704.823 1088.19Z" fill="#22B5FF"/>
<g opacity="0.3">
<path d="M704.823 1088.19L663.027 856.464L630.841 853.655C632.539 860.992 635.983 875.86 642.976 906.056C656.765 965.602 588.444 1029.03 588.444 1029.03C642.349 1035.42 663.153 1009.65 663.153 1009.65C663.153 1009.65 662.406 1085.32 539.121 1082.6C415.837 1079.87 392.255 993.181 423.595 1009.65C454.935 1026.11 485.648 1018.88 485.648 1018.88C400.403 954.32 470.33 846.182 470.33 846.182C470.33 846.182 482.514 890.072 552.661 891.326C587.775 891.953 613.759 865.665 624.171 853.073L444.906 837.433C444.906 837.433 381.136 989.521 396.097 1092.27C403.337 1095.67 411.724 1098.64 420.975 1101.2C451.814 1109.73 492.299 1113.8 532.634 1115.43C542.449 1115.83 552.227 1116.07 561.874 1116.2C599.538 1116.73 634.928 1115.51 659.674 1114.27C675.525 1113.46 687.034 1112.65 691.942 1112.27C695.195 1112.03 697.827 1111.45 699.914 1110.6C713.491 1105.2 705.481 1089.41 704.823 1088.19Z" fill="#000072"/>
</g>
<path d="M597.741 851.735C599.399 837.024 572.021 821.861 536.59 817.867C501.159 813.874 471.092 822.562 469.434 837.273C467.776 851.984 495.154 867.147 530.585 871.141C566.017 875.134 596.083 866.446 597.741 851.735Z" fill="#FDC7A3"/>
<path d="M719.885 1029.03C715.221 1022.63 710.934 1016.17 707.023 1009.64C667.797 944.56 663.585 875.644 663.153 859.83C667.384 859.247 671.728 859.04 675.864 859.059C689.704 859.134 703.243 863.214 714.902 870.661C744.518 889.559 776.015 916.242 776.015 916.242C776.015 916.242 783.762 912.011 793.408 916.242C803.036 920.472 800.46 931.04 800.46 931.04C800.46 931.04 807.737 925.888 813.848 933.165C819.96 940.442 813.848 960.901 813.848 960.901C813.848 960.901 801.757 1008.93 750.234 1047.08C750.234 1047.08 741.284 1052.97 733.386 1045.95C728.553 1040.42 724.059 1034.76 719.885 1029.03Z" fill="#22B5FF"/>
<g opacity="0.6">
<path d="M813.848 933.165C807.737 925.888 800.46 931.04 800.46 931.04C800.46 931.04 803.036 920.472 793.408 916.241C783.762 912.011 776.015 916.241 776.015 916.241C776.015 916.241 744.518 889.559 714.902 870.661C703.243 863.214 689.704 859.133 675.864 859.058C671.727 859.04 667.384 859.246 663.153 859.829C663.215 862.096 663.36 865.487 663.67 869.769C664.923 869.73 666.169 869.709 667.394 869.714C681.234 869.789 694.773 873.87 706.431 881.316C736.048 900.214 781.03 934.564 781.03 934.564L784.938 926.897C794.566 931.128 791.99 941.696 791.99 941.696C791.99 941.696 799.267 936.543 805.379 943.82C811.49 951.098 805.379 971.557 805.379 971.557C805.379 971.557 800.021 992.771 781.317 1018.2C806.929 988.331 813.849 960.901 813.849 960.901C813.849 960.901 819.96 940.443 813.848 933.165Z" fill="white"/>
</g>
<g opacity="0.3">
<path d="M757.327 1028.55C752.495 1023.02 748 1017.36 743.826 1011.62C739.163 1005.23 734.875 998.762 730.964 992.237C700.466 941.636 691.138 888.729 688.292 860.252C684.203 859.514 680.052 859.081 675.864 859.058C671.727 859.04 667.384 859.246 663.153 859.829C663.585 875.644 667.798 944.56 707.023 1009.64C710.934 1016.17 715.221 1022.63 719.885 1029.03C724.059 1034.76 728.553 1040.42 733.386 1045.95C741.284 1052.97 750.234 1047.08 750.234 1047.08C756.951 1042.11 762.982 1036.96 768.419 1031.78C765.234 1032.31 761.16 1031.95 757.327 1028.55Z" fill="#000072"/>
</g>
<path d="M733.386 1045.95C740.626 1054.28 748.618 1062.33 757.436 1069.96C758.377 1102.87 733.931 1115.41 733.931 1115.41C723.307 1107.37 713.642 1098.19 704.823 1088.19C704.804 1088.13 704.785 1088.11 704.785 1088.11C650.348 1026.36 628.742 933.73 620.863 885.817C617.685 866.637 616.726 854.621 616.726 854.621L663.097 856.464C663.097 856.464 663.078 857.63 663.153 859.83C663.585 875.644 667.798 944.561 707.023 1009.64C710.934 1016.17 715.221 1022.64 719.884 1029.03C724.059 1034.76 728.553 1040.42 733.386 1045.95Z" fill="#F92828"/>
<path d="M747.08 1062.62C750.362 1066.4 753.821 1070.11 757.419 1073.75C757.458 1072.52 757.474 1071.26 757.436 1069.96C749.496 1063.09 742.26 1055.87 735.606 1048.42C739.203 1053.22 743.015 1057.97 747.08 1062.62Z" fill="#000072"/>
<g opacity="0.3">
<path d="M634.557 902.485C634.525 902.293 634.493 902.102 634.462 901.912C631.855 886.072 644.475 871.847 660.515 872.485L663.892 872.619C663.424 866.962 663.228 862.578 663.153 859.83C663.078 857.63 663.097 856.464 663.097 856.464L616.726 854.621C616.726 854.621 617.685 866.637 620.863 885.817C628.742 933.73 650.348 1026.36 704.785 1088.11C704.785 1088.11 704.804 1088.13 704.823 1088.19C705.402 1088.84 706.016 1089.47 706.602 1090.12C660.846 1029.13 641.834 946.741 634.557 902.485Z" fill="#000072"/>
</g>
<g opacity="0.6">
<path d="M733.386 1045.95C728.553 1040.42 724.059 1034.76 719.885 1029.03C715.221 1022.63 710.934 1016.17 707.023 1009.64C667.798 944.561 663.585 875.644 663.153 859.83C663.078 857.63 663.097 856.464 663.097 856.464L656.2 868.464C655.148 870.294 654.618 872.377 654.689 874.488C654.69 874.509 654.69 874.531 654.691 874.553C655.124 890.367 659.336 959.284 698.561 1024.36C702.472 1030.89 706.76 1037.36 711.423 1043.75C713.635 1046.79 715.943 1049.81 718.338 1052.8C727.572 1056.68 738.055 1058.09 746.894 1060.22C742.136 1055.57 737.616 1050.82 733.386 1045.95Z" fill="white"/>
</g>
<path d="M372.537 1002.95H372.555C395.929 968.761 407.832 873.763 410.934 845.482C411.498 840.367 411.762 837.434 411.762 837.434C430.566 823.349 457.38 837.434 457.38 837.434C457.38 837.434 459.919 850.465 460.013 873.218C460.239 917.501 451.213 998.659 396.098 1092.27C391.604 1099.9 386.809 1107.63 381.675 1115.41C381.675 1115.41 378.121 1114.66 372.518 1112.86C372.518 1112.84 372.518 1112.84 372.518 1112.84C357.738 1108.1 328.629 1096.06 312.721 1071.52C312.721 1071.52 341.548 1022.62 350.01 1001.93L372.537 1002.95Z" fill="#F92828"/>
<g opacity="0.3">
<path d="M457.381 837.434C457.381 837.434 433.945 825.129 415.528 835.036C431.122 835.474 445.054 848.472 445.432 865.617C446.181 899.566 440.858 965.478 400.812 1048.66C385.342 1080.79 343.181 1091.59 313.929 1073.24C330.059 1096.61 358.094 1108.21 372.518 1112.84C372.518 1112.84 372.518 1112.84 372.518 1112.86C378.122 1114.66 381.676 1115.41 381.676 1115.41C386.809 1107.63 391.604 1099.9 396.098 1092.27C451.213 998.66 460.239 917.502 460.013 873.219C459.919 850.465 457.381 837.434 457.381 837.434Z" fill="#000072"/>
</g>
<path d="M350.028 849.017L349.803 849.13C349.558 848.566 349.314 848.002 349.051 847.456C347.189 843.545 342.507 841.759 338.633 843.714C336.057 845.03 333.424 847.156 331.902 850.596L331.807 850.634C329.269 846.553 324.493 844.241 319.698 845.237C315.034 846.196 310.07 849.619 307.926 859.171C310.503 859.923 313.191 860.6 316.012 861.202C316.012 861.202 339.047 918.121 302.849 981.585C302.849 981.585 298.411 981.491 291.379 980.062V980.08C289.179 992.98 293.485 999.468 298.167 1002.7C302.642 1005.82 308.659 1005.2 312.609 1001.4C312.872 1001.16 313.135 1000.9 313.38 1000.65C313.436 1000.76 313.474 1000.9 313.53 1001.01C317.31 1009.85 329.344 1011.03 335.117 1003.32C335.606 1002.66 336.076 1002.01 336.546 1001.33H336.565L350.01 1001.93L372.537 1002.95H372.556C395.929 968.76 407.832 873.762 410.935 845.481C396.925 839.126 350.028 849.017 350.028 849.017Z" fill="#22B5FF"/>
<path d="M316.012 861.202C313.191 860.601 310.502 859.924 307.926 859.171C273.232 849.13 260.069 826.923 260.069 826.923C260.069 826.923 263.003 807.855 262.42 795.463C262.157 789.898 257.474 785.554 251.908 785.554H247.847L238.445 720.115C237.787 715.49 232.596 713.045 228.61 715.49C225.451 717.427 222.856 720.059 220.976 723.124C219.114 726.189 217.986 729.725 217.741 733.41C217.252 740.894 217.083 750.898 218.381 760.432C218.663 762.444 217.365 764.343 215.41 764.851C215.071 764.945 214.733 764.982 214.413 764.982C213.059 764.982 211.762 764.305 211.009 763.14L187.279 726.509C184.759 722.617 179.588 721.432 175.601 723.839C173.006 725.418 171.464 728.22 171.464 731.191C171.464 731.68 171.502 732.188 171.596 732.677C172.856 739.71 175.789 752.214 182.277 765.34C170.28 772.147 170.28 779.913 170.28 779.913C170.28 779.913 170.411 780.177 170.675 780.665C165.297 783.504 162.326 788.375 160.897 791.44C160.107 793.132 160.088 795.088 160.84 796.799C165.128 806.596 173.42 810.883 177.651 809.154C177.651 809.154 175.301 822.072 181.562 832.564C187.843 843.057 198.016 841.477 198.016 841.477C201.72 950.578 264.939 974.742 291.378 980.063C298.41 981.492 302.848 981.586 302.848 981.586C339.047 918.122 316.012 861.202 316.012 861.202Z" fill="#FDC7A3"/>
<g opacity="0.3">
<path d="M316.012 861.202C313.191 860.601 310.502 859.924 307.926 859.171C273.232 849.13 260.069 826.923 260.069 826.923C260.069 826.923 263.003 807.856 262.42 795.465C262.158 789.894 257.486 785.554 251.908 785.554H247.847L238.445 720.115C237.787 715.49 232.596 713.045 228.61 715.49C226.117 717.019 223.992 718.992 222.276 721.258C222.661 721.939 222.934 722.706 223.054 723.547L232.456 788.985H236.518C242.095 788.985 246.767 793.326 247.029 798.897C247.612 811.288 244.679 830.354 244.679 830.354C244.679 830.354 250.808 839.275 261.877 848.055C300.451 878.654 313.885 931.798 292.214 976.009C291.591 977.28 290.945 978.555 290.276 979.833C290.649 979.912 291.019 979.99 291.379 980.062C298.411 981.492 302.849 981.586 302.849 981.586C339.047 918.122 316.012 861.202 316.012 861.202Z" fill="#000072"/>
</g>
<path d="M171.888 729.941L195.619 766.571C196.371 767.737 197.669 768.414 199.023 768.414C199.342 768.414 199.681 768.377 200.019 768.282C201.975 767.775 203.272 765.875 202.99 763.864C202.325 758.974 202.049 753.966 202 749.232L187.279 726.51C184.76 722.617 179.589 721.432 175.602 723.839C173.474 725.135 172.071 727.257 171.629 729.616C171.711 729.729 171.811 729.822 171.888 729.941Z" fill="#FDC7A3"/>
<path d="M733.862 1121.06C732.654 1121.06 731.454 1120.67 730.453 1119.91C676.297 1078.83 646.708 1008.9 631.42 957.474C614.952 902.067 611.07 855.536 611.033 855.073C610.903 853.465 611.469 851.878 612.588 850.713C613.705 849.55 615.268 848.92 616.88 848.984L663.249 850.827C666.294 850.948 668.693 853.467 668.667 856.514C668.656 857.796 668.664 985.613 761.061 1065.7C762.255 1066.74 762.959 1068.22 763.005 1069.8C764.036 1105.85 737.565 1119.85 736.437 1120.43C735.625 1120.85 734.741 1121.06 733.862 1121.06ZM622.941 860.516C626.678 892.861 648.129 1040.19 734.188 1108.53C739.802 1104.44 751.479 1093.45 751.746 1072.54C702.633 1029.05 679.6 973.123 668.914 933.625C659.854 900.138 657.904 873.058 657.492 861.889L622.941 860.516Z" fill="#000072"/>
<path d="M787.322 726.509C786.174 725.851 785.009 725.268 783.824 724.742L765.202 754.757C766.931 750.951 767.709 748.736 767.709 748.736L831.84 533.256C579.438 369.179 365.524 436.87 365.524 436.87L320.496 654.86C318.101 654.4 315.646 654.152 313.121 654.152C291.233 654.152 273.482 671.884 273.482 693.79C273.482 715.678 291.233 733.429 313.121 733.429C319.324 733.429 325.208 732.001 330.434 729.445C347.094 777.782 392.417 829.805 526.396 855.279C647.703 878.357 712.211 829.247 743.17 790.269L743.132 790.33C744.9 791.778 746.817 793.094 748.867 794.26C767.897 805.072 791.947 798.66 802.553 779.95C813.196 761.222 806.351 737.322 787.322 726.509Z" fill="#FDC7A3"/>
<g opacity="0.3">
<path d="M798.803 755.187C788.197 773.897 765.005 780.782 745.976 769.969C743.926 768.804 667.588 857.924 522.647 830.516C388.642 805.177 343.344 753.019 326.684 704.682C321.458 707.237 315.575 708.666 309.371 708.666C291.21 708.666 275.933 696.43 271.245 679.764C270.284 683.185 269.733 686.779 269.733 690.508C269.733 712.396 287.484 730.147 309.371 730.147C315.574 730.147 321.458 728.719 326.684 726.163C343.344 774.5 388.667 826.523 522.647 851.997C643.953 875.074 708.462 825.964 739.42 786.987L739.382 787.048C741.15 788.496 743.068 789.812 745.118 790.978C764.147 801.79 788.198 795.378 798.803 776.668C804.146 767.266 805.076 756.563 802.276 746.865C801.453 749.708 800.328 752.503 798.803 755.187Z" fill="#000072"/>
</g>
<path d="M894.956 471.997C894.956 471.997 875.212 475.758 862.669 445.351C850.127 414.964 828.202 408.063 828.202 408.063H858.909C829.292 394.111 829.443 360.113 774.291 362.933C774.291 362.933 792.38 349.056 811.899 352.121C811.899 352.121 768.33 318.424 701.575 336.288C701.575 336.288 724.46 320.624 723.52 288.657C723.52 288.657 681.211 303.7 660.207 294.618C660.207 294.618 665.848 278.315 650.503 264.212C650.503 264.212 653.475 292.418 562.275 288.187C471.075 283.956 421.245 303.7 399.15 349.3C399.15 349.3 325.814 330.496 287.266 429.687L318.293 416.055C318.293 416.055 316.882 430.628 322.524 438.375C273.784 600.184 319.233 660.977 319.233 660.977C351.2 588.582 436.758 512.425 436.758 512.425L450.861 447.081C450.861 447.081 579.086 446.837 710.432 484.746C710.432 484.746 710.037 523.087 702.516 546.273C702.516 546.273 775.231 640.293 767.709 748.735C767.709 748.735 851.143 635.836 847.965 542.475C853.7 545.916 859.341 549.469 864.87 553.173C864.87 553.173 868.311 521.357 851.857 498.322C851.857 498.322 887.115 488.601 894.956 471.997Z" fill="#716C82"/>
<path d="M894.956 471.997C894.956 471.997 875.212 475.758 862.669 445.351C850.127 414.964 828.202 408.063 828.202 408.063H858.909C829.292 394.111 829.443 360.113 774.291 362.933C774.291 362.933 792.38 349.056 811.899 352.121C811.899 352.121 768.33 318.424 701.575 336.288C701.575 336.288 724.46 320.624 723.52 288.657C723.52 288.657 681.211 303.7 660.207 294.618C660.207 294.618 665.848 278.315 650.503 264.212C650.503 264.212 653.475 292.418 562.275 288.187C471.075 283.956 421.245 303.7 399.15 349.3C399.15 349.3 325.814 330.496 287.266 429.687L318.293 416.055C318.293 416.055 316.882 430.628 322.524 438.375C273.784 600.184 319.233 660.977 319.233 660.977C351.2 588.582 436.758 512.425 436.758 512.425L450.861 447.081C450.861 447.081 579.086 446.837 710.432 484.746C710.432 484.746 710.037 523.087 702.516 546.273C702.516 546.273 775.231 640.293 767.709 748.735C767.709 748.735 851.143 635.836 847.965 542.475C853.7 545.916 859.341 549.469 864.87 553.173C864.87 553.173 868.311 521.357 851.857 498.322C851.857 498.322 887.115 488.601 894.956 471.997Z" fill="#635D7C"/>
<g opacity="0.6">
<path d="M639.095 278.649C648.607 291.325 644.223 304.02 644.223 304.02C665.227 313.102 707.536 298.059 707.536 298.059C707.922 311.164 704.303 321.53 699.898 329.199C696.535 335.055 701.18 342.19 707.889 341.417C745.52 337.083 773.439 348.555 786.911 355.906C793.746 353.028 802.649 350.668 811.899 352.121C811.899 352.121 768.33 318.424 701.576 336.288C701.576 336.288 724.46 320.624 723.52 288.657C723.52 288.657 681.211 303.7 660.207 294.618C660.207 294.618 665.848 278.315 650.504 264.212C650.504 264.212 651.305 271.902 639.095 278.649Z" fill="white"/>
</g>
<g opacity="0.6">
<path d="M546.292 297.589C603.252 300.232 623.477 290.221 630.636 282.332C617.833 286.739 596.809 289.789 562.275 288.187C500 285.298 457.027 293.598 428.989 313.665C456.555 300.451 494.836 295.202 546.292 297.589Z" fill="white"/>
</g>
<g opacity="0.6">
<path d="M778.069 362.814C766.632 365.967 758.307 372.335 758.307 372.335C803.296 370.034 811.49 392.23 829.057 408.063H858.908C829.99 394.439 829.423 361.723 778.069 362.814Z" fill="white"/>
</g>
<path d="M864.869 558.815C863.768 558.815 862.674 558.493 861.729 557.86C856.53 554.378 850.924 550.83 845.063 547.313C807.07 524.504 761.25 505.277 708.869 490.166C580.352 453.074 453.127 452.722 450.891 452.722C450.873 452.722 450.868 452.722 450.86 452.722C450.651 452.722 450.441 452.71 450.232 452.687L395.702 446.576C393.314 446.308 391.358 444.559 390.827 442.216L388.894 433.678L385.71 440.704C384.71 442.908 382.439 444.23 380.01 443.988L342.402 440.227C340.818 440.069 339.373 439.248 338.426 437.967C337.494 436.705 337.13 435.113 337.419 433.573L326.074 442.76C324.871 443.732 323.329 444.166 321.789 443.968C320.256 443.768 318.874 442.946 317.964 441.696C314.37 436.761 313.062 430.091 312.647 424.697L289.535 434.852C287.446 435.771 285.009 435.337 283.359 433.757C281.712 432.176 281.181 429.757 282.013 427.632C302.967 374.11 333.85 354.115 356.068 346.765C373.791 340.903 388.824 341.902 396.04 342.971C420.525 297.021 472.139 278.348 562.536 282.552C617.07 285.085 635.454 275.8 641.555 270.042C644.395 267.359 644.805 265.222 644.864 264.655C644.418 262.312 645.558 260.213 647.649 259.015C649.775 257.793 652.505 258.392 654.321 260.058C666.509 271.261 667.417 283.75 666.673 290.81C683.257 294.707 711.369 286.983 721.631 283.341C723.33 282.739 725.216 282.982 726.704 284.002C728.191 285.021 729.105 286.689 729.158 288.491C729.66 305.585 723.981 318.406 717.974 327.095C776.447 318.249 813.647 346.341 815.349 347.658C817.386 349.234 818.098 351.988 817.078 354.353C816.06 356.72 813.573 358.098 811.023 357.693C806.13 356.926 801.291 357.404 796.885 358.473C818.887 362.363 829.546 374.037 839.216 384.622C845.754 391.779 851.928 398.538 861.313 402.959C863.702 404.084 864.99 406.716 864.413 409.294C863.838 411.871 861.549 413.704 858.909 413.704H847.598C854.511 419.896 862.137 429.274 867.885 443.198C878.338 468.546 893.355 466.539 893.99 466.437C896.07 466.038 898.161 466.855 899.461 468.532C900.759 470.211 900.963 472.485 900.056 474.404C893.43 488.437 872.027 497.511 860.507 501.506C873.404 524.948 870.615 552.511 870.477 553.779C870.265 555.741 869.042 557.451 867.253 558.285C866.495 558.64 865.68 558.815 864.869 558.815ZM451.182 441.44C458.578 441.471 584.641 442.568 711.996 479.326C765.317 494.707 812.039 514.326 850.869 537.638C853.8 539.397 856.671 541.165 859.466 542.93C859.134 532.377 856.948 515.152 847.267 501.6C846.196 500.103 845.927 498.174 846.542 496.438C847.155 494.703 848.58 493.375 850.356 492.885C857.601 490.879 874.797 484.717 884.317 476.414C876.15 473.833 865.351 466.647 857.455 447.502C846.182 420.188 827.274 413.696 826.474 413.433C823.842 412.567 822.211 409.912 822.651 407.175C823.088 404.44 825.432 402.421 828.203 402.421H840.78C837.198 399.141 834.018 395.66 830.887 392.231C818.972 379.189 807.717 366.875 774.578 368.566C772.081 368.684 769.851 367.198 768.997 364.881C768.144 362.563 768.898 359.959 770.858 358.456C771.407 358.034 780.412 351.232 792.849 347.878C775.148 339.928 743.421 330.93 703.034 341.736C700.382 342.447 697.599 341.14 696.451 338.642C695.303 336.145 696.121 333.184 698.39 331.631C699.124 331.119 715.199 319.644 717.607 296.452C703.835 300.481 675.179 307.234 657.968 299.796C655.259 298.624 653.91 295.562 654.877 292.773C655.003 292.383 657.569 284.136 652.187 275.053C651.676 275.725 651.099 276.407 650.449 277.095C637.961 290.338 608.212 295.964 562.013 293.822C474.293 289.755 425.614 307.62 404.227 351.759C403.048 354.189 400.318 355.441 397.707 354.753C395.075 354.075 335.423 339.781 298.105 418.763L316.023 410.889C317.855 410.086 319.977 410.311 321.601 411.484C323.221 412.658 324.1 414.604 323.908 416.597C323.697 418.83 323.602 424.458 324.73 429.331L342.478 414.96C344.328 413.463 346.913 413.288 348.949 414.518C350.984 415.749 352.027 418.123 351.56 420.455L349.72 429.621L377.105 432.359L385.55 413.725C386.552 411.519 388.85 410.199 391.26 410.442C393.671 410.687 395.656 412.445 396.191 414.808L400.946 435.81L451.182 441.44Z" fill="#000072"/>
<path d="M767.708 754.377C767.056 754.377 766.399 754.264 765.76 754.029C763.407 753.163 761.909 750.847 762.083 748.345C769.361 643.388 698.765 550.647 698.051 549.722C696.912 548.248 696.573 546.304 697.15 544.533C704.313 522.449 704.787 485.062 704.791 484.687C704.809 482.925 705.652 481.273 707.065 480.22C708.48 479.167 710.302 478.836 711.996 479.326C765.316 494.708 812.039 514.327 850.869 537.638C852.507 538.624 853.538 540.372 853.602 542.283C856.81 636.525 775.7 747.413 772.247 752.088C771.159 753.558 769.46 754.377 767.708 754.377ZM708.748 545.182C719.472 559.797 772.774 637.029 773.886 729.695C795.737 696.233 843.308 615.243 842.398 545.727C806.652 524.624 764.13 506.644 715.861 492.219C715.376 504.082 713.802 527.677 708.748 545.182Z" fill="#000072"/>
<path d="M319.233 666.619C317.466 666.619 315.787 665.789 314.714 664.355C312.789 661.779 268.125 599.412 317.122 436.748C317.448 435.664 318.094 434.703 318.973 433.991L342.478 414.961C344.328 413.464 346.913 413.289 348.949 414.518C350.984 415.75 352.027 418.124 351.561 420.456L349.72 429.621L377.106 432.359L385.551 413.726C386.552 411.519 388.85 410.199 391.26 410.443C393.672 410.688 395.656 412.446 396.191 414.809L400.946 435.811L451.489 441.475C453.075 441.653 454.51 442.493 455.44 443.788C456.372 445.084 456.711 446.712 456.376 448.271L442.273 513.615C442.02 514.784 441.402 515.843 440.51 516.638C439.662 517.393 355.486 592.838 324.393 663.256C323.584 665.09 321.861 666.356 319.87 666.583C319.656 666.607 319.444 666.619 319.233 666.619ZM327.427 441.664C291.165 563.162 309.184 626.436 318.916 648.458C351.702 583.354 420.624 519.428 431.629 509.451L444.029 451.992L395.702 446.576C393.314 446.308 391.359 444.559 390.828 442.216L388.894 433.678L385.71 440.704C384.71 442.908 382.44 444.23 380.01 443.988L342.402 440.227C340.818 440.069 339.373 439.248 338.427 437.967C337.495 436.705 337.13 435.114 337.419 433.574L327.427 441.664Z" fill="#000072"/>
<path d="M585.391 866.781C567.118 866.781 547.142 864.968 525.342 860.821C326.127 822.944 318.671 726.581 314.216 669.006C314.014 666.407 313.818 663.888 313.612 661.457C313.531 660.513 313.69 659.565 314.073 658.699C344.316 590.205 420.047 519.951 431.629 509.451L445.345 445.891C445.905 443.298 448.196 441.445 450.849 441.44C450.855 441.44 450.864 441.44 450.875 441.44C453.275 441.44 581.962 441.796 711.996 479.326C714.431 480.029 716.099 482.269 716.074 484.804C716.057 486.342 715.618 521.389 708.748 545.182C720.214 560.807 780.349 648.011 773.336 749.125C773.301 749.63 773.199 750.127 773.032 750.603C772.499 752.121 759.565 788.128 722.407 819.93C695.608 842.868 651.742 866.781 585.391 866.781ZM324.975 661.952C325.14 663.957 325.301 666.02 325.464 668.135C327.667 696.611 330.41 732.05 356.12 765.726C387.032 806.214 443.075 833.694 527.45 849.737C604.717 864.437 667.699 851.647 714.648 811.72C747.021 784.191 760.208 752.499 762.138 747.528C768.989 642.911 698.763 550.644 698.051 549.722C696.912 548.247 696.575 546.304 697.148 544.532C702.874 526.886 704.328 499.467 704.681 488.97C590.803 456.795 478.997 453.177 455.404 452.773L442.273 513.615C442.02 514.784 441.401 515.843 440.51 516.638C439.667 517.388 356.522 591.908 324.975 661.952Z" fill="#000072"/>
<path d="M431.037 594.319C431.857 590.159 433.541 586.215 435.688 582.482C437.905 578.795 440.646 575.294 444.15 572.38C447.633 569.471 451.905 567.209 456.597 566.073C461.276 564.919 466.305 564.923 470.928 566.006C475.548 567.094 479.889 568.91 483.764 571.23C487.607 573.59 491.192 576.233 494.401 579.177C500.866 585.029 506.311 591.633 511.071 598.578C512.848 601.171 512.186 604.713 509.594 606.49C507.126 608.181 503.799 607.664 501.952 605.375L501.883 605.289C496.941 599.131 491.923 593.12 486.403 587.891C480.926 582.659 474.828 578.232 468.316 576.177C465.068 575.174 461.739 574.753 458.419 575.23C455.101 575.687 451.835 576.965 448.661 578.749C442.309 582.404 436.572 588.048 431.172 594.379C431.146 594.413 431.098 594.419 431.065 594.394C431.043 594.377 431.033 594.345 431.037 594.319Z" fill="#000072"/>
<path d="M670.544 621.643C669.154 618.059 667.694 614.668 665.912 611.59C664.204 608.496 662.164 605.739 659.866 603.661C657.57 601.572 655.028 600.258 652.275 599.685C649.514 599.104 646.494 599.415 643.432 600.159C640.366 600.897 637.274 602.121 634.243 603.681C633.482 604.065 632.716 604.414 631.961 604.821L629.711 606.12C628.198 606.935 626.75 607.956 625.26 608.879C619.36 612.719 613.68 617.134 607.941 621.563L607.862 621.623C605.374 623.543 601.8 623.083 599.88 620.594C598.061 618.238 598.395 614.893 600.547 612.916C606.193 607.758 612.274 602.986 618.962 598.866C625.685 594.841 632.958 591.174 641.487 589.839C645.701 589.159 650.331 589.246 654.76 590.684C659.178 592.095 663.174 594.955 665.732 598.512C667.013 600.293 668.038 602.171 668.847 604.08C669.618 606.009 670.192 607.967 670.575 609.927C671.305 613.855 671.411 617.809 670.691 621.634C670.683 621.675 670.643 621.702 670.602 621.695C670.575 621.69 670.553 621.667 670.544 621.643Z" fill="#000072"/>
<path d="M313.121 739.07C288.153 739.07 267.841 718.757 267.841 693.79C267.841 668.823 288.153 648.51 313.121 648.51C316.534 648.51 319.923 648.894 323.193 649.651C326.229 650.355 328.119 653.385 327.416 656.42C326.715 659.458 323.679 661.342 320.648 660.643C318.211 660.078 315.679 659.793 313.121 659.793C294.375 659.793 279.124 675.043 279.124 693.79C279.124 712.536 294.375 727.787 313.121 727.787C318.339 727.787 323.333 726.639 327.962 724.375C330.756 723.005 334.138 724.162 335.509 726.964C336.877 729.762 335.718 733.141 332.92 734.509C326.733 737.536 320.072 739.07 313.121 739.07Z" fill="#000072"/>
<path d="M768.601 805.171C760.803 805.171 753.079 803.142 746.081 799.164C743.772 797.853 741.579 796.349 739.557 794.694C737.148 792.72 736.792 789.166 738.766 786.756C740.738 784.347 744.29 783.989 746.706 785.965C748.235 787.217 749.901 788.358 751.655 789.356C759.661 793.902 768.904 795.072 777.7 792.648C786.238 790.292 793.322 784.795 797.645 777.168C802.04 769.437 803.102 760.432 800.641 751.81C798.171 743.155 792.451 735.912 784.535 731.414C783.57 730.861 782.594 730.368 781.534 729.897C778.687 728.632 777.405 725.298 778.67 722.451C779.935 719.604 783.264 718.323 786.115 719.586C787.531 720.215 788.843 720.879 790.127 721.616C800.61 727.572 808.203 737.199 811.49 748.713C814.79 760.273 813.358 772.356 807.458 782.737C801.65 792.982 792.147 800.367 780.701 803.524C776.707 804.625 772.644 805.171 768.601 805.171Z" fill="#000072"/>
<path d="M537.026 876.853C490.763 876.853 466.161 845.488 465.844 845.074C463.954 842.596 464.432 839.056 466.91 837.167C469.384 835.281 472.918 835.752 474.809 838.224C476.329 840.188 511.91 884.895 580.777 856.003C583.645 854.797 586.956 856.15 588.162 859.023C589.367 861.895 588.015 865.201 585.142 866.407C567.154 873.954 551.087 876.853 537.026 876.853Z" fill="#000072"/>
<path d="M381.599 1121.05C381.209 1121.05 380.815 1121.01 380.421 1120.92C378.409 1120.5 330.864 1110 307.919 1074.6C306.756 1072.81 306.707 1070.51 307.79 1068.67C308.078 1068.18 336.494 1019.87 344.703 999.801C345.884 996.916 349.187 995.538 352.06 996.715C354.944 997.894 356.326 1001.19 355.145 1004.07C347.774 1022.1 325.854 1060.1 319.326 1071.3C336.758 1095.39 368.334 1105.94 379.084 1108.94C428.457 1032.73 445.669 963.805 451.391 919.144C456.611 878.402 453.471 849.989 452.213 841.303C446.044 838.703 429.55 833.048 417.04 840.618C416.009 850.701 411.946 887.817 404.404 925.084C391.995 986.415 376.755 1017.71 357.818 1020.77C354.724 1021.27 351.847 1019.17 351.349 1016.1C350.855 1013.02 352.946 1010.13 356.02 1009.63C362.163 1008.64 378.099 998.199 393.346 922.846C402.02 879.981 406.03 837.338 406.068 836.912C406.217 835.325 407.028 833.874 408.302 832.918C429.715 816.873 458.702 831.796 459.925 832.439C461.439 833.234 462.509 834.672 462.838 836.349C463.095 837.669 469.084 869.24 462.655 920.011C456.75 966.639 438.71 1038.93 386.309 1118.51C385.253 1120.12 383.47 1121.05 381.599 1121.05Z" fill="#000072"/>
<path d="M372.485 1008.59C372.399 1008.59 372.315 1008.59 372.227 1008.59L336.216 1006.97C333.105 1006.83 330.695 1004.19 330.834 1001.08C330.972 998.051 333.468 995.689 336.467 995.689C336.551 995.689 336.637 995.691 336.725 995.695L372.736 997.317C375.847 997.458 378.257 1000.09 378.117 1003.21C377.981 1006.23 375.485 1008.59 372.485 1008.59Z" fill="#000072"/>
<path d="M349.94 854.66C347.329 854.66 344.987 852.838 344.427 850.182C343.782 847.133 345.732 844.142 348.781 843.498C353.767 842.445 397.95 833.42 413.188 840.342C416.024 841.631 417.279 844.976 415.99 847.812C414.701 850.647 411.363 851.9 408.519 850.614C399.565 846.543 368.549 850.86 351.11 854.537C350.718 854.62 350.326 854.66 349.94 854.66Z" fill="#000072"/>
<path d="M324.893 1014.09C324.151 1014.09 323.4 1014.05 322.648 1013.96C316.191 1013.19 310.815 1009.18 308.267 1003.23L308.074 1002.77L318.53 998.528L318.632 998.779C319.994 1001.95 322.827 1002.62 323.981 1002.75C326.528 1003.06 328.977 1002.01 330.516 999.951C343.996 981.921 352.976 954.278 355.152 924.108C357.152 896.41 353.037 869.349 343.862 849.864C343.599 849.304 343.119 848.87 342.544 848.673C342.2 848.553 341.665 848.47 341.108 848.754C339.111 849.764 337.757 851.116 336.97 852.888L326.661 848.303C328.496 844.178 331.73 840.853 336.015 838.687C339.192 837.079 342.813 836.836 346.21 838.002C349.651 839.184 352.514 841.755 354.069 845.056C364.191 866.553 368.573 894.915 366.407 924.92C364.077 957.185 354.29 986.995 339.552 1006.71C336.026 1011.42 330.662 1014.09 324.893 1014.09Z" fill="#000072"/>
<path d="M334.576 864.931C331.692 861.706 329.687 858.388 327.797 855.083L327.453 854.462L327.208 854.104C327.055 853.877 326.888 853.664 326.723 853.454C326.388 853.036 325.983 852.69 325.576 852.377C324.735 851.774 323.793 851.427 322.907 851.278C321.275 851.01 319.025 851.727 317.519 853.132C315.899 854.541 314.481 857.234 313.348 860.413L313.27 860.63C312.221 863.573 308.985 865.108 306.041 864.059C303.468 863.141 301.972 860.548 302.34 857.944C302.664 855.631 303.235 853.253 304.26 850.883C305.26 848.516 306.735 846.124 308.843 844.077C310.889 841.991 313.641 840.428 316.439 839.575C317.15 839.348 317.826 839.19 318.572 839.046C319.346 838.922 320.122 838.823 320.909 838.807C322.474 838.753 324.051 838.893 325.555 839.271C328.587 839.968 331.297 841.565 333.437 843.629C334.498 844.674 335.449 845.82 336.217 847.077C336.591 847.708 336.97 848.341 337.244 849.02L337.653 850.014L337.903 850.771C339.156 854.835 339.834 859.079 339.261 863.522C339.071 864.99 337.728 866.026 336.261 865.836C335.598 865.751 335.023 865.43 334.609 864.968L334.576 864.931Z" fill="#000072"/>
<path d="M325.534 988.179C324.29 993.31 321.885 998.039 318.715 1002.35C317.898 1003.45 317.105 1004.42 316.096 1005.51C314.862 1006.8 313.391 1007.9 311.76 1008.72C308.517 1010.38 304.666 1011.02 300.929 1010.34C299.068 1009.99 297.256 1009.32 295.609 1008.37C294.75 1007.88 294.065 1007.39 293.399 1006.9C292.738 1006.37 292.08 1005.84 291.472 1005.23C289.045 1002.84 287.174 999.831 286.115 996.749C283.994 990.498 284.464 984.448 285.734 979.131C286.459 976.095 289.509 974.222 292.545 974.948C295.266 975.598 297.053 978.116 296.872 980.818L296.857 981.02C296.569 985.346 296.696 989.453 297.873 992.537C298.425 994.092 299.209 995.371 300.258 996.447C300.501 996.733 300.789 996.983 301.067 997.248C301.379 997.502 301.681 997.745 301.881 997.877C302.345 998.19 302.849 998.425 303.393 998.573C304.466 998.914 305.739 998.914 306.942 998.481C307.539 998.262 308.124 997.96 308.676 997.564C309.457 996.969 310.37 996.171 311.221 995.463C314.696 992.529 318.076 989.253 321.942 985.992L321.966 985.971C322.897 985.185 324.291 985.303 325.076 986.235C325.545 986.791 325.689 987.522 325.534 988.179Z" fill="#000072"/>
<path d="M302.779 987.228C302.742 987.228 302.708 987.227 302.671 987.227C301.578 987.206 275.626 986.498 248.913 967.985C225.053 951.449 196.215 917.065 192.533 846.83C187.791 845.982 181.332 843.3 176.65 835.455C169.379 823.278 171.921 808.753 172.032 808.141C172.593 805.075 175.542 803.048 178.595 803.604C181.66 804.163 183.691 807.102 183.132 810.166C183.116 810.257 181.276 821.195 186.337 829.672C190.415 836.501 196.487 835.97 197.164 835.886C198.757 835.639 200.343 836.089 201.586 837.12C202.831 838.148 203.531 839.667 203.585 841.282C205.46 896.421 222.713 935.819 254.859 958.378C273.578 971.514 292.238 974.845 299.61 975.676C327.376 924.32 315.342 877.552 311.647 866.019C271.281 856.354 255.802 830.903 255.146 829.798C254.482 828.676 254.227 827.358 254.425 826.07C254.452 825.884 257.254 807.396 256.706 795.726C256.586 793.186 254.445 791.197 251.832 791.197H221.03C221.034 792.597 221.297 794.184 222.176 795.559C224.231 798.776 229.197 799.921 233.001 800.314C235.175 800.54 237.024 802 237.746 804.063C238.467 806.125 237.932 808.42 236.372 809.951C236.154 810.175 230.167 816.414 232.549 825.491C233.34 828.504 231.539 831.589 228.525 832.38C225.518 833.164 222.427 831.37 221.636 828.355C219.629 820.709 221.149 814.282 223.262 809.677C218.49 807.962 214.913 805.225 212.578 801.489C207.594 793.519 210.621 784.609 210.981 783.619C211.794 781.394 213.911 779.913 216.281 779.913H251.832C260.483 779.913 267.572 786.626 267.975 795.196C268.464 805.59 266.658 820.056 265.897 825.558C269.819 830.893 285.114 848.895 317.115 855.688C318.948 856.077 320.469 857.351 321.173 859.089C322.154 861.517 344.806 919.29 307.68 984.382C306.674 986.143 304.802 987.228 302.779 987.228Z" fill="#000072"/>
<path d="M189.365 803.362C187.099 803.363 184.811 802.77 182.579 801.568C171.961 795.851 165.437 782.981 165.164 782.435C164.773 781.652 164.569 780.789 164.569 779.913C164.569 778.911 164.897 770.829 175.012 763.293C169.874 751.701 167.274 740.963 165.976 733.654C164.943 727.838 167.545 722.095 172.604 719.021C179.227 714.993 187.727 716.934 191.944 723.445L212.019 754.429C211.431 746.398 211.666 738.641 212.03 733.043C212.623 723.855 217.697 715.49 225.6 710.667C229.097 708.532 233.396 708.299 237.104 710.044C240.811 711.789 243.37 715.252 243.955 719.307L253.363 784.751C253.806 787.836 251.665 790.695 248.58 791.138C245.515 791.585 242.638 789.441 242.193 786.357L232.785 720.912C232.741 720.606 232.578 720.384 232.298 720.252C232.014 720.12 231.743 720.135 231.478 720.296C226.708 723.209 223.646 728.246 223.287 733.772C222.857 740.421 222.613 750.313 223.901 759.669C224.565 764.503 221.491 769.075 216.749 770.305C212.719 771.355 208.476 769.707 206.206 766.205L182.473 729.58C181.6 728.231 179.839 727.827 178.463 728.662C177.412 729.301 176.872 730.486 177.083 731.682C178.165 737.761 180.88 749.755 186.994 762.305L201.547 780.591C205.581 785.656 205.285 793.042 200.857 797.771C197.398 801.467 193.418 803.362 189.365 803.362ZM176.151 778.99C177.941 782.028 182.287 788.597 187.928 791.634C188.781 792.093 190.072 792.783 192.621 790.061C193.251 789.387 193.293 788.338 192.72 787.618L181.012 772.908C177.87 775.426 176.634 777.686 176.151 778.99Z" fill="#000072"/>
<path d="M175.605 815.147C168.759 815.147 160.21 809.589 155.604 799.06C154.199 795.867 154.24 792.216 155.718 789.051C157.663 784.877 161.371 779.162 167.972 775.676C170.729 774.221 174.14 775.275 175.594 778.03C177.05 780.785 175.995 784.198 173.242 785.653C169.211 787.781 166.937 791.684 165.943 793.821C165.837 794.045 165.837 794.301 165.935 794.527C168.916 801.338 173.82 803.95 175.464 803.894C175.856 803.585 177.207 802.344 179.392 798.502C179.392 798.522 179.396 798.171 179.251 797.493C178.597 794.446 180.536 791.447 183.583 790.793C186.634 790.146 189.628 792.081 190.281 795.126C191.003 798.484 190.625 801.584 189.194 804.09C185.942 809.804 182.924 813.077 179.698 814.382C178.447 814.893 177.064 815.147 175.605 815.147Z" fill="#000072"/>
<path d="M388.103 1051.16C386.155 1051.16 384.459 1040.72 383.577 1025.31L391.609 1028.17C386.724 1034.64 379.514 1040.17 371.408 1044.52C365.339 1047.78 359.3 1050.21 353.679 1052.08C348.029 1053.93 342.897 1055.22 338.231 1056.01L340.908 1051.16C343.066 1060.85 343.693 1067.15 342.268 1067.61C340.842 1068.08 337.646 1062.61 333.693 1053.51C332.94 1051.78 333.735 1049.76 335.468 1049.01L335.592 1048.96L336.37 1048.66C344.389 1045.58 355.462 1041.31 366.497 1035.42C373.887 1031.46 380.22 1027.01 384.596 1022.44L385.026 1022C386.714 1020.23 389.512 1020.17 391.274 1021.86C392.24 1022.79 392.694 1024.07 392.628 1025.31C391.746 1040.72 390.05 1051.16 388.103 1051.16Z" fill="#000072"/>
<path d="M715.385 1071.22C713.465 1071.54 710.563 1064.36 707.876 1053.49C707.298 1051.14 708.73 1048.77 711.073 1048.19C712.344 1047.88 713.624 1048.16 714.622 1048.85L715.338 1049.36C718.888 1051.86 723.794 1054.17 729.431 1056.08C737.834 1058.94 746.169 1060.82 752.135 1062.3L753.213 1062.57C754.966 1063 756.033 1064.78 755.597 1066.53C755.588 1066.57 755.575 1066.61 755.564 1066.65C753.554 1073.58 751.545 1077.8 750.064 1077.58C748.582 1077.35 747.921 1072.73 748.062 1065.51L751.493 1069.86C744.611 1069.99 735.717 1069.11 726.064 1065.86C719.657 1063.67 713.711 1060.44 709.348 1056.14L716.808 1052.02C717.753 1063.17 717.308 1070.9 715.385 1071.22Z" fill="#000072"/>
<path d="M349.319 1068.87C349.271 1067.35 356.887 1066.11 365.806 1063.38C374.786 1060.78 381.757 1057.7 382.54 1058.84C383.42 1060.03 376.971 1065.53 367.28 1068.34C362.483 1069.79 357.933 1070.29 354.654 1070.2C351.369 1070.14 349.351 1069.55 349.319 1068.87Z" fill="#000072"/>
<path d="M747.612 1082.6C747.579 1083.28 745.883 1083.88 743.111 1084.01C740.344 1084.16 736.503 1083.78 732.46 1082.56C724.292 1080.19 718.937 1075.39 719.809 1074.2C720.6 1073.06 726.478 1075.45 733.934 1077.6C741.337 1079.87 747.656 1081.09 747.612 1082.6Z" fill="#000072"/>
<path d="M559.925 986.271H517.615C514.98 986.271 512.699 984.442 512.125 981.871C506.451 956.452 504.962 930.487 507.691 904.622C488.569 899.147 470.892 889.833 456.313 877.514C453.94 875.509 453.641 871.959 455.648 869.586C457.65 867.215 461.198 866.914 463.575 868.921C478.053 881.156 495.904 890.17 515.198 894.988C517.961 895.679 519.772 898.324 519.417 901.149C516.304 925.846 517.231 950.674 522.167 975.02H553.009C548.488 951.623 547.49 927.784 550.045 904.056C550.342 901.291 552.616 899.158 555.395 899.039C577.8 898.076 599.431 891.825 617.948 880.965C620.623 879.394 624.073 880.29 625.646 882.971C627.217 885.65 626.32 889.097 623.639 890.669C604.9 901.661 583.258 908.3 560.77 909.99C558.754 933.251 560.312 956.583 565.415 979.419C565.787 981.085 565.382 982.83 564.314 984.163C563.246 985.496 561.632 986.271 559.925 986.271Z" fill="#000072"/>
<path d="M535.946 964.663C534.224 964.663 532.67 963.473 532.28 961.723C521.552 913.761 531.861 872.113 532.304 870.363C532.815 868.352 534.868 867.137 536.872 867.644C538.885 868.154 540.104 870.199 539.595 872.213C539.491 872.625 529.299 913.941 539.619 960.081C540.073 962.107 538.797 964.119 536.77 964.572C536.493 964.633 536.218 964.663 535.946 964.663Z" fill="#000072"/>
<path d="M839.461 1174.64C838.388 1174.64 837.3 1174.52 836.217 1174.27C830.828 1173 826.724 1168.85 825.507 1163.45C824.609 1159.48 822.522 1152.72 817.664 1143C809.954 1127.58 810.197 1106.23 810.69 1097.46C787.214 1085.59 765.541 1070.01 746.214 1051.12C743.988 1048.94 743.946 1045.37 746.125 1043.14C748.302 1040.92 751.872 1040.87 754.103 1043.05C773.501 1062.01 795.358 1077.48 819.068 1089.02C821.2 1090.06 822.454 1092.33 822.209 1094.68C822.181 1094.95 819.528 1121.5 827.757 1137.96C833.118 1148.68 835.476 1156.39 836.511 1160.96C836.773 1162.13 837.65 1163.01 838.798 1163.28C840.464 1163.68 842.081 1162.65 842.499 1160.96L842.548 1160.76C843.742 1155.94 845.377 1149.33 844.513 1142.29C844.134 1139.19 846.333 1136.38 849.426 1136C852.509 1135.62 855.331 1137.82 855.712 1140.91C856.829 1150.02 854.826 1158.11 853.5 1163.47L853.452 1163.66C851.832 1170.21 845.916 1174.64 839.461 1174.64Z" fill="#000072"/>
<path d="M901.311 1155.14C899.761 1155.14 898.218 1154.5 897.103 1153.26C895.026 1150.93 895.226 1147.37 897.548 1145.29C906.946 1136.89 906.412 1119.44 905.257 1109.79C904.387 1102.52 900.899 1095.77 895.438 1090.77L867.008 1064.72C866.578 1064.33 866.211 1063.87 865.922 1063.37L815.031 974.447C807.987 991.665 790.772 1024.03 753.517 1051.62C753.431 1051.68 753.343 1051.74 753.254 1051.8C748.91 1054.65 738.367 1057.98 729.563 1050.17C727.232 1048.1 727.018 1044.54 729.086 1042.2C731.156 1039.87 734.723 1039.66 737.049 1041.73C741.375 1045.56 746.184 1042.91 746.962 1042.43C795.961 1006.06 808.193 959.975 808.312 959.514C808.88 957.287 810.743 955.625 813.019 955.316C815.305 955.007 817.535 956.107 818.676 958.099L875.277 1057L903.06 1082.44C910.51 1089.27 915.27 1098.5 916.46 1108.45C918.19 1122.9 917.619 1142.48 905.07 1153.7C903.993 1154.66 902.649 1155.14 901.311 1155.14Z" fill="#000072"/>
<path d="M813.781 966.544C813.246 966.544 812.702 966.468 812.164 966.307C809.179 965.415 807.484 962.274 808.372 959.29C810.893 950.806 811.931 939.741 809.458 936.791C807.682 934.676 805.702 934.315 803.565 935.706C801.643 937.07 799.116 937.067 797.171 935.745C795.223 934.421 794.342 931.999 794.901 929.711C795.111 928.753 795.977 923.565 791.063 921.408C784.24 918.413 778.804 921.113 778.573 921.229C776.548 922.265 774.027 922.018 772.289 920.546C771.978 920.282 740.727 893.876 711.789 875.407C700.905 868.462 688.449 864.761 675.765 864.705C671.426 864.668 667.437 864.929 663.852 865.426C660.781 865.854 657.918 863.7 657.489 860.614C657.062 857.528 659.215 854.679 662.303 854.251C666.415 853.68 670.953 853.439 675.816 853.422C690.635 853.488 705.173 857.801 717.857 865.896C742.596 881.685 768.89 903.066 777.035 909.811C781.063 908.636 787.895 907.695 795.598 911.077C802.062 913.915 804.915 918.927 805.913 923.65C809.939 923.615 814.377 925.102 818.1 929.54C825.778 938.692 820.35 958.617 819.184 962.517C818.454 964.963 816.211 966.544 813.781 966.544Z" fill="#000072"/>
<path d="M784.655 927.156C781.85 936.978 778.117 946.472 773.892 955.753C769.71 965.057 764.97 974.117 759.831 982.96C758.588 985.197 757.255 987.38 755.909 989.557C754.553 991.726 753.28 993.955 751.851 996.08C749.008 1000.34 746.217 1004.65 743.162 1008.78C737.281 1017.2 730.653 1025.09 723.921 1032.89C721.884 1035.26 718.32 1035.52 715.959 1033.48C713.598 1031.45 713.334 1027.88 715.372 1025.52C715.437 1025.45 715.504 1025.37 715.571 1025.3L715.698 1025.17C722.583 1018.03 729.329 1010.72 735.601 1002.98C741.973 995.311 747.894 987.257 753.583 979.027C759.3 970.806 764.483 962.219 769.5 953.517C774.435 944.777 779.187 935.872 783.357 926.708L783.368 926.683C783.525 926.337 783.933 926.185 784.278 926.342C784.592 926.485 784.746 926.834 784.655 927.156Z" fill="#000072"/>
<path d="M705.516 969.054C704.829 975.94 705.46 982.732 706.883 989.253C708.312 995.782 710.523 1002.07 713.164 1008.14C714.419 1011.03 713.097 1014.38 710.211 1015.64C707.326 1016.89 703.97 1015.57 702.715 1012.68C702.508 1012.21 702.371 1011.72 702.299 1011.22L702.291 1011.15C701.301 1004.02 700.833 996.809 701.241 989.672C701.645 982.547 702.965 975.493 705.483 969.046C705.485 969.037 705.495 969.032 705.505 969.036C705.512 969.038 705.516 969.046 705.516 969.054Z" fill="#000072"/>
<g opacity="0.3">
<path d="M386.307 998.039C397.993 974.465 405.149 906.221 408.549 864.668C402.222 913.309 385.998 1010.51 356.919 1015.2L349.924 1001.94C345.046 1013.86 333.407 1035.16 324.421 1051.07C327.54 1051.66 332.299 1052.1 339.354 1051.77C355.101 1051.04 380.399 1032.65 380.399 1032.65L358.251 1036.12C358.251 1036.12 369.063 1032.83 386.307 998.039Z" fill="#000072"/>
</g>
<g opacity="0.3">
<path d="M395.261 843.357L383.647 916.85C381.837 928.304 371.266 936.258 359.758 934.824L361.299 894.147C361.299 894.147 345.01 966.446 338.742 962.782C332.474 959.116 336.47 938.571 336.47 938.571C336.47 938.571 325.344 964.427 316.062 951.628C312.96 961.305 308.683 971.357 302.849 981.586C302.849 981.586 298.411 981.491 291.378 980.062V980.081C289.178 992.981 293.484 999.468 298.167 1002.7C302.642 1005.82 308.659 1005.2 312.608 1001.4C312.871 1001.16 313.135 1000.9 313.379 1000.65C313.436 1000.77 313.473 1000.9 313.53 1001.01C317.309 1009.85 329.344 1011.03 335.116 1003.32C335.605 1002.66 336.075 1002.01 336.546 1001.33H336.564L350.009 1001.93L372.537 1002.95H372.555C395.929 968.761 407.832 873.763 410.934 845.482C407.388 843.873 401.729 843.308 395.261 843.357Z" fill="#000072"/>
</g>
<g opacity="0.3">
<path d="M249.116 786.839L257.894 787.441C256.181 786.262 254.123 785.554 251.909 785.554H249.056L249.116 786.839Z" fill="#000072"/>
</g>
<g opacity="0.3">
<path d="M894.956 471.997C894.956 471.997 875.212 475.758 862.669 445.351C860.018 438.927 856.945 433.563 853.751 429.082C830.99 442.96 766.075 473.305 675.57 438.15C675.57 438.15 720.699 439.56 755.486 419.816C755.486 419.816 688.732 430.158 602.704 379.387C516.675 328.616 468.725 347.42 468.725 347.42C468.725 347.42 514.644 303.701 591.111 307.932C591.111 307.932 504.701 283.544 427.511 314.753C415.225 323.904 405.889 335.393 399.15 349.3C399.15 349.3 345.22 357.251 318.151 418.963C318.054 423.609 318.44 432.768 322.523 438.375C273.783 600.184 319.232 660.977 319.232 660.977C351.199 588.582 436.758 512.425 436.758 512.425L450.861 447.081C450.861 447.081 579.085 446.837 710.432 484.746C710.432 484.746 710.037 523.087 702.516 546.273C702.516 546.273 775.231 640.293 767.709 748.736C767.709 748.736 851.143 635.836 847.965 542.475C853.7 545.916 859.341 549.469 864.869 553.173C864.869 553.173 868.31 521.357 851.857 498.322C851.857 498.322 887.115 488.601 894.956 471.997Z" fill="#000072"/>
</g>
<path d="M657.063 661.778C651.642 663.663 646.197 665.893 641.093 668.358C635.989 670.904 631.13 673.725 626.618 676.905C625.521 677.743 624.334 678.456 623.291 679.345L620.114 681.937C619.068 682.808 618.129 683.791 617.128 684.706L615.637 686.086L614.281 687.59C610.457 691.431 607.547 695.982 604.708 700.571L596.146 692.067C597.636 691.327 598.726 690.88 599.995 690.409C601.221 689.936 602.451 689.544 603.679 689.148C606.138 688.38 608.638 687.811 611.146 687.333C616.165 686.395 621.292 686.089 626.365 686.392C631.428 686.758 636.471 687.538 641.221 689.216C646.028 690.655 650.463 693.066 654.574 695.692C655.579 696.334 655.874 697.671 655.231 698.677C654.729 699.463 653.802 699.815 652.941 699.624L652.695 699.568C650.431 699.06 648.299 698.323 646.084 697.906C643.867 697.498 641.708 697.015 639.495 696.825C637.316 696.486 635.102 696.502 632.937 696.341C631.848 696.306 630.752 696.378 629.668 696.387C628.584 696.38 627.501 696.466 626.421 696.591C622.108 696.893 617.842 697.65 613.703 698.785C611.632 699.349 609.6 700.025 607.608 700.753C606.622 701.138 605.632 701.514 604.692 701.945C603.779 702.341 602.726 702.86 602.122 703.177L601.869 703.31C598.818 704.913 595.045 703.74 593.442 700.689C592.418 698.739 592.549 696.458 593.559 694.673L596.008 690.417L597.252 688.296C597.685 687.602 598.21 686.967 598.686 686.301L601.628 682.356C602.679 681.102 603.838 679.94 604.943 678.733L606.624 676.944L608.459 675.327C609.703 674.274 610.897 673.156 612.186 672.17C614.822 670.273 617.435 668.355 620.28 666.839C625.875 663.67 631.808 661.224 637.923 659.672C644.046 658.09 650.206 657.199 656.624 657.494C657.822 657.549 658.75 658.566 658.695 659.765C658.653 660.677 658.054 661.432 657.243 661.716L657.063 661.778Z" fill="#000072"/>
<path d="M466.979 619.74C450.45 618.168 437.271 639.306 437.542 666.953C437.814 694.6 451.433 718.286 467.962 719.858C484.491 721.43 497.671 700.292 497.399 672.645C497.128 644.998 483.508 621.311 466.979 619.74Z" fill="#000072"/>
<path d="M466.896 631.325C461.919 633.969 460.542 643.412 463.82 652.416C467.098 661.421 473.79 666.576 478.768 663.932C483.745 661.288 485.122 651.845 481.844 642.841C478.565 633.836 471.874 628.681 466.896 631.325Z" fill="white"/>
<path d="M467.041 631.596C465.517 632.462 464.417 633.944 463.718 635.569C463.015 637.204 462.657 638.989 462.537 640.78C462.356 644.37 462.952 647.992 464.175 651.357C465.365 654.73 467.191 657.891 469.597 660.411C471.95 662.873 475.474 664.644 478.351 663.147C479.735 662.393 480.8 661.04 481.498 659.49C482.197 657.933 482.577 656.199 482.764 654.447C483.095 650.928 482.663 647.293 481.582 643.869C480.527 640.446 478.863 637.137 476.41 634.515C475.179 633.222 473.736 632.105 472.094 631.461C470.468 630.772 468.599 630.819 467.041 631.596ZM466.752 631.053C468.461 630.155 470.577 630.089 472.338 630.809C474.125 631.481 475.661 632.643 476.968 633.975C479.558 636.677 481.453 639.986 482.667 643.509C483.92 647.023 484.526 650.79 484.314 654.577C484.198 656.468 483.834 658.377 483.049 660.175C482.277 661.956 481.028 663.681 479.184 664.717C477.321 665.699 474.982 665.772 473.126 664.978C471.239 664.235 469.672 663.001 468.352 661.613C465.715 658.809 463.982 655.352 462.903 651.778C461.792 648.206 461.35 644.426 461.712 640.71C461.895 638.857 462.281 637 463.063 635.28C463.834 633.574 465.048 631.978 466.752 631.053Z" fill="#000072"/>
<path d="M454.831 691.044C452.56 693.22 452.737 698.406 455.227 702.625C457.716 706.845 461.575 708.501 463.846 706.324C466.117 704.148 465.94 698.962 463.45 694.743C460.961 690.523 457.102 688.867 454.831 691.044Z" fill="#B199C5"/>
<path d="M455.044 691.266C453.775 692.557 453.495 694.575 453.681 696.391C453.88 698.24 454.527 700.024 455.437 701.616C456.364 703.195 457.582 704.616 459.027 705.54C460.467 706.483 462.163 706.7 463.22 705.671C464.299 704.627 464.683 702.771 464.634 701.001C464.592 699.2 464.107 697.38 463.328 695.707C462.526 694.053 461.438 692.467 459.931 691.407C459.182 690.891 458.332 690.495 457.446 690.429C456.561 690.342 455.694 690.671 455.044 691.266ZM454.618 690.821C455.365 690.102 456.446 689.682 457.487 689.772C458.525 689.849 459.502 690.231 460.35 690.773C462.047 691.871 463.357 693.449 464.342 695.18C465.311 696.926 465.988 698.858 466.186 700.901C466.365 702.895 466.155 705.223 464.471 706.977C463.62 707.804 462.333 708.306 461.152 708.184C459.971 708.084 458.924 707.622 458.047 707.015C456.286 705.78 455.108 704.039 454.247 702.232C453.41 700.406 452.894 698.439 452.854 696.443C452.812 694.494 453.126 692.329 454.618 690.821Z" fill="#000072"/>
<path d="M505.699 723.221C508.907 735.851 511.018 747.027 512.413 757.267C513.788 767.547 519.047 777.089 527.454 783.145C533.091 787.209 539.526 789.5 546.379 789.5C568.293 789.5 586.043 765.952 586.043 736.887C586.043 734.397 585.903 731.946 585.644 729.536C540.722 739.656 515.023 728.54 505.739 723.002C505.719 723.081 505.719 723.141 505.699 723.221Z" fill="#000072"/>
<path d="M547.368 752.319C559.927 752.319 571.333 757.221 579.804 765.205C572.757 779.812 560.428 789.5 546.379 789.5C539.526 789.5 533.092 787.209 527.454 783.145C521.394 778.78 517 772.589 514.487 765.63C523 757.395 534.588 752.319 547.368 752.319Z" fill="#F4457F"/>
<path d="M546.379 795.477C538.503 795.477 530.751 792.889 523.959 787.994C514.489 781.171 508.121 770.26 506.489 758.058C505.017 747.251 502.862 736.332 499.907 724.692C499.687 723.834 499.663 722.939 499.834 722.072C499.865 721.89 499.908 721.682 499.945 721.537C500.407 719.707 501.708 718.202 503.452 717.48C505.193 716.758 507.18 716.901 508.8 717.869C517.163 722.857 541.262 733.411 584.332 723.706C585.992 723.33 587.737 723.684 589.123 724.676C590.509 725.668 591.405 727.205 591.586 728.899C591.873 731.583 592.02 734.27 592.02 736.887C592.02 769.193 571.545 795.477 546.379 795.477ZM514.277 733.562C515.969 741.359 517.307 748.927 518.334 756.46C519.536 765.432 524.132 773.386 530.947 778.296C535.761 781.765 540.952 783.523 546.379 783.523C564.955 783.523 580.067 762.602 580.067 736.887C580.067 736.854 580.067 736.82 580.067 736.787C549.155 742.559 527.44 738.387 514.277 733.562Z" fill="#000072"/>
</g>
<defs>
<clipPath id="clip0_2_2">
<rect width="1080" height="1080" rx="540" fill="white"/>
</clipPath>
</defs>
</svg>
