<svg width="100" height="100" viewBox="0 0 100 100" fill="none" xmlns="http://www.w3.org/2000/svg">
<g clip-path="url(#clip0_2_2)">
<rect width="100" height="100" rx="50" fill="#C1C0FF"/>
<path d="M83.4615 106.436C83.5694 108.061 82.523 108.776 82.523 108.776C82.53 108.87 82.5352 108.959 82.5386 109.041C82.5386 109.053 82.5404 109.067 82.5404 109.079C82.5404 109.452 82.274 109.774 81.9031 109.845C81.5688 109.908 81.2311 109.748 81.0691 109.446C80.27 107.965 79.3559 106.598 78.7221 105.705C78.8144 106.462 78.6385 107.155 78.5236 107.622C78.4331 107.993 78.104 108.242 77.7384 108.242C77.6774 108.242 77.6147 108.235 77.5538 108.221C77.2526 108.149 77.021 107.914 76.9531 107.611C76.8608 107.206 76.6519 106.537 76.1835 105.6C75.3426 103.917 75.6177 101.305 75.6177 101.305C72.9746 100.018 70.9497 98.4042 69.4663 96.9522C74.237 93.4195 75.3565 88.9727 75.3565 88.9727L80.639 98.2006L83.2716 100.612C83.8653 101.157 84.2501 101.895 84.3459 102.696C84.487 103.873 84.4661 105.538 83.4615 106.436Z" fill="#FDC7A3"/>
<path d="M82.4841 101.948C83.0778 102.493 83.4626 103.231 83.5583 104.032C83.641 104.722 83.6663 105.579 83.472 106.352C83.4899 106.358 83.5067 106.366 83.5243 106.373C84.464 105.462 84.4835 103.847 84.3456 102.696C84.2499 101.895 83.8651 101.157 83.2714 100.612L80.6388 98.2006L75.3563 88.9727C75.3563 88.9727 75.1946 89.6126 74.7349 90.5987L79.8515 99.5368L82.4841 101.948Z" fill="white"/>
<g opacity="0.3">
<path d="M78.7405 106.435C78.6482 106.029 78.0883 105.748 77.62 104.811C76.779 103.128 77.0541 100.516 77.0541 100.516C77.0277 100.503 77.0013 100.49 76.975 100.477C73.8632 98.9476 72.8509 94.9828 74.8288 92.1348C75.3381 91.4014 75.7265 90.7157 76.0179 90.1281L75.3565 88.9727C75.3565 88.9727 74.237 93.4195 69.4663 96.9522C70.9497 98.4043 72.9747 100.018 75.6177 101.305C75.6177 101.305 75.3426 103.917 76.1835 105.6C76.6519 106.537 76.8608 107.206 76.9531 107.611C77.021 107.914 77.2526 108.149 77.5538 108.221C77.6147 108.235 77.6774 108.242 77.7384 108.242C78.104 108.242 78.4331 107.993 78.5236 107.622C78.5527 107.504 78.5855 107.371 78.6171 107.227C78.5058 107.119 78.776 106.593 78.7405 106.435Z" fill="#000072"/>
</g>
<path d="M68.4166 124.096C68.2146 121.441 67.5216 113.366 66.1288 107.276C65.7422 105.592 65.3035 104.058 64.8072 102.834C64.614 102.912 64.3702 102.966 64.069 102.989C63.9741 102.996 63.8511 103.005 63.7048 103.016C64.4086 102.904 64.8072 102.834 64.8072 102.834L64.0039 100.241L34.4858 99.7764L34.4927 103.043C34.4927 103.111 34.5066 104.772 34.5884 107.276C34.7295 111.56 35.069 118.319 35.8891 123.809C35.9361 124.128 35.9866 124.443 36.0371 124.753C36.0371 124.753 40.3324 127.016 47.8766 125.392L48.0682 124.41L50.2567 113.19V113.188C50.6415 113.362 51.1047 113.531 51.6496 113.667L55.7395 126.327L55.9432 126.959C55.9432 126.959 64.7655 127.539 68.4793 124.984C68.4792 124.984 68.4583 124.664 68.4166 124.096Z" fill="#79698C"/>
<g opacity="0.3">
<path d="M36.7998 99.8129L38.3215 125.515C36.8259 125.169 36.0372 124.753 36.0372 124.753C35.9867 124.443 35.9362 124.128 35.8892 123.809C35.0691 118.319 34.7296 111.56 34.5886 107.275C34.5067 104.772 34.4928 103.111 34.4928 103.043L34.4858 99.7764L36.7998 99.8129Z" fill="#000072"/>
</g>
<path d="M65.2615 100.758L61.3915 79.3025L41.1952 77.5405C41.1952 77.5405 35.2906 91.6227 36.6759 101.136C37.3462 101.451 38.1227 101.726 38.9794 101.963C41.8348 102.754 45.5834 103.13 49.3181 103.281C50.227 103.318 51.1324 103.34 52.0255 103.353C55.513 103.401 58.7898 103.288 61.0811 103.173C62.5488 103.098 63.6144 103.024 64.0688 102.989C64.3701 102.966 64.6138 102.912 64.8071 102.834C66.0642 102.334 65.3225 100.871 65.2615 100.758Z" fill="#22B5FF"/>
<g opacity="0.3">
<path d="M65.2616 100.758L61.3916 79.3026L58.4113 79.0426C58.5686 79.7218 58.8875 81.0986 59.535 83.8945C60.8118 89.408 54.4857 95.2812 54.4857 95.2812C59.4769 95.8729 61.4032 93.4861 61.4032 93.4861C61.4032 93.4861 61.3341 100.493 49.9188 100.241C38.5036 99.9886 36.3201 91.9616 39.2219 93.4861C42.1238 95.0106 44.9676 94.3412 44.9676 94.3412C37.0745 88.3633 43.5493 78.3506 43.5493 78.3506C43.5493 78.3506 44.6774 82.4145 51.1725 82.5306C54.4238 82.5887 56.8297 80.1546 57.7938 78.9887L41.1952 77.5405C41.1952 77.5405 35.2906 91.6227 36.6759 101.136C37.3462 101.451 38.1227 101.726 38.9794 101.963C41.8348 102.754 45.5834 103.13 49.3181 103.281C50.227 103.318 51.1324 103.34 52.0255 103.353C55.513 103.401 58.7898 103.288 61.0811 103.173C62.5488 103.098 63.6144 103.024 64.0688 102.989C64.3701 102.966 64.6138 102.912 64.8071 102.834C66.0642 102.334 65.3225 100.872 65.2616 100.758Z" fill="#000072"/>
</g>
<path d="M55.3468 78.8643C55.5003 77.5022 52.9653 76.0982 49.6846 75.7285C46.4039 75.3587 43.62 76.1632 43.4665 77.5253C43.3129 78.8875 45.848 80.2915 49.1286 80.6612C52.4093 81.031 55.1932 80.2265 55.3468 78.8643Z" fill="#FDC7A3"/>
<path d="M66.6562 95.2805C66.2244 94.6886 65.8275 94.0896 65.4653 93.4854C61.8334 87.4594 61.4434 81.0782 61.4033 79.614C61.7951 79.56 62.1973 79.5409 62.5803 79.5426C63.8618 79.5496 65.1154 79.9274 66.1949 80.6169C68.9371 82.3667 71.8535 84.8373 71.8535 84.8373C71.8535 84.8373 72.5708 84.4456 73.464 84.8373C74.3554 85.229 74.1169 86.2076 74.1169 86.2076C74.1169 86.2076 74.7907 85.7305 75.3566 86.4043C75.9225 87.0781 75.3566 88.9725 75.3566 88.9725C75.3566 88.9725 74.237 93.4192 69.4664 96.952C69.4664 96.952 68.6377 97.4969 67.9064 96.8475C67.4589 96.3356 67.0428 95.8116 66.6562 95.2805Z" fill="#22B5FF"/>
<g opacity="0.6">
<path d="M75.3566 86.4044C74.7907 85.7305 74.1169 86.2076 74.1169 86.2076C74.1169 86.2076 74.3554 85.2291 73.464 84.8373C72.5708 84.4456 71.8535 84.8373 71.8535 84.8373C71.8535 84.8373 68.9371 82.3667 66.1949 80.6169C65.1154 79.9274 63.8618 79.5496 62.5803 79.5426C62.1972 79.5409 61.7951 79.56 61.4033 79.614C61.409 79.8239 61.4225 80.1378 61.4512 80.5343C61.5672 80.5307 61.6826 80.5287 61.796 80.5292C63.0775 80.5362 64.3311 80.914 65.4106 81.6035C68.1528 83.3533 72.3178 86.5339 72.3178 86.5339L72.6797 85.8239C73.5712 86.2157 73.3327 87.1942 73.3327 87.1942C73.3327 87.1942 74.0065 86.7171 74.5724 87.3909C75.1382 88.0648 74.5724 89.9591 74.5724 89.9591C74.5724 89.9591 74.0763 91.9235 72.3445 94.2778C74.7159 91.5123 75.3567 88.9725 75.3567 88.9725C75.3567 88.9725 75.9225 87.0782 75.3566 86.4044Z" fill="white"/>
</g>
<g opacity="0.3">
<path d="M70.1231 95.2361C69.6757 94.7242 69.2595 94.2001 68.873 93.669C68.4412 93.077 68.0443 92.4781 67.6821 91.8739C64.8583 87.1887 63.9945 82.2899 63.731 79.6532C63.3524 79.5848 62.968 79.5447 62.5803 79.5426C62.1972 79.5409 61.7951 79.56 61.4033 79.614C61.4434 81.0783 61.8334 87.4595 65.4653 93.4855C65.8275 94.0897 66.2245 94.6886 66.6562 95.2806C67.0428 95.8116 67.4589 96.3357 67.9063 96.8476C68.6376 97.497 69.4664 96.9521 69.4664 96.9521C70.0883 96.4915 70.6468 96.0154 71.1502 95.5357C70.8552 95.5843 70.4781 95.5513 70.1231 95.2361Z" fill="#000072"/>
</g>
<path d="M67.9064 96.8477C68.5767 97.619 69.3167 98.3642 70.1332 99.0711C70.2203 102.118 67.9568 103.279 67.9568 103.279C66.9731 102.534 66.0782 101.684 65.2616 100.758C65.2599 100.753 65.2581 100.751 65.2581 100.751C60.2176 95.0334 58.2171 86.4567 57.4875 82.0203C57.1933 80.2444 57.1045 79.1318 57.1045 79.1318L61.3981 79.3025C61.3981 79.3025 61.3963 79.4104 61.4033 79.6141C61.4433 81.0784 61.8333 87.4596 65.4653 93.4856C65.8274 94.0897 66.2244 94.6887 66.6562 95.2807C67.0428 95.8117 67.4589 96.3358 67.9064 96.8477Z" fill="#F92828"/>
<path d="M69.1742 98.391C69.4781 98.7407 69.7984 99.0841 70.1315 99.4219C70.1351 99.3075 70.1366 99.1913 70.1331 99.0711C69.3979 98.4346 68.7279 97.7659 68.1118 97.0762C68.4449 97.5209 68.7978 97.9604 69.1742 98.391Z" fill="#000072"/>
<g opacity="0.3">
<path d="M58.7555 83.5637C58.7525 83.5459 58.7496 83.5282 58.7467 83.5106C58.5053 82.044 59.6739 80.7268 61.159 80.7859L61.4717 80.7983C61.4284 80.2745 61.4103 79.8686 61.4033 79.6141C61.3963 79.4104 61.3981 79.3025 61.3981 79.3025L57.1045 79.1318C57.1045 79.1318 57.1933 80.2444 57.4875 82.0204C58.2171 86.4567 60.2176 95.0335 65.2581 100.751C65.2581 100.751 65.2599 100.753 65.2616 100.758C65.3152 100.819 65.3721 100.877 65.4264 100.937C61.1897 95.2899 59.4293 87.6614 58.7555 83.5637Z" fill="#000072"/>
</g>
<g opacity="0.6">
<path d="M67.906 96.848C67.4585 96.3361 67.0424 95.812 66.6559 95.281C66.2241 94.689 65.8271 94.0901 65.465 93.4859C61.833 87.4599 61.443 81.0787 61.403 79.6144C61.396 79.4107 61.3977 79.3027 61.3977 79.3027L60.7592 80.4138C60.6617 80.5834 60.6127 80.7762 60.6192 80.9716C60.6193 80.9736 60.6194 80.9757 60.6194 80.9777C60.6595 82.442 61.0495 88.8231 64.6815 94.8492C65.0436 95.4533 65.4406 96.0523 65.8724 96.6443C66.0772 96.9257 66.2909 97.2049 66.5126 97.4816C67.3676 97.8412 68.3383 97.972 69.1567 98.1693C68.7161 97.7389 68.2976 97.2986 67.906 96.848Z" fill="white"/>
</g>
<path d="M34.494 92.8659H34.4958C36.66 89.7005 37.7621 80.9044 38.0494 78.2857C38.1016 77.8122 38.126 77.5405 38.126 77.5405C39.8671 76.2364 42.3499 77.5405 42.3499 77.5405C42.3499 77.5405 42.585 78.7471 42.5937 80.8539C42.6146 84.9542 41.7789 92.4688 36.6756 101.136C36.2595 101.843 35.8155 102.559 35.3402 103.279C35.3402 103.279 35.0112 103.21 34.4923 103.043C34.4923 103.041 34.4923 103.041 34.4923 103.041C33.1238 102.602 30.4286 101.488 28.9556 99.2156C28.9556 99.2156 31.6247 94.687 32.4082 92.7718L34.494 92.8659Z" fill="#F92828"/>
<g opacity="0.3">
<path d="M42.3504 77.5406C42.3504 77.5406 40.1804 76.4013 38.4752 77.3185C39.9191 77.3591 41.2091 78.5627 41.2441 80.1501C41.3134 83.2935 40.8205 89.3965 37.1126 97.0981C35.6801 100.073 31.7764 101.073 29.0679 99.3749C30.5614 101.538 33.1572 102.613 34.4928 103.041C34.4928 103.041 34.4928 103.041 34.4928 103.043C35.0116 103.21 35.3407 103.28 35.3407 103.28C35.816 102.559 36.26 101.843 36.6761 101.136C41.7793 92.469 42.6151 84.9543 42.5942 80.854C42.5854 78.7472 42.3504 77.5406 42.3504 77.5406Z" fill="#000072"/>
</g>
<path d="M32.4101 78.6133L32.3892 78.6237C32.3666 78.5715 32.3439 78.5192 32.3196 78.4687C32.1472 78.1066 31.7137 77.9412 31.355 78.1222C31.1165 78.2441 30.8727 78.4409 30.7317 78.7594L30.723 78.7629C30.488 78.3851 30.0457 78.171 29.6017 78.2632C29.1699 78.352 28.7103 78.6689 28.5118 79.5534C28.7503 79.623 28.9993 79.6857 29.2605 79.7414C29.2605 79.7414 31.3934 85.0118 28.0417 90.888C28.0417 90.888 27.6308 90.8793 26.9796 90.747V90.7487C26.7759 91.9431 27.1746 92.5438 27.6081 92.8433C28.0225 93.1323 28.5797 93.0749 28.9453 92.7231C28.9697 92.7005 28.9941 92.6761 29.0167 92.6535C29.022 92.6639 29.0254 92.6761 29.0306 92.6866C29.3806 93.5049 30.4949 93.6146 31.0294 92.9007C31.0747 92.8398 31.1182 92.7788 31.1618 92.7161H31.1635L32.4084 92.7719L34.4943 92.8659H34.496C36.6602 89.7005 37.7623 80.9044 38.0496 78.2858C36.7524 77.6974 32.4101 78.6133 32.4101 78.6133Z" fill="#22B5FF"/>
<path d="M29.2605 79.7413C28.9993 79.6856 28.7503 79.6229 28.5118 79.5533C25.2994 78.6236 24.0806 76.5673 24.0806 76.5673C24.0806 76.5673 24.3523 74.8018 24.2983 73.6544C24.2739 73.139 23.8404 72.7368 23.325 72.7368H22.9489L22.0784 66.6777C22.0174 66.2494 21.5369 66.0231 21.1678 66.2494C20.8752 66.4288 20.635 66.6725 20.4609 66.9563C20.2885 67.2401 20.184 67.5675 20.1614 67.9087C20.1161 68.6017 20.1004 69.528 20.2206 70.4107C20.2467 70.597 20.1266 70.7729 19.9455 70.8199C19.9142 70.8286 19.8828 70.8321 19.8532 70.8321C19.7278 70.8321 19.6077 70.7694 19.538 70.6614L17.3408 67.2697C17.1075 66.9093 16.6286 66.7996 16.2595 67.0225C16.0193 67.1687 15.8765 67.4282 15.8765 67.7033C15.8765 67.7486 15.88 67.7956 15.8887 67.8408C16.0053 68.492 16.2769 69.6498 16.8776 70.8652C15.7668 71.4955 15.7668 72.2145 15.7668 72.2145C15.7668 72.2145 15.779 72.2389 15.8034 72.2842C15.3054 72.5471 15.0303 72.998 14.898 73.2818C14.8248 73.4386 14.8231 73.6196 14.8928 73.7781C15.2897 74.6852 16.0576 75.0822 16.4493 74.922C16.4493 74.922 16.2317 76.1181 16.8115 77.0897C17.393 78.0612 18.335 77.915 18.335 77.915C18.6779 88.0169 24.5316 90.2542 26.9796 90.747C27.6308 90.8793 28.0417 90.888 28.0417 90.888C31.3934 85.0117 29.2605 79.7413 29.2605 79.7413Z" fill="#FDC7A3"/>
<g opacity="0.3">
<path d="M29.2603 79.7413C28.9991 79.6856 28.7502 79.6229 28.5116 79.5533C25.2992 78.6236 24.0805 76.5673 24.0805 76.5673C24.0805 76.5673 24.3521 74.8019 24.2981 73.6545C24.2739 73.1387 23.8412 72.7368 23.3248 72.7368H22.9487L22.0782 66.6777C22.0172 66.2494 21.5367 66.0231 21.1676 66.2494C20.9367 66.391 20.74 66.5737 20.5811 66.7835C20.6167 66.8466 20.642 66.9176 20.6531 66.9955L21.5237 73.0546H21.8997C22.4161 73.0546 22.8488 73.4564 22.873 73.9723C22.927 75.1196 22.6554 76.885 22.6554 76.885C22.6554 76.885 23.2229 77.711 24.2478 78.524C27.8195 81.3572 29.0634 86.278 27.0568 90.3716C26.9991 90.4893 26.9393 90.6073 26.8773 90.7256C26.9119 90.733 26.9461 90.7402 26.9795 90.7469C27.6306 90.8792 28.0415 90.8879 28.0415 90.8879C31.3932 85.0117 29.2603 79.7413 29.2603 79.7413Z" fill="#000072"/>
</g>
<path d="M15.9156 67.5875L18.1129 70.9792C18.1826 71.0871 18.3027 71.1498 18.4281 71.1498C18.4577 71.1498 18.489 71.1464 18.5204 71.1376C18.7014 71.0906 18.8216 70.9148 18.7955 70.7285C18.7338 70.2758 18.7083 69.812 18.7038 69.3737L17.3407 67.2698C17.1074 66.9094 16.6286 66.7997 16.2595 67.0225C16.0624 67.1425 15.9325 67.339 15.8916 67.5574C15.8992 67.5679 15.9085 67.5765 15.9156 67.5875Z" fill="#FDC7A3"/>
<path d="M67.9504 103.802C67.8385 103.802 67.7275 103.766 67.6347 103.695C62.6204 99.8919 59.8806 93.4171 58.4651 88.6552C56.9402 83.5249 56.5808 79.2165 56.5774 79.1736C56.5653 79.0247 56.6177 78.8777 56.7213 78.7699C56.8248 78.6622 56.9695 78.6039 57.1187 78.6098L61.4122 78.7804C61.6942 78.7916 61.9163 79.0249 61.9139 79.307C61.9129 79.4257 61.9135 91.2607 70.4688 98.6763C70.5794 98.7721 70.6446 98.9098 70.6489 99.0561C70.7443 102.394 68.2932 103.69 68.1888 103.744C68.1137 103.783 68.0318 103.802 67.9504 103.802ZM57.6799 79.6776C58.026 82.6725 60.0121 96.314 67.9806 102.641C68.5004 102.263 69.5816 101.246 69.6063 99.3095C65.0589 95.2829 62.9262 90.1042 61.9368 86.447C61.0979 83.3463 60.9173 80.8388 60.8791 79.8048L57.6799 79.6776Z" fill="#000072"/>
<path d="M72.9005 67.2699C72.7942 67.2089 72.6863 67.1549 72.5766 67.1062L70.8524 69.8853C71.0124 69.533 71.0845 69.3279 71.0845 69.3279L77.0226 49.376C53.652 34.1838 33.8451 40.4514 33.8451 40.4514L29.6758 60.6357C29.4541 60.5931 29.2268 60.5701 28.993 60.5701C26.9663 60.5701 25.3228 62.2119 25.3228 64.2403C25.3228 66.2669 26.9664 67.9106 28.993 67.9106C29.5673 67.9106 30.1121 67.7784 30.596 67.5417C32.1387 72.0173 36.3352 76.8343 48.7407 79.193C59.9728 81.3298 65.9458 76.7826 68.8123 73.1735L68.8088 73.1792C68.9725 73.3133 69.1501 73.4351 69.3399 73.5431C71.1019 74.5442 73.3288 73.9505 74.3107 72.2181C75.2962 70.484 74.6624 68.271 72.9005 67.2699Z" fill="#FDC7A3"/>
<g opacity="0.3">
<path d="M73.9635 69.925C72.9816 71.6574 70.8342 72.2949 69.0722 71.2937C68.8824 71.1858 61.8141 79.4377 48.3935 76.8999C35.9857 74.5537 31.7915 69.7242 30.2488 65.2486C29.765 65.4852 29.2202 65.6175 28.6458 65.6175C26.9642 65.6175 25.5497 64.4845 25.1157 62.9414C25.0266 63.2581 24.9756 63.5909 24.9756 63.9362C24.9756 65.9628 26.6192 67.6065 28.6458 67.6065C29.2202 67.6065 29.765 67.4742 30.2488 67.2376C31.7915 71.7132 35.9881 76.5302 48.3935 78.8889C59.6256 81.0257 65.5986 76.4785 68.4652 72.8694L68.4617 72.8751C68.6253 73.0092 68.8029 73.131 68.9927 73.2389C70.7547 74.2401 72.9816 73.6464 73.9636 71.914C74.4583 71.0435 74.5444 70.0524 74.2852 69.1544C74.209 69.4177 74.1048 69.6765 73.9635 69.925Z" fill="#000072"/>
</g>
<path d="M82.8662 43.7037C82.8662 43.7037 81.038 44.0519 79.8767 41.2365C78.7154 38.4229 76.6853 37.7839 76.6853 37.7839H79.5285C76.7862 36.492 76.8002 33.3441 71.6935 33.6052C71.6935 33.6052 73.3685 32.3203 75.1757 32.6041C75.1757 32.6041 71.1415 29.484 64.9606 31.1381C64.9606 31.1381 67.0795 29.6877 66.9925 26.7278C66.9925 26.7278 63.075 28.1207 61.1302 27.2797C61.1302 27.2797 61.6525 25.7702 60.2317 24.4644C60.2317 24.4644 60.5068 27.076 52.0624 26.6843C43.618 26.2925 39.0041 28.1207 36.9583 32.3429C36.9583 32.3429 30.1679 30.6018 26.5986 39.7862L29.4715 38.5239C29.4715 38.5239 29.3409 39.8732 29.8632 40.5906C25.3503 55.5729 29.5585 61.2019 29.5585 61.2019C32.5184 54.4986 40.4405 47.4471 40.4405 47.4471L41.7463 41.3967C41.7463 41.3967 53.619 41.3741 65.7807 44.8842C65.7807 44.8842 65.7441 48.4343 65.0477 50.5811C65.0477 50.5811 71.7806 59.2866 71.0841 69.3277C71.0841 69.3277 78.8095 58.874 78.5152 50.2295C79.0462 50.5481 79.5686 50.8771 80.0804 51.22C80.0804 51.22 80.3991 48.2741 78.8756 46.1412C78.8756 46.1412 82.1402 45.2411 82.8662 43.7037Z" fill="#716C82"/>
<path d="M82.8662 43.7037C82.8662 43.7037 81.038 44.0519 79.8767 41.2365C78.7154 38.4229 76.6853 37.7839 76.6853 37.7839H79.5285C76.7862 36.492 76.8002 33.3441 71.6935 33.6052C71.6935 33.6052 73.3685 32.3203 75.1757 32.6041C75.1757 32.6041 71.1415 29.484 64.9606 31.1381C64.9606 31.1381 67.0795 29.6877 66.9925 26.7278C66.9925 26.7278 63.075 28.1207 61.1302 27.2797C61.1302 27.2797 61.6525 25.7702 60.2317 24.4644C60.2317 24.4644 60.5068 27.076 52.0624 26.6843C43.618 26.2925 39.0041 28.1207 36.9583 32.3429C36.9583 32.3429 30.1679 30.6018 26.5986 39.7862L29.4715 38.5239C29.4715 38.5239 29.3409 39.8732 29.8632 40.5906C25.3503 55.5729 29.5585 61.2019 29.5585 61.2019C32.5184 54.4986 40.4405 47.4471 40.4405 47.4471L41.7463 41.3967C41.7463 41.3967 53.619 41.3741 65.7807 44.8842C65.7807 44.8842 65.7441 48.4343 65.0477 50.5811C65.0477 50.5811 71.7806 59.2866 71.0841 69.3277C71.0841 69.3277 78.8095 58.874 78.5152 50.2295C79.0462 50.5481 79.5686 50.8771 80.0804 51.22C80.0804 51.22 80.3991 48.2741 78.8756 46.1412C78.8756 46.1412 82.1402 45.2411 82.8662 43.7037Z" fill="#635D7C"/>
<g opacity="0.6">
<path d="M59.1758 25.8012C60.0565 26.9748 59.6506 28.1503 59.6506 28.1503C61.5954 28.9913 65.5129 27.5984 65.5129 27.5984C65.5486 28.8118 65.2136 29.7716 64.8057 30.4817C64.4943 31.0239 64.9244 31.6846 65.5456 31.613C69.0299 31.2117 71.615 32.2739 72.8624 32.9545C73.4953 32.6881 74.3196 32.4696 75.1761 32.6041C75.1761 32.6041 71.142 29.484 64.961 31.1381C64.961 31.1381 67.0799 29.6877 66.9929 26.7278C66.9929 26.7278 63.0754 28.1207 61.1306 27.2797C61.1306 27.2797 61.6529 25.7702 60.2321 24.4644C60.2321 24.4644 60.3063 25.1764 59.1758 25.8012Z" fill="white"/>
</g>
<g opacity="0.6">
<path d="M50.5825 27.5548C55.8566 27.7995 57.7293 26.8725 58.3921 26.1421C57.2067 26.5502 55.26 26.8326 52.0625 26.6842C46.2963 26.4167 42.3172 27.1852 39.7212 29.0433C42.2736 27.8198 45.8181 27.3338 50.5825 27.5548Z" fill="white"/>
</g>
<g opacity="0.6">
<path d="M72.0437 33.5943C70.9847 33.8862 70.2139 34.4759 70.2139 34.4759C74.3796 34.2628 75.1383 36.318 76.7648 37.784H79.5288C76.8512 36.5226 76.7987 33.4933 72.0437 33.5943Z" fill="white"/>
</g>
<path d="M80.0807 51.7425C79.9788 51.7425 79.8775 51.7127 79.79 51.6541C79.3087 51.3317 78.7895 51.0031 78.2468 50.6775C74.729 48.5655 70.4864 46.7853 65.6362 45.3861C53.7366 41.9517 41.9565 41.9191 41.7495 41.9191C41.7478 41.9191 41.7473 41.9191 41.7466 41.9191C41.7273 41.9191 41.7078 41.918 41.6884 41.9158L36.6393 41.35C36.4182 41.3252 36.2372 41.1632 36.188 40.9463L36.009 40.1557L35.7141 40.8063C35.6216 41.0104 35.4113 41.1328 35.1864 41.1104L31.7041 40.7622C31.5575 40.7475 31.4237 40.6715 31.336 40.5529C31.2498 40.4361 31.216 40.2886 31.2428 40.1461L30.1923 40.9966C30.0809 41.0867 29.9382 41.1269 29.7956 41.1086C29.6536 41.09 29.5257 41.0139 29.4414 40.8981C29.1086 40.4412 28.9875 39.8236 28.949 39.3242L26.8091 40.2645C26.6156 40.3495 26.39 40.3094 26.2372 40.1631C26.0848 40.0167 26.0356 39.7927 26.1126 39.5959C28.0528 34.6402 30.9123 32.7888 32.9695 32.1082C34.6105 31.5654 36.0025 31.658 36.6706 31.7569C38.9377 27.5023 43.7168 25.7733 52.0869 26.1626C57.1364 26.3971 58.8386 25.5374 59.4035 25.0042C59.6665 24.7558 59.7044 24.558 59.7099 24.5055C59.6686 24.2885 59.7741 24.0942 59.9677 23.9832C60.1646 23.8701 60.4174 23.9256 60.5856 24.0798C61.714 25.1171 61.7981 26.2736 61.7293 26.9272C63.2648 27.288 65.8678 26.5729 66.8179 26.2357C66.9752 26.1799 67.1499 26.2024 67.2877 26.2969C67.4254 26.3912 67.51 26.5456 67.5149 26.7125C67.5614 28.2953 67.0356 29.4824 66.4793 30.287C71.8935 29.4679 75.3379 32.069 75.4956 32.1909C75.6841 32.3368 75.7501 32.5919 75.6556 32.8108C75.5614 33.03 75.3311 33.1575 75.095 33.1201C74.6419 33.049 74.1939 33.0933 73.7859 33.1923C75.8232 33.5525 76.8101 34.6334 77.7054 35.6135C78.3109 36.2762 78.8825 36.902 79.7515 37.3114C79.9727 37.4156 80.0919 37.6593 80.0385 37.8979C79.9853 38.1365 79.7733 38.3063 79.5289 38.3063H78.4816C79.1216 38.8797 79.8278 39.748 80.36 41.0372C81.3279 43.3843 82.7183 43.1984 82.7771 43.189C82.9697 43.152 83.1633 43.2277 83.2837 43.383C83.4039 43.5384 83.4227 43.7489 83.3388 43.9266C82.7252 45.226 80.7435 46.0662 79.6769 46.4361C80.871 48.6067 80.6127 51.1588 80.6 51.2762C80.5804 51.4579 80.4671 51.6162 80.3015 51.6934C80.2313 51.7263 80.1558 51.7425 80.0807 51.7425ZM41.7764 40.8745C42.4612 40.8773 54.1337 40.9789 65.9258 44.3824C70.8629 45.8066 75.1891 47.6232 78.7844 49.7817C79.0558 49.9445 79.3217 50.1082 79.5804 50.2716C79.5497 49.2945 79.3473 47.6996 78.4509 46.4448C78.3518 46.3062 78.3268 46.1276 78.3838 45.9669C78.4406 45.8062 78.5725 45.6832 78.7369 45.6378C79.4078 45.4521 81 44.8816 81.8815 44.1128C81.1253 43.8738 80.1254 43.2085 79.3943 41.4357C78.3504 38.9066 76.5997 38.3055 76.5256 38.2812C76.282 38.201 76.1309 37.9552 76.1716 37.7018C76.2122 37.4485 76.4292 37.2616 76.6857 37.2616H77.8503C77.5187 36.9579 77.2242 36.6355 76.9342 36.3181C75.831 35.1105 74.7889 33.9703 71.7205 34.1269C71.4892 34.1378 71.2827 34.0002 71.2037 33.7857C71.1247 33.571 71.1946 33.3299 71.376 33.1907C71.4268 33.1517 72.2607 32.5219 73.4122 32.2113C71.7732 31.4752 68.8356 30.642 65.096 31.6426C64.8505 31.7084 64.5928 31.5874 64.4865 31.3561C64.3801 31.1249 64.4559 30.8507 64.666 30.707C64.734 30.6595 66.2224 29.5971 66.4453 27.4496C65.1702 27.8227 62.5169 28.448 60.9232 27.7592C60.6724 27.6507 60.5475 27.3672 60.637 27.1089C60.6487 27.0728 60.8863 26.3092 60.388 25.4682C60.3407 25.5304 60.2873 25.5936 60.2271 25.6573C59.0708 26.8836 56.3162 27.4045 52.0385 27.2061C43.9162 26.8295 39.409 28.4837 37.4287 32.5707C37.3195 32.7956 37.0667 32.9116 36.825 32.8479C36.5813 32.785 31.058 31.4616 27.6026 38.7747L29.2617 38.0457C29.4312 37.9713 29.6277 37.9921 29.7781 38.1008C29.9282 38.2095 30.0095 38.3897 29.9917 38.5741C29.9722 38.7809 29.9634 39.302 30.0678 39.7532L31.7112 38.4226C31.8825 38.284 32.1218 38.2678 32.3104 38.3816C32.4987 38.4957 32.5954 38.7155 32.5522 38.9314L32.3818 39.78L34.9174 40.0336L35.6994 38.3082C35.7921 38.1039 36.0049 37.9817 36.228 38.0043C36.4513 38.027 36.6351 38.1897 36.6846 38.4085L37.1249 40.3532L41.7764 40.8745Z" fill="#000072"/>
<path d="M71.0841 69.85C71.0237 69.85 70.9629 69.8396 70.9037 69.8178C70.6859 69.7376 70.5472 69.5232 70.5633 69.2916C71.2372 59.5733 64.7005 50.9862 64.6344 50.9006C64.5289 50.764 64.4976 50.584 64.551 50.42C65.2142 48.3753 65.2581 44.9134 65.2585 44.8788C65.2602 44.7156 65.3382 44.5626 65.469 44.4652C65.6001 44.3676 65.7688 44.337 65.9256 44.3824C70.8627 45.8066 75.1889 47.6232 78.7842 49.7817C78.9359 49.8729 79.0314 50.0347 79.0373 50.2117C79.3343 58.9378 71.8241 69.2053 71.5044 69.6381C71.4037 69.7742 71.2464 69.85 71.0841 69.85ZM65.6248 50.4802C66.6178 51.8334 71.5532 58.9845 71.6561 67.5647C73.6794 64.4663 78.0841 56.9673 77.9999 50.5306C74.6901 48.5767 70.7528 46.9119 66.2835 45.5762C66.2386 46.6746 66.0928 48.8594 65.6248 50.4802Z" fill="#000072"/>
<path d="M29.5586 61.7242C29.395 61.7242 29.2396 61.6474 29.1402 61.5145C28.962 61.276 24.8264 55.5013 29.3632 40.4398C29.3933 40.3394 29.4532 40.2504 29.5346 40.1845L31.711 38.4225C31.8823 38.2838 32.1216 38.2677 32.3102 38.3815C32.4985 38.4955 32.5952 38.7153 32.5519 38.9313L32.3816 39.7799L34.9172 40.0335L35.6992 38.3081C35.7919 38.1038 36.0047 37.9816 36.2278 38.0041C36.4511 38.0268 36.6349 38.1896 36.6844 38.4084L37.1247 40.353L41.8045 40.8775C41.9514 40.894 42.0843 40.9718 42.1704 41.0917C42.2567 41.2116 42.2881 41.3624 42.257 41.5068L40.9512 47.5571C40.9278 47.6654 40.8706 47.7634 40.788 47.8371C40.7095 47.9069 32.9154 54.8926 30.0365 61.4128C29.9615 61.5826 29.802 61.6999 29.6177 61.7208C29.5978 61.723 29.5782 61.7242 29.5586 61.7242ZM30.3174 40.895C26.9598 52.1449 28.6282 58.0035 29.5293 60.0426C32.565 54.0145 38.9467 48.0953 39.9657 47.1716L41.1138 41.8513L36.6391 41.3498C36.418 41.325 36.2369 41.163 36.1878 40.9461L36.0087 40.1555L35.7139 40.8061C35.6214 41.0102 35.4111 41.1326 35.1861 41.1102L31.7039 40.762C31.5573 40.7473 31.4235 40.6713 31.3358 40.5527C31.2495 40.4359 31.2158 40.2885 31.2426 40.1459L30.3174 40.895Z" fill="#000072"/>
<path d="M54.2028 80.2579C52.5108 80.2579 50.6612 80.0901 48.6427 79.7061C30.1968 76.199 29.5065 67.2765 29.094 61.9455C29.0753 61.7048 29.0572 61.4716 29.038 61.2465C29.0306 61.1591 29.0453 61.0713 29.0807 60.9911C31.881 54.6491 38.8932 48.1441 39.9655 47.1719L41.2356 41.2867C41.2874 41.0466 41.4995 40.875 41.7452 40.8745C41.7457 40.8745 41.7466 40.8745 41.7476 40.8745C41.9698 40.8745 53.8852 40.9075 65.9255 44.3825C66.1509 44.4476 66.3054 44.655 66.303 44.8898C66.3015 45.0322 66.2608 48.2772 65.6247 50.4803C66.6864 51.9271 72.2545 60.0015 71.6051 69.3639C71.6019 69.4106 71.5924 69.4567 71.5769 69.5007C71.5276 69.6413 70.33 72.9753 66.8894 75.9199C64.4081 78.0438 60.3464 80.2579 54.2028 80.2579ZM30.0902 61.2923C30.1055 61.478 30.1204 61.669 30.1355 61.8648C30.3394 64.5015 30.5934 67.7828 32.974 70.901C35.8362 74.6499 41.0253 77.1944 48.8378 78.6799C55.9922 80.0409 61.8239 78.8567 66.171 75.1597C69.1685 72.6107 70.3895 69.6763 70.5682 69.2161C71.2026 59.5293 64.7002 50.9861 64.6343 50.9007C64.5288 50.7641 64.4976 50.5842 64.5507 50.4201C65.0809 48.7862 65.2155 46.2475 65.2482 45.2755C54.7039 42.2963 44.3515 41.9614 42.1669 41.9239L40.9511 47.5574C40.9277 47.6657 40.8704 47.7637 40.7878 47.8374C40.7098 47.9068 33.0112 54.8068 30.0902 61.2923Z" fill="#000072"/>
<path d="M39.9107 55.0302C39.9867 54.6449 40.1426 54.2798 40.3413 53.9341C40.5467 53.5927 40.8005 53.2685 41.1249 52.9988C41.4474 52.7294 41.8429 52.5199 42.2773 52.4148C42.7106 52.3079 43.1763 52.3083 43.6044 52.4086C44.0321 52.5093 44.434 52.6775 44.7929 52.8922C45.1487 53.1108 45.4806 53.3555 45.7777 53.6281C46.3764 54.17 46.8805 54.7814 47.3212 55.4245C47.4858 55.6646 47.4245 55.9926 47.1845 56.1571C46.956 56.3136 46.648 56.2657 46.4769 56.0538L46.4706 56.0459C46.0129 55.4757 45.5484 54.9192 45.0372 54.435C44.5301 53.9505 43.9654 53.5406 43.3625 53.3503C43.0618 53.2574 42.7535 53.2185 42.4461 53.2626C42.1389 53.3049 41.8364 53.4233 41.5426 53.5885C40.9544 53.9269 40.4233 54.4495 39.9232 55.0357C39.9208 55.0388 39.9164 55.0394 39.9134 55.0371C39.9112 55.0355 39.9104 55.0326 39.9107 55.0302Z" fill="#000072"/>
<path d="M62.0877 57.56C61.959 57.2282 61.8238 56.9141 61.6587 56.6292C61.5007 56.3427 61.3118 56.0874 61.099 55.895C60.8864 55.7015 60.651 55.5799 60.3961 55.5268C60.1405 55.473 59.8608 55.5018 59.5773 55.5707C59.2934 55.639 59.0071 55.7524 58.7265 55.8968C58.656 55.9324 58.5851 55.9648 58.5152 56.0024L58.3069 56.1227C58.1667 56.1982 58.0327 56.2927 57.8947 56.3781C57.3484 56.7337 56.8225 57.1425 56.2911 57.5526L56.2838 57.5582C56.0534 57.7359 55.7225 57.6933 55.5447 57.4629C55.3763 57.2447 55.4073 56.935 55.6065 56.7519C56.1293 56.2743 56.6923 55.8325 57.3116 55.451C57.934 55.0783 58.6075 54.7388 59.3973 54.6152C59.7874 54.5523 60.2161 54.5603 60.6262 54.6934C61.0353 54.8241 61.4053 55.0889 61.6421 55.4182C61.7607 55.5831 61.8556 55.757 61.9306 55.9338C62.0019 56.1124 62.0551 56.2937 62.0906 56.4751C62.1582 56.8389 62.168 57.205 62.1013 57.5592C62.1005 57.563 62.0969 57.5655 62.0931 57.5648C62.0906 57.5643 62.0885 57.5622 62.0877 57.56Z" fill="#000072"/>
<path d="M28.9929 68.4326C26.681 68.4326 24.8003 66.5517 24.8003 64.24C24.8003 61.9282 26.681 60.0474 28.9929 60.0474C29.3089 60.0474 29.6228 60.083 29.9255 60.1531C30.2066 60.2182 30.3816 60.4988 30.3165 60.7798C30.2516 61.061 29.9705 61.2355 29.6899 61.1708C29.4642 61.1185 29.2297 61.0921 28.9929 61.0921C27.2571 61.0921 25.845 62.5042 25.845 64.2399C25.845 65.9757 27.2571 67.3878 28.9929 67.3878C29.4761 67.3878 29.9384 67.2815 30.367 67.0719C30.6257 66.9451 30.9389 67.0522 31.0659 67.3116C31.1926 67.5707 31.0852 67.8835 30.8262 68.0103C30.2532 68.2905 29.6365 68.4326 28.9929 68.4326Z" fill="#000072"/>
<path d="M71.1668 74.5531C70.4447 74.5531 69.7296 74.3652 69.0816 73.9969C68.8678 73.8755 68.6647 73.7362 68.4776 73.583C68.2544 73.4002 68.2215 73.0711 68.4043 72.8479C68.5869 72.6249 68.9158 72.5918 69.1395 72.7748C69.281 72.8906 69.4353 72.9963 69.5977 73.0887C70.339 73.5097 71.1948 73.618 72.0093 73.3935C72.7999 73.1754 73.4558 72.6664 73.8561 71.9602C74.263 71.2443 74.3613 70.4106 74.1335 69.6122C73.9047 68.8108 73.3751 68.1402 72.6422 67.7237C72.5528 67.6725 72.4625 67.6268 72.3643 67.5832C72.1006 67.4661 71.982 67.1575 72.0991 66.8938C72.2163 66.6302 72.5245 66.5116 72.7885 66.6286C72.9195 66.6868 73.0411 66.7483 73.1599 66.8165C74.1306 67.3679 74.8337 68.2593 75.138 69.3255C75.4435 70.3959 75.3109 71.5147 74.7647 72.4759C74.2269 73.4245 73.347 74.1083 72.2871 74.4006C71.9174 74.5026 71.5412 74.5531 71.1668 74.5531Z" fill="#000072"/>
<path d="M49.7248 81.1904C45.4412 81.1904 43.1632 78.2862 43.1339 78.2478C42.9589 78.0184 43.0031 77.6906 43.2325 77.5157C43.4616 77.3411 43.7888 77.3847 43.9639 77.6135C44.1047 77.7954 47.3992 81.9349 53.7758 79.2598C54.0413 79.1481 54.3479 79.2733 54.4596 79.5394C54.5712 79.8054 54.446 80.1115 54.18 80.2231C52.5144 80.9219 51.0267 81.1904 49.7248 81.1904Z" fill="#000072"/>
<path d="M35.3335 103.801C35.2974 103.801 35.261 103.797 35.2245 103.79C35.0382 103.75 30.6359 102.778 28.5113 99.5003C28.4036 99.3342 28.3991 99.1216 28.4994 98.9512C28.5261 98.9062 31.1572 94.4329 31.9173 92.5744C32.0266 92.3073 32.3325 92.1798 32.5985 92.2887C32.8655 92.3979 32.9935 92.703 32.8842 92.97C32.2016 94.6388 30.172 98.1579 29.5676 99.1944C31.1816 101.425 34.1053 102.402 35.1007 102.68C39.6723 95.6231 41.266 89.2416 41.7958 85.1063C42.2791 81.3338 41.9884 78.703 41.8719 77.8987C41.3007 77.658 39.7734 77.1344 38.6151 77.8353C38.5197 78.7689 38.1435 82.2056 37.4451 85.6562C36.2961 91.335 34.8851 94.233 33.1316 94.5158C32.8451 94.5623 32.5787 94.3682 32.5326 94.0833C32.4869 93.7985 32.6805 93.5304 32.9651 93.4845C33.534 93.3927 35.0095 92.4261 36.4212 85.449C37.2244 81.48 37.5957 77.5316 37.5992 77.4922C37.613 77.3452 37.6881 77.2109 37.8061 77.1224C39.7887 75.6367 42.4727 77.0185 42.586 77.078C42.7262 77.1516 42.8252 77.2848 42.8557 77.4401C42.8795 77.5622 43.434 80.4855 42.8388 85.1865C42.292 89.5039 40.6217 96.1971 35.7697 103.566C35.6719 103.715 35.5068 103.801 35.3335 103.801Z" fill="#000072"/>
<path d="M34.4894 93.3888C34.4815 93.3888 34.4737 93.3886 34.4655 93.3882L31.1312 93.238C30.8431 93.225 30.62 92.9809 30.6329 92.6927C30.6456 92.4126 30.8767 92.1938 31.1544 92.1938C31.1622 92.1938 31.1701 92.194 31.1783 92.1944L34.5126 92.3446C34.8007 92.3576 35.0238 92.6018 35.0109 92.8899C34.9982 93.1701 34.7671 93.3888 34.4894 93.3888Z" fill="#000072"/>
<path d="M32.4018 79.1354C32.16 79.1354 31.9432 78.9667 31.8913 78.7208C31.8316 78.4385 32.0122 78.1615 32.2944 78.1019C32.7561 78.0044 36.8472 77.1687 38.2581 77.8097C38.5207 77.9291 38.6368 78.2387 38.5175 78.5013C38.3981 78.7639 38.0891 78.8798 37.8258 78.7608C36.9967 78.3838 34.1248 78.7836 32.5101 79.124C32.4738 79.1317 32.4375 79.1354 32.4018 79.1354Z" fill="#000072"/>
<path d="M30.0826 93.8976C30.014 93.8976 29.9445 93.8936 29.8748 93.8853C29.277 93.8141 28.7792 93.4428 28.5432 92.8924L28.5254 92.8496L29.4935 92.4567L29.503 92.48C29.6291 92.7739 29.8914 92.8352 29.9982 92.8479C30.234 92.8761 30.4609 92.779 30.6033 92.5885C31.8515 90.919 32.6829 88.3595 32.8845 85.5659C33.0696 83.0013 32.6887 80.4957 31.8391 78.6915C31.8147 78.6397 31.7703 78.5994 31.717 78.5812C31.6851 78.5701 31.6356 78.5625 31.5841 78.5887C31.3991 78.6822 31.2738 78.8075 31.2009 78.9715L30.2464 78.5469C30.4163 78.1651 30.7157 77.8571 31.1125 77.6566C31.4066 77.5077 31.742 77.4852 32.0565 77.5932C32.3751 77.7026 32.6402 77.9407 32.7842 78.2463C33.7214 80.2368 34.1271 82.8629 33.9265 85.6411C33.7109 88.6286 32.8047 91.3888 31.44 93.214C31.1135 93.6508 30.6169 93.8976 30.0826 93.8976Z" fill="#000072"/>
<path d="M30.9792 80.0864C30.7122 79.7878 30.5265 79.4806 30.3516 79.1746L30.3197 79.1171L30.297 79.0839C30.2828 79.063 30.2673 79.0432 30.2521 79.0238C30.2211 78.9851 30.1836 78.953 30.1459 78.9241C30.068 78.8682 29.9808 78.8361 29.8988 78.8223C29.7476 78.7975 29.5393 78.8639 29.3999 78.994C29.2499 79.1244 29.1186 79.3738 29.0137 79.6681L29.0065 79.6882C28.9093 79.9607 28.6096 80.1029 28.3371 80.0057C28.0988 79.9207 27.9603 79.6806 27.9944 79.4395C28.0244 79.2253 28.0773 79.0052 28.1722 78.7857C28.2648 78.5665 28.4014 78.3451 28.5965 78.1555C28.786 77.9624 29.0408 77.8177 29.2999 77.7387C29.3657 77.7177 29.4283 77.703 29.4974 77.6897C29.5691 77.6782 29.6409 77.669 29.7138 77.6675C29.8586 77.6626 30.0047 77.6755 30.1439 77.7105C30.4247 77.7751 30.6756 77.9229 30.8737 78.1141C30.972 78.2108 31.06 78.3169 31.1312 78.4333C31.1658 78.4917 31.2009 78.5504 31.2263 78.6132L31.2641 78.7052L31.2873 78.7754C31.4033 79.1516 31.4661 79.5446 31.413 79.956C31.3954 80.0919 31.2711 80.1878 31.1352 80.1703C31.0738 80.1623 31.0206 80.1326 30.9823 80.0899L30.9792 80.0864Z" fill="#000072"/>
<path d="M30.1423 91.4983C30.0271 91.9734 29.8044 92.4113 29.5108 92.8104C29.4352 92.912 29.3618 93.0021 29.2684 93.1028C29.1541 93.2224 29.0179 93.3242 28.8668 93.3999C28.5666 93.5538 28.21 93.6134 27.864 93.5505C27.6917 93.5178 27.5239 93.4554 27.3715 93.368C27.2919 93.3223 27.2284 93.277 27.1668 93.2316C27.1056 93.1828 27.0447 93.1333 26.9884 93.0776C26.7637 92.856 26.5904 92.5772 26.4924 92.2919C26.2959 91.713 26.3394 91.1529 26.4571 90.6606C26.5242 90.3795 26.8066 90.2061 27.0877 90.2732C27.3397 90.3335 27.5051 90.5666 27.4883 90.8167L27.487 90.8355C27.4604 91.2361 27.4721 91.6163 27.581 91.9018C27.6321 92.0458 27.7048 92.1643 27.8018 92.2639C27.8244 92.2904 27.8511 92.3135 27.8768 92.3381C27.9057 92.3616 27.9337 92.3841 27.9521 92.3963C27.9951 92.4253 28.0418 92.447 28.0922 92.4608C28.1915 92.4923 28.3094 92.4923 28.4207 92.4522C28.476 92.432 28.5302 92.404 28.5814 92.3673C28.6537 92.3122 28.7382 92.2383 28.8169 92.1728C29.1388 91.9011 29.4517 91.5978 29.8096 91.2959L29.8119 91.2939C29.8981 91.2212 30.0272 91.2321 30.0999 91.3184C30.1433 91.3698 30.1566 91.4375 30.1423 91.4983Z" fill="#000072"/>
<path d="M28.0351 91.4101C28.0317 91.4101 28.0285 91.41 28.0251 91.41C27.9239 91.4081 25.521 91.3426 23.0476 89.6284C20.8383 88.0973 18.1681 84.9136 17.8272 78.4103C17.3881 78.3318 16.7901 78.0835 16.3566 77.3571C15.6833 76.2296 15.9186 74.8847 15.929 74.828C15.9809 74.5441 16.254 74.3564 16.5366 74.4079C16.8204 74.4597 17.0085 74.7318 16.9568 75.0155C16.9552 75.0239 16.7848 76.0367 17.2535 76.8217C17.631 77.454 18.1933 77.4048 18.256 77.397C18.4035 77.3741 18.5503 77.4158 18.6654 77.5112C18.7807 77.6064 18.8455 77.7471 18.8505 77.8966C19.0242 83.0021 20.6216 86.6501 23.5981 88.7389C25.3313 89.9551 27.0591 90.2636 27.7417 90.3406C30.3126 85.5853 29.1984 81.255 28.8563 80.1871C25.1187 79.2922 23.6854 76.9356 23.6247 76.8333C23.5632 76.7295 23.5396 76.6074 23.5579 76.4881C23.5604 76.4709 23.8199 74.7591 23.7692 73.6785C23.758 73.4433 23.5598 73.2591 23.3178 73.2591H20.4658C20.4661 73.3887 20.4905 73.5357 20.5719 73.663C20.7622 73.9609 21.222 74.0669 21.5743 74.1033C21.7755 74.1242 21.9468 74.2594 22.0135 74.4504C22.0803 74.6414 22.0308 74.8538 21.8864 74.9956C21.8662 75.0164 21.3118 75.594 21.5324 76.4345C21.6056 76.7135 21.4388 76.9991 21.1597 77.0723C20.8813 77.145 20.5952 76.9788 20.5219 76.6997C20.3361 75.9918 20.4768 75.3966 20.6725 74.9703C20.2306 74.8115 19.8994 74.558 19.6832 74.2121C19.2217 73.4741 19.502 72.6491 19.5354 72.5575C19.6106 72.3514 19.8067 72.2144 20.026 72.2144H23.3179C24.1188 72.2144 24.7753 72.8359 24.8126 73.6294C24.8578 74.5918 24.6906 75.9312 24.6201 76.4407C24.9833 76.9347 26.3995 78.6016 29.3626 79.2305C29.5323 79.2665 29.6731 79.3845 29.7383 79.5454C29.8291 79.7703 31.9265 85.1196 28.4889 91.1466C28.3958 91.3097 28.2225 91.4101 28.0351 91.4101Z" fill="#000072"/>
<path d="M17.5337 74.3858C17.3238 74.3859 17.1121 74.3309 16.9054 74.2196C15.9222 73.6903 15.3181 72.4986 15.2929 72.448C15.2566 72.3756 15.2378 72.2956 15.2378 72.2145C15.2378 72.1218 15.2681 71.3734 16.2047 70.6757C15.729 69.6024 15.4882 68.6081 15.368 67.9313C15.2724 67.3928 15.5133 66.861 15.9818 66.5764C16.595 66.2034 17.382 66.3832 17.7724 66.9861L19.6313 69.8549C19.5769 69.1113 19.5986 68.3931 19.6323 67.8747C19.6872 67.024 20.157 66.2495 20.8888 65.8028C21.2126 65.6052 21.6107 65.5836 21.954 65.7452C22.2972 65.9068 22.5342 66.2274 22.5883 66.6029L23.4594 72.6625C23.5004 72.9481 23.3022 73.2128 23.0165 73.2539C22.7327 73.2952 22.4664 73.0967 22.4252 72.8112L21.5541 66.7515C21.55 66.7231 21.5349 66.7026 21.509 66.6904C21.4827 66.6781 21.4576 66.6795 21.433 66.6945C20.9913 66.9641 20.7079 67.4305 20.6746 67.9422C20.6348 68.5579 20.6122 69.4738 20.7314 70.3401C20.793 70.7877 20.5083 71.2111 20.0692 71.3249C19.6961 71.4221 19.3032 71.2696 19.093 70.9453L16.8956 67.5541C16.8147 67.4292 16.6516 67.3918 16.5243 67.4691C16.427 67.5283 16.377 67.6379 16.3964 67.7487C16.4966 68.3116 16.7481 69.4221 17.3142 70.5842L18.6617 72.2773C19.0352 72.7463 19.0077 73.4302 18.5978 73.8681C18.2775 74.2103 17.9089 74.3858 17.5337 74.3858ZM16.3102 72.1291C16.476 72.4104 16.8783 73.0186 17.4006 73.2998C17.4796 73.3423 17.5992 73.4062 17.8352 73.1542C17.8935 73.0918 17.8974 72.9946 17.8444 72.9279L16.7603 71.5659C16.4694 71.7991 16.3549 72.0084 16.3102 72.1291Z" fill="#000072"/>
<path d="M16.2598 75.477C15.6259 75.477 14.8343 74.9624 14.4079 73.9875C14.2778 73.6918 14.2815 73.3537 14.4185 73.0607C14.5985 72.6742 14.9418 72.1451 15.553 71.8222C15.8084 71.6876 16.1242 71.7852 16.2588 72.0403C16.3936 72.2953 16.296 72.6114 16.041 72.7461C15.6678 72.9431 15.4572 73.3045 15.3652 73.5024C15.3554 73.5231 15.3554 73.5468 15.3645 73.5677C15.6405 74.1984 16.0945 74.4403 16.2468 74.435C16.2831 74.4064 16.4082 74.2915 16.6105 73.9358C16.6105 73.9377 16.6108 73.9052 16.5974 73.8424C16.5369 73.5603 16.7164 73.2826 16.9986 73.222C17.281 73.1621 17.5582 73.3412 17.6187 73.6232C17.6855 73.9341 17.6506 74.2212 17.518 74.4533C17.2169 74.9823 16.9375 75.2854 16.6388 75.4062C16.523 75.4535 16.395 75.477 16.2598 75.477Z" fill="#000072"/>
<path d="M35.9353 97.33C35.755 97.33 35.5979 96.3636 35.5163 94.9359L36.26 95.2008C35.8076 95.8001 35.1401 96.3124 34.3895 96.7149C33.8275 97.0172 33.2684 97.2424 32.748 97.4148C32.2248 97.5864 31.7496 97.7059 31.3176 97.7793L31.5654 97.3302C31.7652 98.2273 31.8233 98.8105 31.6913 98.8535C31.5594 98.8963 31.2634 98.3905 30.8974 97.5474C30.8277 97.3869 30.9013 97.2003 31.0618 97.1306L31.0732 97.1259L31.1453 97.0983C31.8878 96.8128 32.913 96.4176 33.9348 95.872C34.6191 95.5062 35.2054 95.0939 35.6106 94.671L35.6504 94.6295C35.8068 94.4664 36.0658 94.4608 36.2289 94.6171C36.3184 94.7029 36.3604 94.8212 36.3544 94.9359C36.2727 96.3636 36.1156 97.33 35.9353 97.33Z" fill="#000072"/>
<path d="M66.2394 99.1873C66.0616 99.2166 65.7928 98.5519 65.5441 97.5453C65.4905 97.3283 65.6231 97.109 65.8401 97.0553C65.9578 97.0263 66.0763 97.052 66.1687 97.1164L66.235 97.163C66.5637 97.3944 67.0179 97.6082 67.5399 97.7855C68.318 98.0499 69.0897 98.2243 69.6421 98.3614L69.742 98.3862C69.9042 98.4265 70.0031 98.5907 69.9627 98.753C69.9619 98.7564 69.9606 98.7609 69.9596 98.7643C69.7735 99.406 69.5875 99.797 69.4503 99.7762C69.3132 99.7553 69.252 99.3267 69.265 98.6586L69.5827 99.0615C68.9454 99.0738 68.122 98.992 67.2281 98.691C66.6349 98.4884 66.0844 98.1892 65.6804 97.7913L66.3711 97.4091C66.4586 98.4422 66.4174 99.158 66.2394 99.1873Z" fill="#000072"/>
<path d="M32.3443 98.9697C32.3398 98.8289 33.045 98.7144 33.8708 98.4619C34.7024 98.2212 35.3478 97.9355 35.4203 98.0412C35.5017 98.1516 34.9047 98.6605 34.0073 98.9208C33.5631 99.055 33.1419 99.1015 32.8383 99.0935C32.5341 99.0876 32.3472 99.0328 32.3443 98.9697Z" fill="#000072"/>
<path d="M69.2235 100.241C69.2205 100.304 69.0635 100.36 68.8068 100.372C68.5506 100.385 68.1949 100.35 67.8206 100.237C67.0643 100.018 66.5685 99.5736 66.6492 99.4635C66.7224 99.3575 67.2667 99.5784 67.9571 99.7782C68.6425 99.9879 69.2276 100.101 69.2235 100.241Z" fill="#000072"/>
<path d="M51.8448 91.3218H47.9272C47.6832 91.3218 47.472 91.1525 47.4189 90.9145C46.8935 88.5608 46.7556 86.1567 47.0083 83.7617C45.2378 83.2548 43.601 82.3923 42.2511 81.2517C42.0314 81.066 42.0037 80.7374 42.1896 80.5177C42.3749 80.2981 42.7034 80.2702 42.9235 80.456C44.2641 81.5889 45.917 82.4236 47.7034 82.8697C47.9592 82.9337 48.1269 83.1785 48.094 83.4401C47.8058 85.7269 47.8916 88.0258 48.3487 90.2801H51.2045C50.7858 88.1137 50.6934 85.9063 50.93 83.7093C50.9574 83.4533 51.168 83.2558 51.4254 83.2448C53.4999 83.1556 55.5027 82.5768 57.2173 81.5712C57.465 81.4258 57.7844 81.5088 57.93 81.757C58.0755 82.0051 57.9924 82.3242 57.7442 82.4698C56.0091 83.4876 54.0053 84.1022 51.923 84.2587C51.7363 86.4125 51.8806 88.5729 52.3531 90.6873C52.3875 90.8416 52.3501 91.0032 52.2512 91.1266C52.1523 91.25 52.0028 91.3218 51.8448 91.3218Z" fill="#000072"/>
<path d="M49.6245 89.3211C49.4651 89.3211 49.3212 89.2109 49.2851 89.0488C48.2918 84.6079 49.2463 80.7516 49.2873 80.5896C49.3346 80.4033 49.5247 80.2908 49.7103 80.3378C49.8966 80.385 50.0096 80.5744 49.9624 80.7608C49.9528 80.799 49.0091 84.6245 49.9646 88.8967C50.0067 89.0844 49.8885 89.2707 49.7008 89.3126C49.6752 89.3183 49.6498 89.3211 49.6245 89.3211Z" fill="#000072"/>
<path d="M77.7281 108.764C77.6288 108.764 77.5281 108.753 77.4277 108.729C76.9288 108.612 76.5488 108.228 76.4361 107.727C76.353 107.36 76.1597 106.733 75.7099 105.834C74.9959 104.406 75.0185 102.429 75.0641 101.617C72.8904 100.518 70.8837 99.0757 69.0942 97.3265C68.888 97.1249 68.8841 96.7941 69.0859 96.5879C69.2875 96.3816 69.6181 96.3778 69.8246 96.5795C71.6207 98.3352 73.6445 99.7674 75.8399 100.836C76.0373 100.932 76.1534 101.142 76.1307 101.36C76.1281 101.385 75.8825 103.843 76.6444 105.367C77.1408 106.36 77.3592 107.073 77.455 107.497C77.4792 107.605 77.5604 107.687 77.6667 107.712C77.821 107.748 77.9707 107.653 78.0094 107.496L78.014 107.478C78.1245 107.032 78.2759 106.42 78.1959 105.768C78.1608 105.482 78.3644 105.221 78.6508 105.186C78.9363 105.151 79.1975 105.354 79.2328 105.641C79.3363 106.484 79.1508 107.233 79.028 107.729L79.0236 107.747C78.8736 108.354 78.3258 108.764 77.7281 108.764Z" fill="#000072"/>
<path d="M83.4548 106.957C83.3113 106.957 83.1684 106.899 83.0652 106.783C82.8729 106.568 82.8914 106.238 83.1064 106.046C83.9766 105.268 83.9271 103.652 83.8202 102.759C83.7396 102.086 83.4167 101.46 82.9111 100.997L80.2786 98.5858C80.2388 98.5493 80.2049 98.5068 80.178 98.46L75.466 90.2269C74.8137 91.8211 73.2197 94.8176 69.7702 97.3725C69.7622 97.3783 69.7541 97.3839 69.7458 97.3894C69.3436 97.6534 68.3674 97.9613 67.5522 97.2382C67.3364 97.0467 67.3166 96.7166 67.508 96.5007C67.6997 96.285 68.03 96.2654 68.2453 96.4566C68.646 96.8118 69.0912 96.5659 69.1633 96.5219C73.7002 93.1542 74.8327 88.8869 74.8438 88.8442C74.8963 88.638 75.0689 88.4841 75.2797 88.4554C75.4913 88.4269 75.6978 88.5287 75.8034 88.7131L81.0443 97.8704L83.6168 100.227C84.3066 100.859 84.7473 101.714 84.8575 102.635C85.0177 103.973 84.9648 105.786 83.8029 106.824C83.7032 106.914 83.5787 106.957 83.4548 106.957Z" fill="#000072"/>
<path d="M75.35 89.4952C75.3005 89.4952 75.2501 89.4882 75.2003 89.4733C74.9239 89.3907 74.7669 89.0998 74.8492 88.8236C75.0826 88.038 75.1787 87.0135 74.9497 86.7403C74.7853 86.5445 74.602 86.5111 74.4041 86.6399C74.2261 86.7662 73.9921 86.7658 73.8121 86.6434C73.6317 86.5209 73.5501 86.2966 73.6018 86.0847C73.6213 85.996 73.7015 85.5157 73.2465 85.3159C72.6148 85.0386 72.1114 85.2886 72.09 85.2994C71.9025 85.3953 71.669 85.3725 71.5081 85.2362C71.4793 85.2117 68.5858 82.7667 65.9063 81.0566C64.8986 80.4135 63.7452 80.0709 62.5708 80.0657C62.1689 80.0622 61.7997 80.0864 61.4677 80.1324C61.1834 80.1721 60.9182 79.9726 60.8785 79.6869C60.839 79.4011 61.0384 79.1374 61.3243 79.0977C61.7051 79.0449 62.1252 79.0225 62.5755 79.021C63.9476 79.0271 65.2937 79.4264 66.4681 80.176C68.7588 81.6379 71.1935 83.6176 71.9476 84.2421C72.3206 84.1334 72.9531 84.0463 73.6664 84.3594C74.2649 84.6221 74.5291 85.0862 74.6214 85.5235C74.9943 85.5203 75.4052 85.658 75.7499 86.0689C76.4608 86.9163 75.9583 88.7612 75.8503 89.1224C75.7827 89.3488 75.575 89.4952 75.35 89.4952Z" fill="#000072"/>
<path d="M72.6533 85.8482C72.3937 86.7576 72.0481 87.6367 71.6568 88.4961C71.2696 89.3576 70.8307 90.1964 70.3548 91.0152C70.2397 91.2223 70.1164 91.4245 69.9917 91.6261C69.8661 91.8269 69.7483 92.0333 69.6159 92.23C69.3527 92.6246 69.0944 93.0235 68.8115 93.4056C68.2669 94.1859 67.6532 94.9159 67.0298 95.6388C66.8413 95.8574 66.5113 95.8818 66.2927 95.6932C66.0741 95.5047 66.0496 95.1747 66.2383 94.956C66.2443 94.949 66.2505 94.9422 66.2567 94.9356L66.2685 94.9235C66.906 94.2629 67.5306 93.5856 68.1114 92.8685C68.7014 92.1589 69.2496 91.4131 69.7764 90.651C70.3057 89.8898 70.7856 89.0947 71.2501 88.289C71.7071 87.4798 72.1471 86.6552 72.5332 85.8067L72.5342 85.8043C72.5488 85.7724 72.5865 85.7583 72.6185 85.7728C72.6476 85.7861 72.6618 85.8184 72.6533 85.8482Z" fill="#000072"/>
<path d="M65.3255 89.7273C65.2619 90.365 65.3203 90.9939 65.4521 91.5977C65.5844 92.2022 65.7891 92.784 66.0336 93.3465C66.1498 93.6136 66.0274 93.9244 65.7602 94.0406C65.4931 94.1567 65.1823 94.0344 65.0661 93.7672C65.047 93.7229 65.0343 93.6775 65.0277 93.632L65.0269 93.6253C64.9353 92.9654 64.8919 92.2973 64.9297 91.6364C64.9671 90.9768 65.0893 90.3236 65.3224 89.7266C65.3227 89.7258 65.3236 89.7254 65.3245 89.7257C65.3251 89.726 65.3255 89.7266 65.3255 89.7273Z" fill="#000072"/>
<g opacity="0.3">
<path d="M35.7693 92.4112C36.8512 90.2284 37.5139 83.9095 37.8286 80.062C37.2429 84.5658 35.7407 93.5657 33.0481 93.9999L32.4005 92.772C31.9487 93.8763 30.8711 95.8483 30.0391 97.3213C30.3278 97.376 30.7685 97.4172 31.4217 97.3866C32.8798 97.3183 35.2222 95.6159 35.2222 95.6159L33.1714 95.9369C33.1714 95.9369 34.1726 95.6323 35.7693 92.4112Z" fill="#000072"/>
</g>
<g opacity="0.3">
<path d="M36.5984 78.0891L35.523 84.894C35.3554 85.9546 34.3766 86.691 33.3111 86.5583L33.4537 82.7919C33.4537 82.7919 31.9455 89.4863 31.3651 89.1469C30.7847 88.8076 31.1547 86.9052 31.1547 86.9052C31.1547 86.9052 30.1246 89.2993 29.2651 88.1142C28.9779 89.0103 28.5819 89.941 28.0417 90.8881C28.0417 90.8881 27.6308 90.8793 26.9796 90.747V90.7488C26.7759 91.9432 27.1746 92.5439 27.6081 92.8433C28.0225 93.1324 28.5797 93.0749 28.9453 92.7232C28.9697 92.7005 28.9941 92.6762 29.0167 92.6535C29.022 92.664 29.0254 92.6762 29.0306 92.6866C29.3806 93.5049 30.4949 93.6146 31.0294 92.9008C31.0747 92.8398 31.1182 92.7789 31.1618 92.7162H31.1635L32.4084 92.7719L34.4943 92.8659H34.496C36.6602 89.7006 37.7623 80.9045 38.0496 78.2859C37.7212 78.1369 37.1973 78.0846 36.5984 78.0891Z" fill="#000072"/>
</g>
<g opacity="0.3">
<path d="M23.0666 72.8558L23.8794 72.9116C23.7208 72.8024 23.5303 72.7368 23.3252 72.7368H23.061L23.0666 72.8558Z" fill="#000072"/>
</g>
<g opacity="0.3">
<path d="M82.8663 43.7038C82.8663 43.7038 81.0382 44.052 79.8768 41.2366C79.6313 40.6418 79.3468 40.1451 79.0511 39.7302C76.9435 41.0152 70.933 43.8249 62.5528 40.5698C62.5528 40.5698 66.7315 40.7004 69.9525 38.8722C69.9525 38.8722 63.7716 39.8298 55.8059 35.1288C47.8404 30.4278 43.4005 32.1689 43.4005 32.1689C43.4005 32.1689 47.6523 28.1208 54.7325 28.5126C54.7325 28.5126 46.7316 26.2545 39.5844 29.1442C38.4468 29.9915 37.5823 31.0553 36.9584 32.343C36.9584 32.343 31.9649 33.0792 29.4584 38.7933C29.4495 39.2234 29.4853 40.0715 29.8633 40.5907C25.3504 55.573 29.5586 61.202 29.5586 61.202C32.5185 54.4987 40.4406 47.4472 40.4406 47.4472L41.7464 41.3968C41.7464 41.3968 53.6191 41.3742 65.7808 44.8843C65.7808 44.8843 65.7442 48.4344 65.0478 50.5812C65.0478 50.5812 71.7807 59.2867 71.0842 69.3277C71.0842 69.3277 78.8096 58.8741 78.5153 50.2295C79.0463 50.5482 79.5686 50.8772 80.0805 51.2201C80.0805 51.2201 80.3992 48.2742 78.8757 46.1413C78.8757 46.1413 82.1403 45.2412 82.8663 43.7038Z" fill="#000072"/>
</g>
<path d="M60.8392 61.2759C60.3371 61.4504 59.833 61.6569 59.3604 61.8852C58.8878 62.1209 58.4379 62.3821 58.0202 62.6766C57.9186 62.7542 57.8087 62.8202 57.7121 62.9025L57.4179 63.1424C57.321 63.2231 57.2341 63.3142 57.1414 63.3988L57.0034 63.5267L56.8778 63.6659C56.5237 64.0216 56.2543 64.443 55.9915 64.8679L55.1986 64.0804C55.3367 64.012 55.4375 63.9705 55.5551 63.927C55.6686 63.8831 55.7825 63.8469 55.8961 63.8102C56.1239 63.739 56.3553 63.6864 56.5875 63.6421C57.0523 63.5553 57.527 63.5269 57.9968 63.555C58.4655 63.5888 58.9325 63.6611 59.3722 63.8164C59.8174 63.9497 60.228 64.1729 60.6086 64.4161C60.7017 64.4756 60.729 64.5993 60.6695 64.6924C60.623 64.7653 60.5372 64.7978 60.4574 64.7801L60.4347 64.775C60.2251 64.7279 60.0276 64.6597 59.8226 64.6211C59.6173 64.5833 59.4174 64.5386 59.2125 64.5209C59.0107 64.4896 58.8057 64.4911 58.6052 64.4762C58.5044 64.4729 58.4029 64.4796 58.3026 64.4805C58.2022 64.4798 58.1019 64.4877 58.0019 64.4993C57.6025 64.5273 57.2076 64.5973 56.8243 64.7025C56.6326 64.7547 56.4444 64.8173 56.26 64.8847C56.1687 64.9203 56.077 64.9551 55.9899 64.9951C55.9054 65.0317 55.8079 65.0798 55.752 65.1092L55.7286 65.1215C55.4461 65.2699 55.0968 65.1612 54.9483 64.8788C54.8535 64.6982 54.8656 64.487 54.9591 64.3217L55.1859 63.9277L55.301 63.7313C55.3412 63.667 55.3898 63.6082 55.4339 63.5465L55.7062 63.1813C55.8036 63.0652 55.9109 62.9576 56.0132 62.8458L56.1688 62.6802L56.3388 62.5304C56.454 62.4329 56.5645 62.3294 56.6839 62.2381C56.928 62.0625 57.1699 61.8848 57.4333 61.7445C57.9514 61.4511 58.5007 61.2246 59.0669 61.0809C59.6339 60.9344 60.2042 60.8519 60.7985 60.8792C60.9094 60.8843 60.9953 60.9785 60.9902 61.0895C60.9863 61.1739 60.9309 61.2438 60.8558 61.2702L60.8392 61.2759Z" fill="#000072"/>
<path d="M43.2387 57.3836C41.7082 57.238 40.4879 59.1953 40.5131 61.7552C40.5382 64.3151 41.7993 66.5083 43.3297 66.6538C44.8602 66.7994 46.0805 64.8422 46.0554 62.2822C46.0303 59.7223 44.7692 57.5291 43.2387 57.3836Z" fill="#000072"/>
<path d="M43.2314 58.4562C42.7706 58.7011 42.643 59.5754 42.9466 60.4092C43.2501 61.2429 43.8698 61.7203 44.3306 61.4754C44.7915 61.2307 44.919 60.3563 44.6155 59.5226C44.3119 58.6888 43.6923 58.2114 43.2314 58.4562Z" fill="white"/>
<path d="M43.2446 58.4816C43.1035 58.5618 43.0017 58.6989 42.9369 58.8494C42.8718 59.0008 42.8387 59.1661 42.8276 59.3319C42.8108 59.6644 42.866 59.9997 42.9793 60.3113C43.0895 60.6236 43.2585 60.9162 43.4813 61.1496C43.6992 61.3776 44.0255 61.5416 44.2919 61.403C44.42 61.3331 44.5186 61.2078 44.5832 61.0643C44.648 60.9201 44.6831 60.7596 44.7004 60.5973C44.7311 60.2715 44.6911 59.9349 44.591 59.6179C44.4933 59.301 44.3393 58.9946 44.1121 58.7518C43.9982 58.6321 43.8645 58.5287 43.7125 58.4691C43.5619 58.4053 43.3889 58.4096 43.2446 58.4816ZM43.2178 58.4313C43.3761 58.3481 43.572 58.342 43.7351 58.4087C43.9006 58.4709 44.0428 58.5785 44.1638 58.7018C44.4036 58.952 44.5791 59.2584 44.6915 59.5846C44.8075 59.91 44.8636 60.2588 44.844 60.6094C44.8333 60.7845 44.7996 60.9612 44.7269 61.1277C44.6553 61.2927 44.5397 61.4524 44.369 61.5483C44.1965 61.6392 43.9799 61.646 43.808 61.5725C43.6333 61.5037 43.4883 61.3894 43.3661 61.2609C43.1218 61.0013 42.9614 60.6812 42.8615 60.3503C42.7586 60.0195 42.7177 59.6695 42.7512 59.3255C42.7681 59.1538 42.8039 58.9819 42.8763 58.8227C42.9477 58.6647 43.0601 58.5169 43.2178 58.4313Z" fill="#000072"/>
<path d="M42.1139 63.9862C41.9036 64.1877 41.92 64.6678 42.1505 65.0585C42.381 65.4493 42.7384 65.6026 42.9486 65.401C43.1589 65.1995 43.1425 64.7194 42.9119 64.3287C42.6815 63.938 42.3241 63.7847 42.1139 63.9862Z" fill="#B199C5"/>
<path d="M42.1338 64.0066C42.0163 64.1261 41.9903 64.313 42.0076 64.4811C42.026 64.6523 42.0859 64.8175 42.1702 64.965C42.256 65.1112 42.3688 65.2428 42.5026 65.3283C42.6359 65.4156 42.793 65.4357 42.8908 65.3404C42.9908 65.2437 43.0263 65.0719 43.0217 64.908C43.0178 64.7412 42.973 64.5727 42.9009 64.4178C42.8266 64.2646 42.7258 64.1178 42.5863 64.0197C42.5169 63.9719 42.4382 63.9352 42.3562 63.9291C42.2742 63.9211 42.1939 63.9515 42.1338 64.0066ZM42.0943 63.9654C42.1635 63.8988 42.2636 63.8599 42.36 63.8683C42.4561 63.8754 42.5466 63.9108 42.6251 63.961C42.7822 64.0627 42.9035 64.2087 42.9947 64.3691C43.0844 64.5307 43.1471 64.7095 43.1655 64.8987C43.182 65.0834 43.1626 65.2989 43.0067 65.4614C42.9278 65.5379 42.8087 65.5844 42.6993 65.5731C42.59 65.5638 42.493 65.5211 42.4118 65.4649C42.2488 65.3505 42.1397 65.1893 42.06 65.022C41.9825 64.8529 41.9347 64.6707 41.931 64.486C41.9271 64.3055 41.9562 64.1051 42.0943 63.9654Z" fill="#000072"/>
<path d="M46.8242 66.9651C47.1212 68.1346 47.3167 69.1694 47.4458 70.1175C47.5731 71.0693 48.0601 71.9529 48.8385 72.5136C49.3605 72.8899 49.9563 73.102 50.5909 73.102C52.6199 73.102 54.2635 70.9217 54.2635 68.2305C54.2635 67.9999 54.2505 67.773 54.2265 67.5499C50.067 68.4869 47.6875 67.4576 46.8279 66.9448C46.8261 66.9522 46.8261 66.9577 46.8242 66.9651Z" fill="#000072"/>
<path d="M50.6823 69.6597C51.8451 69.6597 52.9012 70.1136 53.6855 70.8528C53.0331 72.2053 51.8916 73.1023 50.5907 73.1023C49.9561 73.1023 49.3604 72.8902 48.8383 72.5139C48.2772 72.1097 47.8704 71.5365 47.6377 70.8922C48.426 70.1297 49.4989 69.6597 50.6823 69.6597Z" fill="#F4457F"/>
<path d="M50.5906 73.6556C49.8614 73.6556 49.1436 73.4161 48.5148 72.9628C47.6379 72.3311 47.0482 71.3208 46.8972 70.1909C46.7608 69.1903 46.5613 68.1793 46.2876 67.1015C46.2673 67.022 46.2651 66.9392 46.2809 66.8589C46.2838 66.8421 46.2878 66.8228 46.2912 66.8093C46.334 66.6399 46.4545 66.5006 46.6159 66.4337C46.7772 66.3668 46.9611 66.3801 47.1112 66.4698C47.8855 66.9316 50.1168 67.9088 54.1048 67.0102C54.2585 66.9754 54.4201 67.0081 54.5484 67.1C54.6768 67.1918 54.7597 67.3342 54.7765 67.4911C54.8031 67.7396 54.8166 67.9883 54.8166 68.2306C54.8166 71.222 52.9208 73.6556 50.5906 73.6556ZM47.6182 67.9228C47.7749 68.6447 47.8988 69.3455 47.9939 70.043C48.1051 70.8737 48.5307 71.6102 49.1617 72.0648C49.6075 72.386 50.0881 72.5489 50.5906 72.5489C52.3106 72.5489 53.7099 70.6117 53.7099 68.2306C53.7099 68.2276 53.7099 68.2245 53.7099 68.2214C50.8476 68.7559 48.8371 68.3696 47.6182 67.9228Z" fill="#000072"/>
</g>
<defs>
<clipPath id="clip0_2_2">
<rect width="100" height="100" rx="50" fill="white"/>
</clipPath>
</defs>
</svg>
