<svg width="24" height="24" viewBox="0 0 24 24" fill="none" xmlns="http://www.w3.org/2000/svg">
<rect width="24" height="24" rx="12" fill="#212121"/>
<path fill-rule="evenodd" clip-rule="evenodd" d="M12.0055 5.45459C8.383 5.45459 5.45459 8.45458 5.45459 12.166C5.45459 15.1327 7.33092 17.6439 9.93389 18.5328C10.2593 18.5996 10.3785 18.3884 10.3785 18.2107C10.3785 18.0551 10.3678 17.5218 10.3678 16.9661C8.54552 17.3662 8.16604 16.166 8.16604 16.166C7.87319 15.3882 7.43927 15.1883 7.43927 15.1883C6.84283 14.7772 7.48271 14.7772 7.48271 14.7772C8.14432 14.8216 8.49148 15.4661 8.49148 15.4661C9.07705 16.4883 10.0206 16.1995 10.4003 16.0216C10.4544 15.5883 10.6281 15.2883 10.8125 15.1216C9.35904 14.9661 7.82987 14.3883 7.82987 11.8103C7.82987 11.077 8.09001 10.477 8.5022 10.0103C8.43717 9.84371 8.20935 9.15467 8.56737 8.23244C8.56737 8.23244 9.1205 8.05462 10.3677 8.92135C10.9016 8.77444 11.4523 8.69971 12.0055 8.69908C12.5586 8.69908 13.1224 8.77694 13.6431 8.92135C14.8904 8.05462 15.4435 8.23244 15.4435 8.23244C15.8016 9.15467 15.5736 9.84371 15.5086 10.0103C15.9316 10.477 16.181 11.077 16.181 11.8103C16.181 14.3883 14.6519 14.9549 13.1876 15.1216C13.4263 15.3327 13.6322 15.7327 13.6322 16.3661C13.6322 17.2661 13.6215 17.9884 13.6215 18.2105C13.6215 18.3884 13.7409 18.5996 14.0662 18.5329C16.6691 17.6438 18.5455 15.1327 18.5455 12.166C18.5562 8.45458 15.6171 5.45459 12.0055 5.45459Z" fill="white"/>
</svg>
