<svg width="24" height="24" viewBox="0 0 24 24" fill="none" xmlns="http://www.w3.org/2000/svg">
<rect width="24" height="24" rx="12" fill="#212121"/>
<path d="M8.42603 18.5452V9.71247H5.61976V18.5452H8.42632H8.42603ZM7.02348 8.50671C8.00188 8.50671 8.611 7.82846 8.611 6.98084C8.59269 6.11391 8.00188 5.45459 7.04209 5.45459C6.08163 5.45459 5.45435 6.11391 5.45435 6.98077C5.45435 7.82839 6.06325 8.50664 7.00509 8.50664H7.02326L7.02348 8.50671ZM9.97934 18.5452H12.7854V13.6131C12.7854 13.3495 12.8037 13.0852 12.8778 12.8969C13.0806 12.3692 13.5423 11.823 14.3178 11.823C15.3329 11.823 15.7393 12.6329 15.7393 13.8204V18.5452H18.5453V13.4808C18.5453 10.7679 17.161 9.50539 15.3148 9.50539C13.8011 9.50539 13.1363 10.3905 12.7669 10.9933H12.7856V9.71277H9.97949C10.0161 10.5414 9.97927 18.5455 9.97927 18.5455L9.97934 18.5452Z" fill="white"/>
</svg>
