<svg width="226" height="63" viewBox="0 0 226 63" fill="none" xmlns="http://www.w3.org/2000/svg">
<rect width="204" height="41" rx="20.5" transform="matrix(1 0 0 -1 22 41)" fill="#7C7F84"/>
<path d="M47.104 26V14.8H54.4V16.544H49.264V19.536H53.376V21.232H49.264V26H47.104ZM55.9466 26V17.936H57.8666L58.0746 19.424C58.2666 19.072 58.5066 18.7733 58.7946 18.528C59.0933 18.2827 59.4293 18.0907 59.8026 17.952C60.1866 17.8133 60.608 17.744 61.0666 17.744V20.032H60.3306C60.0106 20.032 59.712 20.0693 59.4346 20.144C59.168 20.2187 58.9333 20.3413 58.7306 20.512C58.528 20.672 58.3733 20.896 58.2666 21.184C58.16 21.472 58.1066 21.8347 58.1066 22.272V26H55.9466ZM66.1765 26.192C65.4085 26.192 64.7152 26.016 64.0965 25.664C63.4885 25.3013 63.0032 24.8053 62.6405 24.176C62.2885 23.536 62.1125 22.8053 62.1125 21.984C62.1125 21.1413 62.2885 20.4053 62.6405 19.776C63.0032 19.136 63.4938 18.64 64.1125 18.288C64.7312 17.9253 65.4245 17.744 66.1925 17.744C66.9712 17.744 67.6645 17.9253 68.2725 18.288C68.8912 18.64 69.3765 19.136 69.7285 19.776C70.0912 20.4053 70.2725 21.136 70.2725 21.968C70.2725 22.8 70.0912 23.536 69.7285 24.176C69.3765 24.8053 68.8912 25.3013 68.2725 25.664C67.6538 26.016 66.9552 26.192 66.1765 26.192ZM66.1765 24.32C66.5392 24.32 66.8592 24.2347 67.1365 24.064C67.4245 23.8933 67.6485 23.632 67.8085 23.28C67.9792 22.928 68.0645 22.4907 68.0645 21.968C68.0645 21.4453 67.9792 21.0133 67.8085 20.672C67.6485 20.32 67.4245 20.0587 67.1365 19.888C66.8592 19.7067 66.5445 19.616 66.1925 19.616C65.8512 19.616 65.5365 19.7067 65.2485 19.888C64.9605 20.0587 64.7312 20.32 64.5605 20.672C64.4005 21.0133 64.3205 21.4453 64.3205 21.968C64.3205 22.4907 64.4005 22.928 64.5605 23.28C64.7312 23.632 64.9552 23.8933 65.2325 24.064C65.5205 24.2347 65.8352 24.32 66.1765 24.32ZM72.1341 26V17.936H74.0381L74.1981 19.248C74.4435 18.8 74.7901 18.4373 75.2381 18.16C75.6968 17.8827 76.2408 17.744 76.8701 17.744C77.5421 17.744 78.1075 17.8827 78.5661 18.16C79.0248 18.4373 79.3715 18.8427 79.6061 19.376C79.8515 19.9093 79.9741 20.5653 79.9741 21.344V26H77.8301V21.552C77.8301 20.912 77.6915 20.4213 77.4141 20.08C77.1475 19.7387 76.7315 19.568 76.1661 19.568C75.8035 19.568 75.4781 19.6533 75.1901 19.824C74.9128 19.9947 74.6941 20.24 74.5341 20.56C74.3741 20.8693 74.2941 21.248 74.2941 21.696V26H72.1341ZM85.6411 26C85.0758 26 84.5798 25.9147 84.1531 25.744C83.7371 25.5627 83.4118 25.2693 83.1771 24.864C82.9425 24.448 82.8251 23.8827 82.8251 23.168V19.744H81.4491V17.936H82.8251L83.0651 15.744H84.9851V17.936H87.1131V19.744H84.9851V23.2C84.9851 23.5627 85.0651 23.8133 85.2251 23.952C85.3851 24.0907 85.6571 24.16 86.0411 24.16H87.0971V26H85.6411ZM92.5999 26.192C91.7892 26.192 91.0692 26.0213 90.4399 25.68C89.8212 25.328 89.3359 24.8427 88.9839 24.224C88.6425 23.5947 88.4719 22.8693 88.4719 22.048C88.4719 21.2053 88.6425 20.464 88.9839 19.824C89.3359 19.1733 89.8212 18.6667 90.4399 18.304C91.0585 17.9307 91.7785 17.744 92.5999 17.744C93.3999 17.744 94.0985 17.92 94.6959 18.272C95.2932 18.624 95.7572 19.0987 96.0879 19.696C96.4185 20.2933 96.5839 20.9707 96.5839 21.728C96.5839 21.8347 96.5839 21.9573 96.5839 22.096C96.5839 22.224 96.5732 22.3573 96.5519 22.496H90.0079V21.184H94.4079C94.3759 20.6613 94.1892 20.2507 93.8479 19.952C93.5172 19.6533 93.1012 19.504 92.5999 19.504C92.2372 19.504 91.9012 19.5893 91.5919 19.76C91.2825 19.92 91.0372 20.1707 90.8559 20.512C90.6852 20.8533 90.5999 21.2853 90.5999 21.808V22.272C90.5999 22.7093 90.6799 23.0933 90.8399 23.424C91.0105 23.744 91.2452 23.9947 91.5439 24.176C91.8425 24.3467 92.1892 24.432 92.5839 24.432C92.9785 24.432 93.3039 24.3467 93.5599 24.176C93.8265 24.0053 94.0239 23.7867 94.1519 23.52H96.3599C96.2105 24.0213 95.9599 24.4747 95.6079 24.88C95.2559 25.2853 94.8239 25.6053 94.3119 25.84C93.7999 26.0747 93.2292 26.192 92.5999 26.192ZM98.3529 26V17.936H100.257L100.417 19.248C100.662 18.8 101.009 18.4373 101.457 18.16C101.916 17.8827 102.46 17.744 103.089 17.744C103.761 17.744 104.326 17.8827 104.785 18.16C105.244 18.4373 105.59 18.8427 105.825 19.376C106.07 19.9093 106.193 20.5653 106.193 21.344V26H104.049V21.552C104.049 20.912 103.91 20.4213 103.633 20.08C103.366 19.7387 102.95 19.568 102.385 19.568C102.022 19.568 101.697 19.6533 101.409 19.824C101.132 19.9947 100.913 20.24 100.753 20.56C100.593 20.8693 100.513 21.248 100.513 21.696V26H98.3529ZM111.812 26.192C111.076 26.192 110.415 26.0107 109.828 25.648C109.252 25.2853 108.799 24.784 108.468 24.144C108.137 23.504 107.972 22.784 107.972 21.984C107.972 21.1627 108.137 20.4373 108.468 19.808C108.809 19.168 109.273 18.6667 109.86 18.304C110.457 17.9307 111.124 17.744 111.86 17.744C112.436 17.744 112.943 17.8507 113.38 18.064C113.817 18.2773 114.169 18.5813 114.436 18.976V14.48H116.596V26H114.676L114.436 24.896C114.276 25.12 114.073 25.3333 113.828 25.536C113.593 25.7387 113.311 25.8987 112.98 26.016C112.649 26.1333 112.26 26.192 111.812 26.192ZM112.324 24.304C112.751 24.304 113.124 24.208 113.444 24.016C113.775 23.8133 114.031 23.536 114.212 23.184C114.393 22.832 114.484 22.4267 114.484 21.968C114.484 21.5093 114.393 21.104 114.212 20.752C114.031 20.4 113.775 20.128 113.444 19.936C113.124 19.7333 112.751 19.632 112.324 19.632C111.919 19.632 111.551 19.7333 111.22 19.936C110.889 20.128 110.628 20.4 110.436 20.752C110.255 21.104 110.164 21.504 110.164 21.952C110.164 22.4213 110.255 22.832 110.436 23.184C110.628 23.536 110.884 23.8133 111.204 24.016C111.535 24.208 111.908 24.304 112.324 24.304ZM122.526 26V14.8H126.27C127.571 14.8 128.643 15.0347 129.486 15.504C130.339 15.9627 130.969 16.6133 131.374 17.456C131.79 18.288 131.998 19.2693 131.998 20.4C131.998 21.5307 131.79 22.5173 131.374 23.36C130.969 24.192 130.345 24.8427 129.502 25.312C128.659 25.7707 127.582 26 126.27 26H122.526ZM124.686 24.144H126.158C127.075 24.144 127.795 23.9947 128.318 23.696C128.851 23.3973 129.23 22.9707 129.454 22.416C129.678 21.8507 129.79 21.1787 129.79 20.4C129.79 19.6107 129.678 18.9387 129.454 18.384C129.23 17.8187 128.851 17.3867 128.318 17.088C127.795 16.7893 127.075 16.64 126.158 16.64H124.686V24.144ZM137.662 26.192C136.852 26.192 136.132 26.0213 135.502 25.68C134.884 25.328 134.398 24.8427 134.046 24.224C133.705 23.5947 133.534 22.8693 133.534 22.048C133.534 21.2053 133.705 20.464 134.046 19.824C134.398 19.1733 134.884 18.6667 135.502 18.304C136.121 17.9307 136.841 17.744 137.662 17.744C138.462 17.744 139.161 17.92 139.758 18.272C140.356 18.624 140.82 19.0987 141.15 19.696C141.481 20.2933 141.646 20.9707 141.646 21.728C141.646 21.8347 141.646 21.9573 141.646 22.096C141.646 22.224 141.636 22.3573 141.614 22.496H135.07V21.184H139.47C139.438 20.6613 139.252 20.2507 138.91 19.952C138.58 19.6533 138.164 19.504 137.662 19.504C137.3 19.504 136.964 19.5893 136.654 19.76C136.345 19.92 136.1 20.1707 135.918 20.512C135.748 20.8533 135.662 21.2853 135.662 21.808V22.272C135.662 22.7093 135.742 23.0933 135.902 23.424C136.073 23.744 136.308 23.9947 136.606 24.176C136.905 24.3467 137.252 24.432 137.646 24.432C138.041 24.432 138.366 24.3467 138.622 24.176C138.889 24.0053 139.086 23.7867 139.214 23.52H141.422C141.273 24.0213 141.022 24.4747 140.67 24.88C140.318 25.2853 139.886 25.6053 139.374 25.84C138.862 26.0747 138.292 26.192 137.662 26.192ZM145.263 26L142.303 17.936H144.575L146.575 23.968L148.575 17.936H150.831L147.887 26H145.263ZM155.647 26.192C154.836 26.192 154.116 26.0213 153.487 25.68C152.868 25.328 152.383 24.8427 152.031 24.224C151.689 23.5947 151.519 22.8693 151.519 22.048C151.519 21.2053 151.689 20.464 152.031 19.824C152.383 19.1733 152.868 18.6667 153.487 18.304C154.105 17.9307 154.825 17.744 155.647 17.744C156.447 17.744 157.145 17.92 157.743 18.272C158.34 18.624 158.804 19.0987 159.135 19.696C159.465 20.2933 159.631 20.9707 159.631 21.728C159.631 21.8347 159.631 21.9573 159.631 22.096C159.631 22.224 159.62 22.3573 159.599 22.496H153.055V21.184H157.455C157.423 20.6613 157.236 20.2507 156.895 19.952C156.564 19.6533 156.148 19.504 155.647 19.504C155.284 19.504 154.948 19.5893 154.639 19.76C154.329 19.92 154.084 20.1707 153.903 20.512C153.732 20.8533 153.647 21.2853 153.647 21.808V22.272C153.647 22.7093 153.727 23.0933 153.887 23.424C154.057 23.744 154.292 23.9947 154.591 24.176C154.889 24.3467 155.236 24.432 155.631 24.432C156.025 24.432 156.351 24.3467 156.607 24.176C156.873 24.0053 157.071 23.7867 157.199 23.52H159.407C159.257 24.0213 159.007 24.4747 158.655 24.88C158.303 25.2853 157.871 25.6053 157.359 25.84C156.847 26.0747 156.276 26.192 155.647 26.192ZM161.4 26V14.48H163.56V26H161.4ZM169.473 26.192C168.705 26.192 168.012 26.016 167.393 25.664C166.785 25.3013 166.3 24.8053 165.937 24.176C165.585 23.536 165.409 22.8053 165.409 21.984C165.409 21.1413 165.585 20.4053 165.937 19.776C166.3 19.136 166.791 18.64 167.409 18.288C168.028 17.9253 168.721 17.744 169.489 17.744C170.268 17.744 170.961 17.9253 171.569 18.288C172.188 18.64 172.673 19.136 173.025 19.776C173.388 20.4053 173.569 21.136 173.569 21.968C173.569 22.8 173.388 23.536 173.025 24.176C172.673 24.8053 172.188 25.3013 171.569 25.664C170.951 26.016 170.252 26.192 169.473 26.192ZM169.473 24.32C169.836 24.32 170.156 24.2347 170.433 24.064C170.721 23.8933 170.945 23.632 171.105 23.28C171.276 22.928 171.361 22.4907 171.361 21.968C171.361 21.4453 171.276 21.0133 171.105 20.672C170.945 20.32 170.721 20.0587 170.433 19.888C170.156 19.7067 169.841 19.616 169.489 19.616C169.148 19.616 168.833 19.7067 168.545 19.888C168.257 20.0587 168.028 20.32 167.857 20.672C167.697 21.0133 167.617 21.4453 167.617 21.968C167.617 22.4907 167.697 22.928 167.857 23.28C168.028 23.632 168.252 23.8933 168.529 24.064C168.817 24.2347 169.132 24.32 169.473 24.32ZM175.431 29.52V17.936H177.351L177.591 19.056C177.762 18.8213 177.964 18.608 178.199 18.416C178.434 18.2133 178.711 18.0533 179.031 17.936C179.362 17.808 179.746 17.744 180.183 17.744C180.94 17.744 181.607 17.9307 182.183 18.304C182.759 18.6773 183.212 19.184 183.543 19.824C183.884 20.4533 184.055 21.1733 184.055 21.984C184.055 22.7947 183.884 23.52 183.543 24.16C183.202 24.7893 182.743 25.2853 182.167 25.648C181.591 26.0107 180.935 26.192 180.199 26.192C179.602 26.192 179.084 26.0853 178.647 25.872C178.22 25.648 177.868 25.344 177.591 24.96V29.52H175.431ZM179.687 24.304C180.114 24.304 180.487 24.208 180.807 24.016C181.138 23.824 181.394 23.552 181.575 23.2C181.756 22.848 181.847 22.4427 181.847 21.984C181.847 21.5253 181.756 21.12 181.575 20.768C181.394 20.4053 181.138 20.128 180.807 19.936C180.487 19.7333 180.114 19.632 179.687 19.632C179.271 19.632 178.898 19.7333 178.567 19.936C178.247 20.128 177.991 20.4 177.799 20.752C177.618 21.104 177.527 21.5093 177.527 21.968C177.527 22.4267 177.618 22.8373 177.799 23.2C177.991 23.552 178.247 23.824 178.567 24.016C178.898 24.208 179.271 24.304 179.687 24.304ZM189.787 26.192C188.977 26.192 188.257 26.0213 187.627 25.68C187.009 25.328 186.523 24.8427 186.171 24.224C185.83 23.5947 185.659 22.8693 185.659 22.048C185.659 21.2053 185.83 20.464 186.171 19.824C186.523 19.1733 187.009 18.6667 187.627 18.304C188.246 17.9307 188.966 17.744 189.787 17.744C190.587 17.744 191.286 17.92 191.883 18.272C192.481 18.624 192.945 19.0987 193.275 19.696C193.606 20.2933 193.771 20.9707 193.771 21.728C193.771 21.8347 193.771 21.9573 193.771 22.096C193.771 22.224 193.761 22.3573 193.739 22.496H187.195V21.184H191.595C191.563 20.6613 191.377 20.2507 191.035 19.952C190.705 19.6533 190.289 19.504 189.787 19.504C189.425 19.504 189.089 19.5893 188.779 19.76C188.47 19.92 188.225 20.1707 188.043 20.512C187.873 20.8533 187.787 21.2853 187.787 21.808V22.272C187.787 22.7093 187.867 23.0933 188.027 23.424C188.198 23.744 188.433 23.9947 188.731 24.176C189.03 24.3467 189.377 24.432 189.771 24.432C190.166 24.432 190.491 24.3467 190.747 24.176C191.014 24.0053 191.211 23.7867 191.339 23.52H193.547C193.398 24.0213 193.147 24.4747 192.795 24.88C192.443 25.2853 192.011 25.6053 191.499 25.84C190.987 26.0747 190.417 26.192 189.787 26.192ZM195.54 26V17.936H197.46L197.668 19.424C197.86 19.072 198.1 18.7733 198.388 18.528C198.687 18.2827 199.023 18.0907 199.396 17.952C199.78 17.8133 200.202 17.744 200.66 17.744V20.032H199.924C199.604 20.032 199.306 20.0693 199.028 20.144C198.762 20.2187 198.527 20.3413 198.324 20.512C198.122 20.672 197.967 20.896 197.86 21.184C197.754 21.472 197.7 21.8347 197.7 22.272V26H195.54Z" fill="white"/>
<path d="M21.4233 55.1333C21.582 54.9256 21.7523 54.6261 21.75 54.2627C21.7439 53.3219 21.1031 52.6608 20.4311 52.2213C19.7446 51.7722 18.8525 51.4349 17.9687 51.1714C17.0749 50.9048 16.1354 50.6984 15.3288 50.5313C14.7631 50.416 13.7601 50.2109 13.4652 50.1282C12.9855 49.9936 12.8401 49.8951 12.7666 49.8158C12.6896 49.7327 12.5968 49.5687 12.4849 49.0597L12.4842 49.0567C11.9628 46.6855 11.5575 44.842 11.1257 43.5909C10.9103 42.9668 10.6667 42.4228 10.3565 42.0202C10.0321 41.5992 9.58758 41.277 9.0002 41.2511C8.63079 41.2348 8.32556 41.4035 8.1192 41.5567C7.90134 41.7186 7.6976 41.9347 7.50983 42.1693C7.13231 42.6409 6.73677 43.2921 6.34409 44.0425C5.55467 45.5511 4.71927 47.5728 4.01261 49.6519C3.30627 51.7301 2.71729 53.8987 2.43347 55.7022C2.29195 56.6015 2.22162 57.4384 2.2607 58.1408C2.29766 58.8051 2.43924 59.5131 2.87887 59.9865C3.33198 60.4745 4.03887 60.6543 4.70448 60.7184C5.40563 60.786 6.24371 60.741 7.14386 60.6229C8.94949 60.3861 11.1295 59.8381 13.2226 59.1643C15.3171 58.4901 17.3595 57.6787 18.8898 56.9009C19.6513 56.5138 20.3134 56.1214 20.7958 55.7434C21.036 55.5553 21.2567 55.3514 21.4233 55.1333Z" fill="#7C7F84"/>
</svg>
