<svg width="159" height="63" viewBox="0 0 159 63" fill="none" xmlns="http://www.w3.org/2000/svg">
<rect x="22" y="22" width="137" height="41" rx="20.5" fill="#6E6CDF"/>
<path d="M51.44 48.192C50.6187 48.192 49.872 48.0267 49.2 47.696C48.528 47.3653 47.9947 46.8693 47.6 46.208C47.2053 45.5467 47.008 44.704 47.008 43.68V36.8H49.168V43.696C49.168 44.2507 49.2587 44.72 49.44 45.104C49.6213 45.4773 49.8827 45.7547 50.224 45.936C50.576 46.1173 50.992 46.208 51.472 46.208C51.9627 46.208 52.3787 46.1173 52.72 45.936C53.072 45.7547 53.3387 45.4773 53.52 45.104C53.7013 44.72 53.792 44.2507 53.792 43.696V36.8H55.952V43.68C55.952 44.704 55.7493 45.5467 55.344 46.208C54.9387 46.8693 54.3893 47.3653 53.696 47.696C53.0133 48.0267 52.2613 48.192 51.44 48.192ZM58.0571 48V36.8H60.2171V48H58.0571ZM66.1821 48V36.8H69.9261C71.2275 36.8 72.2995 37.0347 73.1421 37.504C73.9955 37.9627 74.6248 38.6133 75.0301 39.456C75.4461 40.288 75.6541 41.2693 75.6541 42.4C75.6541 43.5307 75.4461 44.5173 75.0301 45.36C74.6248 46.192 74.0008 46.8427 73.1581 47.312C72.3155 47.7707 71.2381 48 69.9261 48H66.1821ZM68.3421 46.144H69.8141C70.7315 46.144 71.4515 45.9947 71.9741 45.696C72.5075 45.3973 72.8861 44.9707 73.1101 44.416C73.3341 43.8507 73.4461 43.1787 73.4461 42.4C73.4461 41.6107 73.3341 40.9387 73.1101 40.384C72.8861 39.8187 72.5075 39.3867 71.9741 39.088C71.4515 38.7893 70.7315 38.64 69.8141 38.64H68.3421V46.144ZM81.3186 48.192C80.508 48.192 79.788 48.0213 79.1586 47.68C78.54 47.328 78.0546 46.8427 77.7026 46.224C77.3613 45.5947 77.1906 44.8693 77.1906 44.048C77.1906 43.2053 77.3613 42.464 77.7026 41.824C78.0546 41.1733 78.54 40.6667 79.1586 40.304C79.7773 39.9307 80.4973 39.744 81.3186 39.744C82.1186 39.744 82.8173 39.92 83.4146 40.272C84.012 40.624 84.476 41.0987 84.8066 41.696C85.1373 42.2933 85.3026 42.9707 85.3026 43.728C85.3026 43.8347 85.3026 43.9573 85.3026 44.096C85.3026 44.224 85.292 44.3573 85.2706 44.496H78.7266V43.184H83.1266C83.0946 42.6613 82.908 42.2507 82.5666 41.952C82.236 41.6533 81.82 41.504 81.3186 41.504C80.956 41.504 80.62 41.5893 80.3106 41.76C80.0013 41.92 79.756 42.1707 79.5746 42.512C79.404 42.8533 79.3186 43.2853 79.3186 43.808V44.272C79.3186 44.7093 79.3986 45.0933 79.5586 45.424C79.7293 45.744 79.964 45.9947 80.2626 46.176C80.5613 46.3467 80.908 46.432 81.3026 46.432C81.6973 46.432 82.0226 46.3467 82.2786 46.176C82.5453 46.0053 82.7426 45.7867 82.8706 45.52H85.0786C84.9293 46.0213 84.6786 46.4747 84.3266 46.88C83.9746 47.2853 83.5426 47.6053 83.0306 47.84C82.5186 48.0747 81.948 48.192 81.3186 48.192ZM90.3676 48.192C89.6316 48.192 88.9916 48.0747 88.4476 47.84C87.9036 47.6053 87.477 47.28 87.1676 46.864C86.8583 46.448 86.6823 45.9787 86.6396 45.456H88.7836C88.837 45.6587 88.9276 45.8453 89.0556 46.016C89.1836 46.176 89.3543 46.304 89.5676 46.4C89.781 46.496 90.037 46.544 90.3356 46.544C90.6236 46.544 90.8583 46.5067 91.0396 46.432C91.221 46.3467 91.3543 46.2347 91.4396 46.096C91.5356 45.9573 91.5836 45.8133 91.5836 45.664C91.5836 45.44 91.5196 45.2693 91.3916 45.152C91.2636 45.024 91.077 44.9227 90.8316 44.848C90.5863 44.7733 90.2876 44.6987 89.9356 44.624C89.5516 44.5493 89.173 44.4587 88.7996 44.352C88.437 44.2347 88.1116 44.0907 87.8236 43.92C87.5356 43.7493 87.3063 43.5307 87.1356 43.264C86.965 42.9973 86.8796 42.6667 86.8796 42.272C86.8796 41.792 87.0076 41.3653 87.2636 40.992C87.5196 40.608 87.893 40.304 88.3836 40.08C88.8743 39.856 89.4663 39.744 90.1596 39.744C91.1303 39.744 91.8983 39.9627 92.4636 40.4C93.029 40.8373 93.365 41.44 93.4716 42.208H91.4396C91.3756 41.9627 91.2316 41.7707 91.0076 41.632C90.7943 41.4827 90.5063 41.408 90.1436 41.408C89.7596 41.408 89.4663 41.4773 89.2636 41.616C89.061 41.7547 88.9596 41.936 88.9596 42.16C88.9596 42.3093 89.0236 42.4427 89.1516 42.56C89.2903 42.6773 89.4823 42.7787 89.7276 42.864C89.973 42.9387 90.2716 43.0133 90.6236 43.088C91.2423 43.216 91.7863 43.3653 92.2556 43.536C92.725 43.696 93.093 43.9307 93.3596 44.24C93.6263 44.5387 93.7596 44.976 93.7596 45.552C93.7596 46.064 93.621 46.5227 93.3436 46.928C93.0663 47.3227 92.6716 47.632 92.1596 47.856C91.6583 48.08 91.061 48.192 90.3676 48.192ZM95.6353 48V39.936H97.7953V48H95.6353ZM96.7233 38.832C96.3393 38.832 96.0193 38.72 95.7633 38.496C95.5179 38.2613 95.3953 37.968 95.3953 37.616C95.3953 37.264 95.5179 36.976 95.7633 36.752C96.0193 36.5173 96.3393 36.4 96.7233 36.4C97.1179 36.4 97.4379 36.5173 97.6833 36.752C97.9393 36.976 98.0673 37.264 98.0673 37.616C98.0673 37.968 97.9393 38.2613 97.6833 38.496C97.4379 38.72 97.1179 38.832 96.7233 38.832ZM103.45 51.712C102.682 51.712 102.01 51.616 101.434 51.424C100.858 51.2427 100.41 50.96 100.09 50.576C99.7805 50.2027 99.6259 49.7387 99.6259 49.184C99.6259 48.8107 99.7219 48.4587 99.9139 48.128C100.106 47.7973 100.383 47.4987 100.746 47.232C101.119 46.9547 101.583 46.72 102.138 46.528L102.954 47.584C102.463 47.744 102.106 47.9413 101.882 48.176C101.669 48.4213 101.562 48.6827 101.562 48.96C101.562 49.2053 101.642 49.4133 101.802 49.584C101.973 49.7547 102.197 49.8773 102.474 49.952C102.762 50.0373 103.082 50.08 103.434 50.08C103.775 50.08 104.069 50.0373 104.314 49.952C104.57 49.8667 104.767 49.7387 104.906 49.568C105.055 49.408 105.13 49.216 105.13 48.992C105.13 48.704 105.029 48.4693 104.826 48.288C104.623 48.1067 104.218 47.9947 103.61 47.952C103.066 47.9093 102.581 47.8507 102.154 47.776C101.738 47.6907 101.37 47.5947 101.05 47.488C100.73 47.3707 100.458 47.2427 100.234 47.104C100.021 46.9653 99.8445 46.8267 99.7059 46.688V46.32L101.418 44.48L102.97 44.976L100.954 46.96L101.562 45.904C101.679 45.968 101.791 46.032 101.898 46.096C102.015 46.1493 102.159 46.2027 102.33 46.256C102.501 46.2987 102.725 46.3413 103.002 46.384C103.279 46.4267 103.631 46.464 104.058 46.496C104.762 46.56 105.338 46.6933 105.786 46.896C106.245 47.0987 106.581 47.3707 106.794 47.712C107.007 48.0427 107.114 48.4533 107.114 48.944C107.114 49.424 106.981 49.872 106.714 50.288C106.458 50.7147 106.058 51.056 105.514 51.312C104.97 51.5787 104.282 51.712 103.45 51.712ZM103.45 45.616C102.778 45.616 102.197 45.488 101.706 45.232C101.226 44.9653 100.853 44.6133 100.586 44.176C100.33 43.728 100.202 43.232 100.202 42.688C100.202 42.144 100.33 41.6533 100.586 41.216C100.853 40.768 101.226 40.4107 101.706 40.144C102.197 39.8773 102.778 39.744 103.45 39.744C104.133 39.744 104.714 39.8773 105.194 40.144C105.685 40.4107 106.058 40.768 106.314 41.216C106.57 41.6533 106.698 42.144 106.698 42.688C106.698 43.232 106.57 43.728 106.314 44.176C106.058 44.6133 105.685 44.9653 105.194 45.232C104.714 45.488 104.133 45.616 103.45 45.616ZM103.45 43.968C103.866 43.968 104.202 43.8613 104.458 43.648C104.714 43.4347 104.842 43.12 104.842 42.704C104.842 42.288 104.714 41.9733 104.458 41.76C104.202 41.536 103.866 41.424 103.45 41.424C103.045 41.424 102.709 41.536 102.442 41.76C102.186 41.9733 102.058 42.288 102.058 42.704C102.058 43.12 102.186 43.4347 102.442 43.648C102.709 43.8613 103.045 43.968 103.45 43.968ZM104.794 41.472L104.442 39.936H107.754V41.216L104.794 41.472ZM109.509 48V39.936H111.413L111.573 41.248C111.818 40.8 112.165 40.4373 112.613 40.16C113.072 39.8827 113.616 39.744 114.245 39.744C114.917 39.744 115.482 39.8827 115.941 40.16C116.4 40.4373 116.746 40.8427 116.981 41.376C117.226 41.9093 117.349 42.5653 117.349 43.344V48H115.205V43.552C115.205 42.912 115.066 42.4213 114.789 42.08C114.522 41.7387 114.106 41.568 113.541 41.568C113.178 41.568 112.853 41.6533 112.565 41.824C112.288 41.9947 112.069 42.24 111.909 42.56C111.749 42.8693 111.669 43.248 111.669 43.696V48H109.509ZM123.256 48.192C122.445 48.192 121.725 48.0213 121.096 47.68C120.477 47.328 119.992 46.8427 119.64 46.224C119.299 45.5947 119.128 44.8693 119.128 44.048C119.128 43.2053 119.299 42.464 119.64 41.824C119.992 41.1733 120.477 40.6667 121.096 40.304C121.715 39.9307 122.435 39.744 123.256 39.744C124.056 39.744 124.755 39.92 125.352 40.272C125.949 40.624 126.413 41.0987 126.744 41.696C127.075 42.2933 127.24 42.9707 127.24 43.728C127.24 43.8347 127.24 43.9573 127.24 44.096C127.24 44.224 127.229 44.3573 127.208 44.496H120.664V43.184H125.064C125.032 42.6613 124.845 42.2507 124.504 41.952C124.173 41.6533 123.757 41.504 123.256 41.504C122.893 41.504 122.557 41.5893 122.248 41.76C121.939 41.92 121.693 42.1707 121.512 42.512C121.341 42.8533 121.256 43.2853 121.256 43.808V44.272C121.256 44.7093 121.336 45.0933 121.496 45.424C121.667 45.744 121.901 45.9947 122.2 46.176C122.499 46.3467 122.845 46.432 123.24 46.432C123.635 46.432 123.96 46.3467 124.216 46.176C124.483 46.0053 124.68 45.7867 124.808 45.52H127.016C126.867 46.0213 126.616 46.4747 126.264 46.88C125.912 47.2853 125.48 47.6053 124.968 47.84C124.456 48.0747 123.885 48.192 123.256 48.192ZM129.009 48V39.936H130.929L131.137 41.424C131.329 41.072 131.569 40.7733 131.857 40.528C132.156 40.2827 132.492 40.0907 132.865 39.952C133.249 39.8133 133.67 39.744 134.129 39.744V42.032H133.393C133.073 42.032 132.774 42.0693 132.497 42.144C132.23 42.2187 131.996 42.3413 131.793 42.512C131.59 42.672 131.436 42.896 131.329 43.184C131.222 43.472 131.169 43.8347 131.169 44.272V48H129.009Z" fill="white"/>
<path d="M21.4233 7.8667C21.582 8.07437 21.7523 8.37392 21.75 8.73735C21.7439 9.67812 21.1031 10.3392 20.4311 10.7787C19.7446 11.2278 18.8525 11.5651 17.9687 11.8286C17.0749 12.0952 16.1354 12.3016 15.3288 12.4687C14.7631 12.584 13.7601 12.7891 13.4652 12.8718C12.9855 13.0064 12.8401 13.1049 12.7666 13.1842C12.6896 13.2673 12.5968 13.4313 12.4849 13.9403L12.4842 13.9433C11.9628 16.3145 11.5575 18.158 11.1257 19.4091C10.9103 20.0332 10.6667 20.5772 10.3565 20.9798C10.0321 21.4008 9.58758 21.723 9.0002 21.7489C8.63079 21.7652 8.32556 21.5965 8.1192 21.4433C7.90134 21.2814 7.6976 21.0653 7.50983 20.8307C7.13231 20.3591 6.73677 19.7079 6.34409 18.9575C5.55467 17.4489 4.71927 15.4272 4.01261 13.3481C3.30627 11.2699 2.71729 9.10127 2.43347 7.29781C2.29195 6.39853 2.22162 5.56157 2.2607 4.85917C2.29766 4.19486 2.43924 3.4869 2.87887 3.01347C3.33198 2.52551 4.03887 2.34573 4.70448 2.28158C5.40563 2.214 6.24371 2.25904 7.14386 2.37711C8.94949 2.61394 11.1295 3.16192 13.2226 3.83567C15.3171 4.50987 17.3595 5.32128 18.8898 6.09915C19.6513 6.48618 20.3134 6.87864 20.7958 7.25658C21.036 7.44474 21.2567 7.64857 21.4233 7.8667Z" fill="#6E6CDF"/>
</svg>
