<svg width="189" height="63" viewBox="0 0 189 63" fill="none" xmlns="http://www.w3.org/2000/svg">
<rect width="167" height="41" rx="20.5" transform="matrix(-1 0 0 1 167 22)" fill="#7C7F84"/>
<path d="M27.36 48L24.416 36.8H26.72L28.672 45.552L30.976 36.8H33.36L35.6 45.552L37.568 36.8H39.888L36.864 48H34.288L32.144 39.84L29.92 48H27.36ZM44.3499 48.192C43.5392 48.192 42.8192 48.0213 42.1899 47.68C41.5712 47.328 41.0859 46.8427 40.7339 46.224C40.3925 45.5947 40.2219 44.8693 40.2219 44.048C40.2219 43.2053 40.3925 42.464 40.7339 41.824C41.0859 41.1733 41.5712 40.6667 42.1899 40.304C42.8085 39.9307 43.5285 39.744 44.3499 39.744C45.1499 39.744 45.8485 39.92 46.4459 40.272C47.0432 40.624 47.5072 41.0987 47.8379 41.696C48.1685 42.2933 48.3339 42.9707 48.3339 43.728C48.3339 43.8347 48.3339 43.9573 48.3339 44.096C48.3339 44.224 48.3232 44.3573 48.3019 44.496H41.7579V43.184H46.1579C46.1259 42.6613 45.9392 42.2507 45.5979 41.952C45.2672 41.6533 44.8512 41.504 44.3499 41.504C43.9872 41.504 43.6512 41.5893 43.3419 41.76C43.0325 41.92 42.7872 42.1707 42.6059 42.512C42.4352 42.8533 42.3499 43.2853 42.3499 43.808V44.272C42.3499 44.7093 42.4299 45.0933 42.5899 45.424C42.7605 45.744 42.9952 45.9947 43.2939 46.176C43.5925 46.3467 43.9392 46.432 44.3339 46.432C44.7285 46.432 45.0539 46.3467 45.3099 46.176C45.5765 46.0053 45.7739 45.7867 45.9019 45.52H48.1099C47.9605 46.0213 47.7099 46.4747 47.3579 46.88C47.0059 47.2853 46.5739 47.6053 46.0619 47.84C45.5499 48.0747 44.9792 48.192 44.3499 48.192ZM54.8709 48.192C54.4549 48.192 54.0815 48.1387 53.7509 48.032C53.4309 47.9253 53.1429 47.7813 52.8869 47.6C52.6415 47.408 52.4335 47.1947 52.2629 46.96L52.0229 48H50.1029V36.48H52.2629V41.056C52.5189 40.6827 52.8549 40.3733 53.2709 40.128C53.6975 39.872 54.2255 39.744 54.8549 39.744C55.6015 39.744 56.2629 39.9307 56.8389 40.304C57.4255 40.6667 57.8842 41.168 58.2149 41.808C58.5562 42.4373 58.7269 43.1627 58.7269 43.984C58.7269 44.784 58.5562 45.504 58.2149 46.144C57.8842 46.784 57.4309 47.2853 56.8549 47.648C56.2789 48.0107 55.6175 48.192 54.8709 48.192ZM54.3589 46.304C54.7855 46.304 55.1589 46.208 55.4789 46.016C55.8095 45.8133 56.0655 45.5413 56.2469 45.2C56.4282 44.848 56.5189 44.4427 56.5189 43.984C56.5189 43.5253 56.4282 43.12 56.2469 42.768C56.0655 42.4053 55.8095 42.128 55.4789 41.936C55.1589 41.7333 54.7855 41.632 54.3589 41.632C53.9429 41.632 53.5695 41.7333 53.2389 41.936C52.9189 42.128 52.6629 42.4 52.4709 42.752C52.2895 43.104 52.1989 43.5093 52.1989 43.968C52.1989 44.4267 52.2895 44.8373 52.4709 45.2C52.6629 45.552 52.9189 45.824 53.2389 46.016C53.5695 46.208 53.9429 46.304 54.3589 46.304ZM64.4009 48V36.8H68.1449C69.4462 36.8 70.5182 37.0347 71.3609 37.504C72.2142 37.9627 72.8435 38.6133 73.2489 39.456C73.6649 40.288 73.8729 41.2693 73.8729 42.4C73.8729 43.5307 73.6649 44.5173 73.2489 45.36C72.8435 46.192 72.2195 46.8427 71.3769 47.312C70.5342 47.7707 69.4569 48 68.1449 48H64.4009ZM66.5609 46.144H68.0329C68.9502 46.144 69.6702 45.9947 70.1929 45.696C70.7262 45.3973 71.1049 44.9707 71.3289 44.416C71.5529 43.8507 71.6649 43.1787 71.6649 42.4C71.6649 41.6107 71.5529 40.9387 71.3289 40.384C71.1049 39.8187 70.7262 39.3867 70.1929 39.088C69.6702 38.7893 68.9502 38.64 68.0329 38.64H66.5609V46.144ZM79.5374 48.192C78.7267 48.192 78.0067 48.0213 77.3774 47.68C76.7587 47.328 76.2734 46.8427 75.9214 46.224C75.58 45.5947 75.4094 44.8693 75.4094 44.048C75.4094 43.2053 75.58 42.464 75.9214 41.824C76.2734 41.1733 76.7587 40.6667 77.3774 40.304C77.996 39.9307 78.716 39.744 79.5374 39.744C80.3374 39.744 81.036 39.92 81.6334 40.272C82.2307 40.624 82.6947 41.0987 83.0254 41.696C83.356 42.2933 83.5214 42.9707 83.5214 43.728C83.5214 43.8347 83.5214 43.9573 83.5214 44.096C83.5214 44.224 83.5107 44.3573 83.4894 44.496H76.9454V43.184H81.3454C81.3134 42.6613 81.1267 42.2507 80.7854 41.952C80.4547 41.6533 80.0387 41.504 79.5374 41.504C79.1747 41.504 78.8387 41.5893 78.5294 41.76C78.22 41.92 77.9747 42.1707 77.7934 42.512C77.6227 42.8533 77.5374 43.2853 77.5374 43.808V44.272C77.5374 44.7093 77.6174 45.0933 77.7774 45.424C77.948 45.744 78.1827 45.9947 78.4814 46.176C78.78 46.3467 79.1267 46.432 79.5214 46.432C79.916 46.432 80.2414 46.3467 80.4974 46.176C80.764 46.0053 80.9614 45.7867 81.0894 45.52H83.2974C83.148 46.0213 82.8974 46.4747 82.5454 46.88C82.1934 47.2853 81.7614 47.6053 81.2494 47.84C80.7374 48.0747 80.1667 48.192 79.5374 48.192ZM87.1379 48L84.1779 39.936H86.4499L88.4499 45.968L90.4499 39.936H92.7059L89.7619 48H87.1379ZM97.5218 48.192C96.7111 48.192 95.9911 48.0213 95.3618 47.68C94.7431 47.328 94.2578 46.8427 93.9058 46.224C93.5644 45.5947 93.3938 44.8693 93.3938 44.048C93.3938 43.2053 93.5644 42.464 93.9058 41.824C94.2578 41.1733 94.7431 40.6667 95.3618 40.304C95.9804 39.9307 96.7004 39.744 97.5218 39.744C98.3218 39.744 99.0204 39.92 99.6178 40.272C100.215 40.624 100.679 41.0987 101.01 41.696C101.34 42.2933 101.506 42.9707 101.506 43.728C101.506 43.8347 101.506 43.9573 101.506 44.096C101.506 44.224 101.495 44.3573 101.474 44.496H94.9298V43.184H99.3298C99.2978 42.6613 99.1111 42.2507 98.7698 41.952C98.4391 41.6533 98.0231 41.504 97.5218 41.504C97.1591 41.504 96.8231 41.5893 96.5138 41.76C96.2044 41.92 95.9591 42.1707 95.7778 42.512C95.6071 42.8533 95.5218 43.2853 95.5218 43.808V44.272C95.5218 44.7093 95.6018 45.0933 95.7618 45.424C95.9324 45.744 96.1671 45.9947 96.4658 46.176C96.7644 46.3467 97.1111 46.432 97.5058 46.432C97.9004 46.432 98.2258 46.3467 98.4818 46.176C98.7484 46.0053 98.9458 45.7867 99.0738 45.52H101.282C101.132 46.0213 100.882 46.4747 100.53 46.88C100.178 47.2853 99.7458 47.6053 99.2338 47.84C98.7218 48.0747 98.1511 48.192 97.5218 48.192ZM103.275 48V36.48H105.435V48H103.275ZM111.348 48.192C110.58 48.192 109.887 48.016 109.268 47.664C108.66 47.3013 108.175 46.8053 107.812 46.176C107.46 45.536 107.284 44.8053 107.284 43.984C107.284 43.1413 107.46 42.4053 107.812 41.776C108.175 41.136 108.666 40.64 109.284 40.288C109.903 39.9253 110.596 39.744 111.364 39.744C112.143 39.744 112.836 39.9253 113.444 40.288C114.063 40.64 114.548 41.136 114.9 41.776C115.263 42.4053 115.444 43.136 115.444 43.968C115.444 44.8 115.263 45.536 114.9 46.176C114.548 46.8053 114.063 47.3013 113.444 47.664C112.826 48.016 112.127 48.192 111.348 48.192ZM111.348 46.32C111.711 46.32 112.031 46.2347 112.308 46.064C112.596 45.8933 112.82 45.632 112.98 45.28C113.151 44.928 113.236 44.4907 113.236 43.968C113.236 43.4453 113.151 43.0133 112.98 42.672C112.82 42.32 112.596 42.0587 112.308 41.888C112.031 41.7067 111.716 41.616 111.364 41.616C111.023 41.616 110.708 41.7067 110.42 41.888C110.132 42.0587 109.903 42.32 109.732 42.672C109.572 43.0133 109.492 43.4453 109.492 43.968C109.492 44.4907 109.572 44.928 109.732 45.28C109.903 45.632 110.127 45.8933 110.404 46.064C110.692 46.2347 111.007 46.32 111.348 46.32ZM117.306 51.52V39.936H119.226L119.466 41.056C119.637 40.8213 119.839 40.608 120.074 40.416C120.309 40.2133 120.586 40.0533 120.906 39.936C121.237 39.808 121.621 39.744 122.058 39.744C122.815 39.744 123.482 39.9307 124.058 40.304C124.634 40.6773 125.087 41.184 125.418 41.824C125.759 42.4533 125.93 43.1733 125.93 43.984C125.93 44.7947 125.759 45.52 125.418 46.16C125.077 46.7893 124.618 47.2853 124.042 47.648C123.466 48.0107 122.81 48.192 122.074 48.192C121.477 48.192 120.959 48.0853 120.522 47.872C120.095 47.648 119.743 47.344 119.466 46.96V51.52H117.306ZM121.562 46.304C121.989 46.304 122.362 46.208 122.682 46.016C123.013 45.824 123.269 45.552 123.45 45.2C123.631 44.848 123.722 44.4427 123.722 43.984C123.722 43.5253 123.631 43.12 123.45 42.768C123.269 42.4053 123.013 42.128 122.682 41.936C122.362 41.7333 121.989 41.632 121.562 41.632C121.146 41.632 120.773 41.7333 120.442 41.936C120.122 42.128 119.866 42.4 119.674 42.752C119.493 43.104 119.402 43.5093 119.402 43.968C119.402 44.4267 119.493 44.8373 119.674 45.2C119.866 45.552 120.122 45.824 120.442 46.016C120.773 46.208 121.146 46.304 121.562 46.304ZM131.662 48.192C130.852 48.192 130.132 48.0213 129.502 47.68C128.884 47.328 128.398 46.8427 128.046 46.224C127.705 45.5947 127.534 44.8693 127.534 44.048C127.534 43.2053 127.705 42.464 128.046 41.824C128.398 41.1733 128.884 40.6667 129.502 40.304C130.121 39.9307 130.841 39.744 131.662 39.744C132.462 39.744 133.161 39.92 133.758 40.272C134.356 40.624 134.82 41.0987 135.15 41.696C135.481 42.2933 135.646 42.9707 135.646 43.728C135.646 43.8347 135.646 43.9573 135.646 44.096C135.646 44.224 135.636 44.3573 135.614 44.496H129.07V43.184H133.47C133.438 42.6613 133.252 42.2507 132.91 41.952C132.58 41.6533 132.164 41.504 131.662 41.504C131.3 41.504 130.964 41.5893 130.654 41.76C130.345 41.92 130.1 42.1707 129.918 42.512C129.748 42.8533 129.662 43.2853 129.662 43.808V44.272C129.662 44.7093 129.742 45.0933 129.902 45.424C130.073 45.744 130.308 45.9947 130.606 46.176C130.905 46.3467 131.252 46.432 131.646 46.432C132.041 46.432 132.366 46.3467 132.622 46.176C132.889 46.0053 133.086 45.7867 133.214 45.52H135.422C135.273 46.0213 135.022 46.4747 134.67 46.88C134.318 47.2853 133.886 47.6053 133.374 47.84C132.862 48.0747 132.292 48.192 131.662 48.192ZM137.415 48V39.936H139.335L139.543 41.424C139.735 41.072 139.975 40.7733 140.263 40.528C140.562 40.2827 140.898 40.0907 141.271 39.952C141.655 39.8133 142.077 39.744 142.535 39.744V42.032H141.799C141.479 42.032 141.181 42.0693 140.903 42.144C140.637 42.2187 140.402 42.3413 140.199 42.512C139.997 42.672 139.842 42.896 139.735 43.184C139.629 43.472 139.575 43.8347 139.575 44.272V48H137.415Z" fill="white"/>
<path d="M167.577 7.8667C167.418 8.07437 167.248 8.37392 167.25 8.73735C167.256 9.67812 167.897 10.3392 168.569 10.7787C169.255 11.2278 170.148 11.5651 171.031 11.8286C171.925 12.0952 172.865 12.3016 173.671 12.4687C174.237 12.584 175.24 12.7891 175.535 12.8718C176.015 13.0064 176.16 13.1049 176.233 13.1842C176.31 13.2673 176.403 13.4313 176.515 13.9403L176.516 13.9433C177.037 16.3145 177.443 18.158 177.874 19.4091C178.09 20.0332 178.333 20.5772 178.644 20.9798C178.968 21.4008 179.412 21.723 180 21.7489C180.369 21.7652 180.674 21.5965 180.881 21.4433C181.099 21.2814 181.302 21.0653 181.49 20.8307C181.868 20.3591 182.263 19.7079 182.656 18.9575C183.445 17.4489 184.281 15.4272 184.987 13.3481C185.694 11.2699 186.283 9.10127 186.567 7.29781C186.708 6.39853 186.778 5.56157 186.739 4.85917C186.702 4.19486 186.561 3.4869 186.121 3.01347C185.668 2.52551 184.961 2.34573 184.296 2.28158C183.594 2.214 182.756 2.25904 181.856 2.37711C180.051 2.61394 177.871 3.16192 175.777 3.83567C173.683 4.50987 171.641 5.32128 170.11 6.09915C169.349 6.48618 168.687 6.87864 168.204 7.25658C167.964 7.44474 167.743 7.64857 167.577 7.8667Z" fill="#7C7F84"/>
</svg>
