<svg width="1080" height="1080" viewBox="0 0 1080 1080" fill="none" xmlns="http://www.w3.org/2000/svg">
<rect width="1080" height="1080" rx="540" fill="#FF4500"/>
<path d="M459 378C472.5 391.5 499.589 389.132 540 355.761ZM540 355.761C534.022 350.825 527.812 345.217 521.397 338.859C459.143 277.171 374.36 289.249 334.638 338.859C307.202 373.124 236.993 458.421 408.838 762.469C415.953 775.057 430.126 783 445.392 783C469.746 783 488.781 763.563 489.572 740.877C491.252 692.763 500.572 637.294 540 637.294C579.428 637.294 588.749 692.763 590.428 740.877C591.219 763.563 610.254 783 634.608 783C649.874 783 664.046 775.057 671.161 762.469C843.008 458.421 772.799 373.124 745.362 338.859C705.64 289.249 620.857 277.171 558.603 338.859C552.188 345.217 545.978 350.825 540 355.761Z" fill="white"/>
<path d="M459 378C472.5 391.5 499.589 389.132 540 355.761M540 355.761C534.022 350.825 527.812 345.217 521.397 338.859C459.143 277.171 374.36 289.249 334.638 338.859C307.202 373.124 236.993 458.421 408.838 762.469C415.953 775.057 430.126 783 445.392 783C469.746 783 488.781 763.563 489.572 740.877C491.252 692.763 500.572 637.294 540 637.294C579.428 637.294 588.749 692.763 590.428 740.877C591.219 763.563 610.254 783 634.608 783C649.874 783 664.046 775.057 671.161 762.469C843.008 458.421 772.799 373.124 745.362 338.859C705.64 289.249 620.857 277.171 558.603 338.859C552.188 345.217 545.978 350.825 540 355.761Z" stroke="black" stroke-width="40.5" stroke-linecap="round" stroke-linejoin="round"/>
</svg>
